<svg width="1920" height="1283" viewBox="0 0 1920 1283" fill="none" xmlns="http://www.w3.org/2000/svg">
<ellipse cx="741.64" cy="51.2717" rx="24.4688" ry="21.7761" fill="white"/>
<ellipse cx="741.64" cy="51.2717" rx="24.4688" ry="21.7761" fill="url(#paint0_linear_307_1356)" fill-opacity="0.2"/>
<rect x="-7" width="1942" height="1283" fill="white"/>
<rect x="-7" width="1942" height="1283" fill="url(#paint1_linear_307_1356)" fill-opacity="0.5"/>
<rect x="-7" width="1942" height="1283" fill="url(#paint2_radial_307_1356)"/>
<ellipse cx="112.25" cy="11.3489" rx="46.2188" ry="41.1326" fill="white"/>
<ellipse cx="112.25" cy="11.3489" rx="46.2188" ry="41.1326" fill="url(#paint3_linear_307_1356)" fill-opacity="0.2"/>
<ellipse cx="1795.16" cy="279.921" rx="24.4688" ry="21.7761" fill="white"/>
<ellipse cx="1795.16" cy="279.921" rx="24.4688" ry="21.7761" fill="url(#paint4_linear_307_1356)" fill-opacity="0.2"/>
<ellipse cx="1861.77" cy="57.3206" rx="42.1406" ry="37.5033" fill="white"/>
<ellipse cx="1861.77" cy="57.3206" rx="42.1406" ry="37.5033" fill="url(#paint5_linear_307_1356)" fill-opacity="0.2"/>
<ellipse cx="1949.45" cy="192.211" rx="98.5547" ry="87.7092" fill="white"/>
<ellipse cx="1949.45" cy="192.211" rx="98.5547" ry="87.7092" fill="url(#paint6_linear_307_1356)" fill-opacity="0.2"/>
<ellipse cx="58.5547" cy="233.344" rx="98.5547" ry="87.7092" fill="white"/>
<ellipse cx="58.5547" cy="233.344" rx="98.5547" ry="87.7092" fill="url(#paint7_linear_307_1356)" fill-opacity="0.2"/>
<ellipse cx="1083.52" cy="-18.2908" rx="98.5547" ry="87.7092" fill="white"/>
<ellipse cx="1083.52" cy="-18.2908" rx="98.5547" ry="87.7092" fill="url(#paint8_linear_307_1356)" fill-opacity="0.2"/>
<defs>
<linearGradient id="paint0_linear_307_1356" x1="782.302" y1="83.2953" x2="738.461" y2="52.0837" gradientUnits="userSpaceOnUse">
<stop stop-color="white" stop-opacity="0"/>
<stop offset="1" stop-color="#F2D98D"/>
</linearGradient>
<linearGradient id="paint1_linear_307_1356" x1="-7" y1="0" x2="640.854" y2="523.482" gradientUnits="userSpaceOnUse">
<stop stop-color="#F2D98D"/>
<stop offset="1" stop-color="white" stop-opacity="0"/>
</linearGradient>
<radialGradient id="paint2_radial_307_1356" cx="0" cy="0" r="1" gradientUnits="userSpaceOnUse" gradientTransform="translate(1970.33 412.503) rotate(121.36) scale(810.837 1322.9)">
<stop stop-color="#F2D98D"/>
<stop offset="1" stop-color="white" stop-opacity="0"/>
</radialGradient>
<linearGradient id="paint3_linear_307_1356" x1="189.055" y1="71.838" x2="106.245" y2="12.8828" gradientUnits="userSpaceOnUse">
<stop stop-color="white" stop-opacity="0"/>
<stop offset="1" stop-color="#F2D98D"/>
</linearGradient>
<linearGradient id="paint4_linear_307_1356" x1="1835.82" y1="311.944" x2="1791.98" y2="280.733" gradientUnits="userSpaceOnUse">
<stop stop-color="white" stop-opacity="0"/>
<stop offset="1" stop-color="#F2D98D"/>
</linearGradient>
<linearGradient id="paint5_linear_307_1356" x1="1931.79" y1="112.472" x2="1856.29" y2="58.7192" gradientUnits="userSpaceOnUse">
<stop stop-color="white" stop-opacity="0"/>
<stop offset="1" stop-color="#F2D98D"/>
</linearGradient>
<linearGradient id="paint6_linear_307_1356" x1="2113.22" y1="321.196" x2="1936.64" y2="195.482" gradientUnits="userSpaceOnUse">
<stop stop-color="white" stop-opacity="0"/>
<stop offset="1" stop-color="#F2D98D"/>
</linearGradient>
<linearGradient id="paint7_linear_307_1356" x1="222.329" y1="362.328" x2="45.7489" y2="236.615" gradientUnits="userSpaceOnUse">
<stop stop-color="white" stop-opacity="0"/>
<stop offset="1" stop-color="#F2D98D"/>
</linearGradient>
<linearGradient id="paint8_linear_307_1356" x1="1247.3" y1="110.693" x2="1070.72" y2="-15.02" gradientUnits="userSpaceOnUse">
<stop stop-color="white" stop-opacity="0"/>
<stop offset="1" stop-color="#F2D98D"/>
</linearGradient>
</defs>
</svg>
