<svg width="1920" height="1003" viewBox="0 0 1920 1003" fill="none" xmlns="http://www.w3.org/2000/svg">
<rect x="-16.375" y="-3.53931" width="1942.55" height="1006.54" fill="white"/>
<rect x="-16.375" y="-3.53931" width="1942.55" height="1006.54" fill="url(#paint0_linear_202_51)" fill-opacity="0.5"/>
<rect x="-16.375" y="-3.53931" width="1942.55" height="1006.54" fill="url(#paint1_radial_202_51)"/>
<ellipse cx="70.25" cy="11.3489" rx="46.2188" ry="41.1326" fill="white"/>
<ellipse cx="70.25" cy="11.3489" rx="46.2188" ry="41.1326" fill="url(#paint2_linear_202_51)" fill-opacity="0.2"/>
<ellipse cx="699.64" cy="51.2717" rx="24.4688" ry="21.7761" fill="white"/>
<ellipse cx="699.64" cy="51.2717" rx="24.4688" ry="21.7761" fill="url(#paint3_linear_202_51)" fill-opacity="0.2"/>
<ellipse cx="1753.16" cy="279.921" rx="24.4688" ry="21.7761" fill="white"/>
<ellipse cx="1753.16" cy="279.921" rx="24.4688" ry="21.7761" fill="url(#paint4_linear_202_51)" fill-opacity="0.2"/>
<ellipse cx="1819.77" cy="57.3206" rx="42.1406" ry="37.5033" fill="white"/>
<ellipse cx="1819.77" cy="57.3206" rx="42.1406" ry="37.5033" fill="url(#paint5_linear_202_51)" fill-opacity="0.2"/>
<ellipse cx="1907.45" cy="192.211" rx="98.5547" ry="87.7092" fill="white"/>
<ellipse cx="1907.45" cy="192.211" rx="98.5547" ry="87.7092" fill="url(#paint6_linear_202_51)" fill-opacity="0.2"/>
<ellipse cx="16.5547" cy="233.344" rx="98.5547" ry="87.7092" fill="white"/>
<ellipse cx="16.5547" cy="233.344" rx="98.5547" ry="87.7092" fill="url(#paint7_linear_202_51)" fill-opacity="0.2"/>
<ellipse cx="1041.52" cy="-18.2908" rx="98.5547" ry="87.7092" fill="white"/>
<ellipse cx="1041.52" cy="-18.2908" rx="98.5547" ry="87.7092" fill="url(#paint8_linear_202_51)" fill-opacity="0.2"/>
<defs>
<linearGradient id="paint0_linear_202_51" x1="-16.375" y1="-3.53931" x2="503.239" y2="531.794" gradientUnits="userSpaceOnUse">
<stop stop-color="#F2D98D"/>
<stop offset="1" stop-color="white" stop-opacity="0"/>
</linearGradient>
<radialGradient id="paint1_radial_202_51" cx="0" cy="0" r="1" gradientUnits="userSpaceOnUse" gradientTransform="translate(1961.52 320.077) rotate(127.849) scale(687.906 1223.66)">
<stop stop-color="#F2D98D"/>
<stop offset="1" stop-color="white" stop-opacity="0"/>
</radialGradient>
<linearGradient id="paint2_linear_202_51" x1="147.055" y1="71.838" x2="64.2445" y2="12.8828" gradientUnits="userSpaceOnUse">
<stop stop-color="white" stop-opacity="0"/>
<stop offset="1" stop-color="#F2D98D"/>
</linearGradient>
<linearGradient id="paint3_linear_202_51" x1="740.302" y1="83.2953" x2="696.461" y2="52.0837" gradientUnits="userSpaceOnUse">
<stop stop-color="white" stop-opacity="0"/>
<stop offset="1" stop-color="#F2D98D"/>
</linearGradient>
<linearGradient id="paint4_linear_202_51" x1="1793.82" y1="311.944" x2="1749.98" y2="280.733" gradientUnits="userSpaceOnUse">
<stop stop-color="white" stop-opacity="0"/>
<stop offset="1" stop-color="#F2D98D"/>
</linearGradient>
<linearGradient id="paint5_linear_202_51" x1="1889.79" y1="112.472" x2="1814.29" y2="58.7192" gradientUnits="userSpaceOnUse">
<stop stop-color="white" stop-opacity="0"/>
<stop offset="1" stop-color="#F2D98D"/>
</linearGradient>
<linearGradient id="paint6_linear_202_51" x1="2071.22" y1="321.196" x2="1894.64" y2="195.482" gradientUnits="userSpaceOnUse">
<stop stop-color="white" stop-opacity="0"/>
<stop offset="1" stop-color="#F2D98D"/>
</linearGradient>
<linearGradient id="paint7_linear_202_51" x1="180.329" y1="362.328" x2="3.74886" y2="236.615" gradientUnits="userSpaceOnUse">
<stop stop-color="white" stop-opacity="0"/>
<stop offset="1" stop-color="#F2D98D"/>
</linearGradient>
<linearGradient id="paint8_linear_202_51" x1="1205.3" y1="110.693" x2="1028.72" y2="-15.02" gradientUnits="userSpaceOnUse">
<stop stop-color="white" stop-opacity="0"/>
<stop offset="1" stop-color="#F2D98D"/>
</linearGradient>
</defs>
</svg>
