<svg width="333" height="286" viewBox="0 0 333 286" fill="none" xmlns="http://www.w3.org/2000/svg">
<path d="M154.717 116.614C155.032 117.327 155.534 117.944 156.169 118.4L156.452 118.612L156.603 111.806C156.408 112.018 156.219 112.231 156.037 112.431C154.925 113.748 154.139 115.078 154.717 116.614Z" fill="#6A5938"/>
<path d="M97.8618 112.512C96.1709 110.788 95.184 108.109 95.272 104.8C92.1983 121.485 88.8416 143.234 87.5845 164.071C89.0114 162.673 90.3942 161.355 91.7268 160.081C92.9463 143.621 95.3914 126.761 97.8618 112.512Z" fill="#6A5938"/>
<path d="M226.124 111.731L225.583 111.519L225.86 123.82L226.124 111.731Z" fill="#6A5938"/>
<path d="M241.612 157.802C241.864 158.052 242.121 158.302 242.373 158.539L245.755 161.293C244.529 143.54 241.87 125.319 239.236 110.289C238.779 112.884 238.496 115.506 238.388 118.138C238.388 117.838 237.608 117.251 236.338 116.514C238.45 129.172 240.462 143.577 241.612 157.802Z" fill="#6A5938"/>
<path d="M99.5213 96.4137C100.037 95.9953 100.571 95.577 101.112 95.1648C102.155 89.9508 103.092 85.6047 103.802 82.4201H110.584L110.949 88.9704C112.581 88.1993 114.279 87.5725 116.022 87.0971L116.279 82.4138H132.22L132.66 89.8384L133.49 90.3317L133.961 82.4263H155.333L155.679 97.7001C156.125 97.8062 156.534 97.9186 156.892 98.0372L157.244 82.4263H190.458L192.306 95.0212C192.998 94.5841 193.702 94.1678 194.418 93.7723L196.109 82.4263H216.117L216.488 88.0463C216.827 88.0463 217.173 88.0463 217.519 88.0962L217.889 82.4138H224.917L225.068 89.2826C225.577 89.4138 226.086 89.5574 226.589 89.7135L226.803 82.4263H229.744C230.291 84.9241 231.002 88.0463 231.743 91.7929C233.476 92.6764 235.059 93.8248 236.433 95.1961C234.949 87.7465 233.673 81.9955 232.938 78.7921H100.609C99.7099 82.7198 97.9939 90.4691 96.083 100.485C96.9079 98.8894 98.0829 97.4981 99.5213 96.4137Z" fill="#6A5938"/>
<path d="M114.814 108.784C113.861 109.227 112.963 109.778 112.137 110.426L113.249 130.408L113.683 129.159L114.814 108.784Z" fill="#6A5938"/>
<path d="M159.802 269.757C163.021 270.881 165.459 271.631 166.754 272.005C168.012 271.631 170.438 270.894 173.6 269.788C169.018 269.228 164.386 269.218 159.802 269.757Z" fill="#6A5938"/>
<path d="M228.638 230.736L228.198 224.304L227.482 225.029L226.954 232.709C222.424 237.75 217.346 242.276 211.811 246.203L211.352 230.374L210.46 230.568L209.969 247.509C207.097 249.494 204.174 251.33 201.27 253.022C201.207 254.459 201.207 255.938 201.207 257.393C214.577 249.9 228.594 239.41 237.118 225.472L234.849 221.688C233.053 224.881 230.974 227.909 228.638 230.736Z" fill="#6A5938"/>
<path d="M129.656 235.007L129.323 234.832L128.6 250.849C119.209 244.992 109.975 237.605 103.167 228.569L103.079 226.253L98.1953 228.27C106.562 240.484 119.089 249.894 131.221 256.813C131.259 255.429 131.409 254.051 131.667 252.691C131.252 252.442 130.838 252.211 130.41 251.961L129.656 235.007Z" fill="#6A5938"/>
<path d="M259.816 190.516C272.287 187.444 295.488 180.725 312.309 169.91C336.384 154.405 332.813 132.587 332.813 132.587C308.751 150.378 274.77 163.647 259.898 168.98C259.898 168.711 259.898 168.449 259.866 168.18C273.991 161.549 304.496 145.982 319.142 129.003C338.546 106.467 328.828 86.173 328.828 86.173C301.548 119.268 270.32 137.826 258.006 144.339C257.955 143.865 257.905 143.39 257.849 142.916C270.106 133.087 300.592 107.479 313.384 86.173C329.576 59.2036 313.384 34.707 313.384 34.707C295.57 67.3525 274.343 95.2773 254.448 117.757C250.588 93.5351 246.107 74.9269 245.648 73.1036L243.913 65.9912H230.48L228.563 72.1544L226.639 65.9912H179.992L178.063 72.4916L176.127 65.9912H144.578L142.692 69.5318L140.807 65.9912H91.7774L93.8391 69.4132L89.3825 67.1027L87.9179 73.1036C87.4716 74.9394 82.8893 93.8411 79.0361 118.356C58.9906 95.8018 37.5497 67.6398 19.5723 34.682C19.5723 34.682 3.38003 59.1787 19.5723 86.1481C32.5588 107.791 63.8244 133.88 75.6731 143.346C75.6292 143.771 75.5789 144.196 75.5349 144.627C63.6547 138.382 31.8485 119.793 4.12804 86.1481C4.12804 86.1481 -5.58983 106.442 13.8396 128.959C28.7118 146.194 59.9146 161.973 73.7308 168.424C73.7308 168.667 73.7308 168.911 73.7308 169.161C59.1729 163.978 24.5695 150.584 0.186833 132.544C0.186833 132.544 -3.38351 154.361 20.6912 169.866C37.7948 180.881 61.4986 187.65 73.8063 190.647C73.8063 190.897 73.8063 191.153 73.8503 191.409C59.2295 189.317 28.0078 183.979 7.22066 174.156C7.22066 174.156 10.703 194.282 33.2879 202.368C48.5122 207.813 66.213 209.593 76.1383 210.167L76.2703 210.792C64.2455 211.266 40.6423 211.76 24.6512 209.268C24.6512 209.268 32.6216 223.786 52.0511 227.745C61.1781 229.619 72.6308 228.913 82.223 227.664C82.5121 228.232 82.8013 228.801 83.1156 229.356C83.3356 229.75 83.5681 230.137 83.807 230.524C73.4794 233.609 59.814 236.656 46.0921 236.656C46.0921 236.656 52.0699 245.229 68.017 246.06C76.2452 246.485 86.5476 244.405 94.5934 242.313L93.5186 243.75L93.5626 243.8C93.902 244.174 94.2477 244.536 94.5934 244.905C87.3145 248.227 78.1309 251.892 70.0033 253.503C70.0033 253.503 80.6327 262.745 100.232 256.625C101.841 256.126 103.519 255.514 105.26 254.833C105.468 255.002 105.669 255.177 105.889 255.339C116.261 263.694 127.688 270.051 137.683 274.659L141.454 272.511L139.499 275.49C147.494 279.122 155.754 282.147 164.209 284.538L166.887 285.243L169.571 284.538C171.412 284.051 202.797 275.571 227.916 255.345L228.33 255.008C229.889 255.633 231.423 256.17 232.894 256.625C252.493 262.732 263.116 253.503 263.116 253.503C255.165 251.923 246.188 248.377 238.991 245.111L240.185 243.8L240.94 242.932C248.564 244.805 257.685 246.466 265.115 246.085C281.056 245.254 287.034 236.681 287.034 236.681C273.513 236.681 260.086 233.734 249.822 230.705C250.079 230.262 250.343 229.825 250.588 229.375C250.834 228.925 251.167 228.301 251.45 227.764C260.929 228.969 272.111 229.594 281.056 227.764C300.485 223.805 308.456 209.287 308.456 209.287C292.741 211.735 269.66 211.304 257.459 210.836C257.509 210.604 257.553 210.361 257.603 210.124C267.661 209.499 284.909 207.695 299.819 202.362C322.404 194.275 325.886 174.15 325.886 174.15C305.413 183.841 274.77 189.136 259.885 191.316C259.791 191.078 259.803 190.791 259.816 190.516ZM311.875 128.697C310.668 129.909 308.965 131.676 306.758 133.624C304.552 135.572 301.981 137.851 299.065 140.106C296.148 142.36 292.936 144.627 289.667 146.818C286.399 149.01 282.954 150.927 279.729 152.707C276.505 154.486 273.368 155.929 270.684 157.14C268 158.352 265.693 159.232 264.09 159.857L261.576 160.768L263.971 159.519C265.511 158.764 267.667 157.602 270.257 156.229C272.847 154.855 275.801 153.138 278.981 151.339C282.162 149.541 285.45 147.455 288.699 145.307C291.949 143.159 295.193 140.999 298.128 138.844C301.064 136.69 303.842 134.692 306.111 132.85C308.38 131.008 310.348 129.54 311.655 128.435L313.748 126.743L311.875 128.697ZM318.934 113.573C318.029 114.585 316.904 115.771 315.59 117.126C314.276 118.481 312.805 120.005 311.102 121.579C307.752 124.794 303.697 128.391 299.159 132.025C294.621 135.66 289.573 139.25 284.406 142.66C279.157 145.969 273.783 149.066 268.629 151.77C265.322 153.456 262.123 154.967 259.118 156.297C259.087 155.854 259.049 155.411 259.011 154.967C261.815 153.568 264.782 152.014 267.887 150.384C272.96 147.636 278.252 144.489 283.407 141.142C288.561 137.795 293.609 134.273 298.191 130.77C302.773 127.267 306.991 123.901 310.404 120.811C312.152 119.299 313.729 117.888 315.112 116.614C316.495 115.34 317.727 114.266 318.676 113.311L321.763 110.395L318.934 113.573ZM261.67 147.368C263.707 146.119 266.699 144.408 270.137 142.191L275.738 138.676L281.879 134.579C284.042 133.218 286.141 131.613 288.36 130.096C290.579 128.579 292.76 126.936 294.916 125.294C297.072 123.652 299.222 121.972 301.321 120.298C303.421 118.625 305.394 116.889 307.356 115.253C309.317 113.617 311.127 111.944 312.793 110.314C314.459 108.684 316.074 107.192 317.469 105.674C318.865 104.157 320.135 102.814 321.241 101.59C322.347 100.366 323.271 99.2362 324 98.2934C325.484 96.42 326.244 95.2773 326.244 95.2773C325.679 96.4025 325.049 97.4949 324.359 98.5494C323.73 99.5672 322.882 100.76 321.901 102.121C320.92 103.482 319.789 104.994 318.419 106.536C317.048 108.078 315.596 109.777 313.968 111.494C312.34 113.211 310.561 114.966 308.701 116.758C306.758 118.45 304.854 120.33 302.729 122.009C300.605 123.689 298.518 125.5 296.293 127.124C294.067 128.747 291.893 130.414 289.623 131.907C287.354 133.399 285.186 134.942 282.973 136.278C280.76 137.614 278.648 138.932 276.599 140.106L270.804 143.284C269.018 144.308 267.321 145.157 265.775 145.85L261.871 147.724L258.496 149.297L261.67 147.368ZM310.178 76.4318C309.355 78.0429 308.217 80.3658 306.645 83.0446C305.074 85.7234 303.238 88.8456 301.07 92.0615C298.901 95.2773 296.45 98.6305 293.929 101.921C291.409 105.212 288.63 108.297 286.022 111.182C283.413 114.067 280.804 116.596 278.554 118.737C276.304 120.879 274.324 122.553 272.953 123.733L270.753 125.544L272.689 123.452C273.947 122.166 275.7 120.255 277.806 117.994C279.912 115.734 282.263 112.999 284.815 110.114C287.367 107.229 289.95 104.019 292.471 100.747C294.991 97.4753 297.499 94.2532 299.743 91.1123C301.988 87.9714 304.081 85.049 305.753 82.4514C307.425 79.8537 308.896 77.7369 309.851 76.207L311.397 73.8217L310.178 76.4318ZM314.578 56.7309C314.578 56.7309 313.648 58.5292 312.026 61.6826C311.215 63.2625 310.178 65.1483 308.965 67.3026C307.752 69.4569 306.388 71.8922 304.778 74.4773C301.636 79.6914 297.745 85.6423 293.313 91.8429C288.882 98.0436 283.796 104.4 278.541 110.607C273.167 116.72 267.573 122.64 262.135 127.985C259.081 130.939 256.095 133.68 253.222 136.228L254.945 133.43L255.894 131.888C257.566 130.265 259.269 128.591 261.023 126.893C266.378 121.516 271.872 115.578 277.152 109.452C282.432 103.326 287.505 97.0195 292.031 90.9375C296.557 84.8555 300.649 79.0732 303.905 73.9528C305.583 71.4176 307.048 69.0697 308.374 66.9716C309.7 64.8735 310.838 63.0689 311.712 61.5265L314.578 56.7309ZM256.604 121.766C258.402 119.849 260.375 117.832 262.355 115.522L268.604 108.428C270.709 105.93 272.941 103.37 275.097 100.691C277.253 98.0123 279.447 95.2898 281.521 92.4798C283.595 89.6699 285.808 86.9598 287.775 84.1436C289.743 81.3274 291.748 78.5986 293.558 75.8698C297.235 70.456 300.586 65.3293 303.276 60.8334C305.966 56.3375 308.179 52.5596 309.637 49.8683C311.096 47.177 311.894 45.6096 311.894 45.6096C311.894 45.6096 311.265 47.2582 310.04 50.0619C308.814 52.8656 306.947 56.8557 304.382 61.4703C303.125 63.7932 301.711 66.266 300.209 68.8886C298.706 71.5113 297.066 74.2463 295.218 76.9688C293.37 79.6914 291.522 82.5888 289.516 85.3862C287.511 88.1837 285.424 91.0062 283.338 93.8723C281.251 96.7385 278.937 99.3549 276.75 102.052C274.563 104.75 272.249 107.248 270.1 109.746C267.95 112.243 265.656 114.479 263.575 116.671C261.494 118.862 259.401 120.811 257.509 122.653L255.479 124.607C255.403 124.114 255.334 123.614 255.259 123.127C255.718 122.709 256.145 122.247 256.604 121.766ZM23.2495 49.9058C24.7078 52.5971 26.9141 56.3812 29.6107 60.8709C32.3073 65.3606 35.6514 70.4934 39.3286 75.9073C41.1389 78.6361 43.1001 81.4086 45.1115 84.1811C47.123 86.9536 49.2602 89.7323 51.3973 92.5173C53.5345 95.3023 55.7094 98.0123 57.8214 100.729C59.9335 103.445 62.2215 105.949 64.3147 108.465L70.5628 115.559C72.5114 117.844 74.5166 119.861 76.3143 121.803C76.9429 122.472 77.5715 123.127 78.2001 123.77L77.9926 125.194C77.1629 124.407 76.308 123.577 75.4091 122.696C73.5234 120.854 71.4114 118.95 69.3433 116.714C67.2753 114.479 64.981 112.281 62.8187 109.789C60.6563 107.298 58.3432 104.756 56.1117 102.09C53.8802 99.4236 51.6425 96.7198 49.5242 93.9098C47.4059 91.0998 45.2875 88.2899 43.3452 85.4237C41.4029 82.5575 39.4292 79.8038 37.644 77.0063C35.8588 74.2088 34.2182 71.505 32.6531 68.9261C31.0879 66.3472 29.7239 63.8307 28.4793 61.5078C25.965 56.8932 24.1421 52.8781 22.822 50.0993C21.502 47.3206 20.9363 45.6471 20.9363 45.6471C20.9363 45.6471 21.7912 47.2144 23.2495 49.9058ZM60.0781 123.708C58.7077 122.521 56.7151 120.867 54.4774 118.712C52.2396 116.558 49.6373 114.017 47.0287 111.15C44.4201 108.284 41.7298 105.112 39.1212 101.89C36.5125 98.668 34.1554 95.2399 31.9428 92.0303C29.7302 88.8206 27.9198 85.6985 26.3672 83.0134C24.8146 80.3283 23.6581 78.0179 22.8346 76.4006L21.5775 73.8467L23.1426 76.232C24.0981 77.7619 25.5438 79.8974 27.2473 82.4764C28.9507 85.0553 31.0187 87.9777 33.2502 91.1373C35.4817 94.297 37.9583 97.5628 40.5229 100.772C43.0875 103.982 45.6521 107.198 48.179 110.139C50.7059 113.08 53.0568 115.759 55.194 118.019C57.3312 120.28 59.0346 122.191 60.3043 123.477L62.2781 125.513L60.0781 123.708ZM70.9022 127.954C65.465 122.609 59.8769 116.714 54.4963 110.576C49.2476 104.369 44.2127 97.9686 39.7246 91.8117C35.2365 85.6548 31.4022 79.6602 28.2656 74.4461C26.6501 71.861 25.2672 69.4506 24.0792 67.2713C22.8912 65.0921 21.8289 63.2312 21.018 61.6514L18.4597 56.6996L21.326 61.4766C22.1997 63.0189 23.3438 64.8423 24.6701 66.9217C25.9964 69.001 27.4547 71.3676 29.133 73.9029C32.389 79.0232 36.5503 84.7556 41.0069 90.8875C45.4635 97.0195 50.599 103.276 55.8854 109.402C61.1718 115.528 66.6656 121.466 72.0211 126.843C73.7246 128.516 75.384 130.146 77.0183 131.732C77.0183 131.851 76.9806 131.975 76.968 132.094C76.9052 132.55 76.8486 133.012 76.792 133.474C74.8644 131.722 72.9053 129.882 70.9148 127.954H70.9022ZM8.50296 98.5306C7.81274 97.4762 7.18315 96.3837 6.61722 95.2586C6.61722 95.2586 7.3778 96.4013 8.86125 98.2746C9.59041 99.2175 10.527 100.323 11.6207 101.572C12.7145 102.821 13.9842 104.194 15.3922 105.655C16.8002 107.117 18.3654 108.696 20.0689 110.295C21.7723 111.894 23.6392 113.505 25.5061 115.234C27.4673 116.87 29.4347 118.625 31.5405 120.28C33.6462 121.935 35.7331 123.683 37.9457 125.275C40.1583 126.868 42.2766 128.579 44.5018 130.077C46.727 131.576 48.8202 133.199 50.9825 134.561L57.1489 138.626L62.7495 142.141C66.2067 144.358 69.1799 146.056 71.2165 147.318L74.4223 149.31L71.0028 147.711L67.0993 145.838C65.5781 145.132 63.881 144.296 62.0707 143.271L56.2374 140.068C54.1882 138.894 52.0574 137.57 49.8636 136.24C47.6699 134.91 45.4635 133.405 43.2132 131.869C40.9629 130.333 38.7503 128.747 36.544 127.086C34.3377 125.425 32.213 123.677 30.1073 121.972C28.0016 120.267 26.0781 118.413 24.1358 116.72C22.25 114.928 20.4711 113.199 18.8683 111.456C17.2654 109.714 15.7254 108.085 14.4179 106.498C13.1105 104.912 11.935 103.42 10.9356 102.084C9.93613 100.747 9.14412 99.5485 8.50296 98.5306ZM68.941 159.857C67.3382 159.232 65.0313 158.383 62.3535 157.153C59.6758 155.923 56.5454 154.474 53.3019 152.719C50.0585 150.965 46.6893 148.935 43.3641 146.831C40.0389 144.726 36.9023 142.347 33.9731 140.118C31.0439 137.889 28.4604 135.572 26.2855 133.63C24.1106 131.688 22.382 129.884 21.1689 128.703L19.2831 126.749L21.3763 128.441C22.69 129.546 24.6261 131.039 26.9204 132.856C29.2147 134.673 31.9805 136.671 34.9034 138.85C37.8263 141.03 41.0698 143.222 44.3321 145.313C47.5944 147.405 50.8945 149.51 54.0562 151.345C57.218 153.181 60.2289 154.861 62.8061 156.21C65.3833 157.559 67.5456 158.745 69.0919 159.501L71.4868 160.749L68.941 159.857ZM64.4027 151.801C59.2546 149.097 53.874 146 48.6316 142.691C43.4647 139.256 38.436 135.628 33.8662 132.038C29.2964 128.447 25.2798 124.807 21.9232 121.591C20.2197 120.017 18.7237 118.5 17.4288 117.139C16.1339 115.778 14.9899 114.597 14.0848 113.586L11.2624 110.426L14.3425 113.342C15.2916 114.298 16.5111 115.397 17.9065 116.646C19.302 117.894 20.8672 119.331 22.6146 120.842C26.0467 123.926 30.2959 127.242 34.8342 130.802C39.3726 134.361 44.4578 137.808 49.6247 141.123C54.7917 144.439 60.0718 147.618 65.1444 150.365C68.4193 152.082 71.5434 153.725 74.4788 155.173C74.4788 155.61 74.4097 156.047 74.3783 156.478C71.2354 155.123 67.8787 153.543 64.4027 151.77V151.801ZM8.24524 144.439C6.50407 143.178 5.54234 142.372 5.54234 142.372L8.47782 144.04C10.3636 145.107 13.0413 146.537 16.2722 148.286C19.5031 150.034 23.3312 151.951 27.4233 153.999C31.5153 156.047 35.9217 158.164 40.3972 160.131C44.8727 162.098 49.3293 164.071 53.5974 165.82C55.7094 166.713 57.7774 167.493 59.726 168.318C61.6746 169.142 63.5415 169.804 65.2701 170.416L69.9719 172.158L73.6303 173.407L76.7732 174.55L73.492 173.838C71.3988 173.351 68.3753 172.714 64.8427 171.633C63.0638 171.128 61.1466 170.559 59.1415 169.879C57.1363 169.198 54.9865 168.58 52.8557 167.724C50.7248 166.869 48.4556 166.132 46.2115 165.152C43.9675 164.171 41.6983 163.278 39.4606 162.248C34.9725 160.219 30.5662 158.008 26.5118 155.804C22.4575 153.6 18.7426 151.377 15.5996 149.428C12.4567 147.48 10.0053 145.669 8.24524 144.439ZM18.114 183.979C16.4985 183.254 15.5996 182.773 15.5996 182.773L18.2585 183.585C19.9369 184.11 22.3883 184.697 25.2861 185.496C28.1838 186.295 31.6159 187.057 35.2742 187.912C38.9326 188.768 42.8172 189.63 46.7836 190.41C50.7499 191.191 54.6471 191.978 58.3369 192.696C62.0267 193.414 65.4838 194.082 68.4633 194.569L74.02 195.581L74.0766 196.242C72.4925 196.174 70.5188 196.105 68.2873 195.855C65.2701 195.574 61.7501 195.231 58.0037 194.706C54.2574 194.182 50.2722 193.457 46.3058 192.677C42.3395 191.896 38.4171 190.885 34.7651 189.829C31.113 188.774 27.7627 187.663 24.8964 186.676C22.03 185.689 19.7231 184.684 18.114 183.979ZM66.5713 205.528C65.5467 205.528 64.057 205.59 62.3095 205.478C60.5621 205.365 58.494 205.247 56.3066 204.928C54.1191 204.61 51.8059 204.192 49.499 203.711C47.2173 203.136 44.9544 202.499 42.8486 201.837C40.7429 201.175 38.8383 200.382 37.1914 199.708C35.5445 199.034 34.2559 198.347 33.3382 197.897L31.9428 197.135L33.4954 197.572C34.4697 197.885 35.8902 198.247 37.5623 198.746C39.2343 199.246 41.2143 199.733 43.3012 200.333C45.3881 200.932 47.651 201.456 49.9139 201.944C52.1768 202.431 54.4271 202.986 56.5706 203.38C58.714 203.773 60.6941 204.21 62.4227 204.466C64.1513 204.722 65.5656 205.035 66.5964 205.178L68.1868 205.465L66.5713 205.528ZM71.1662 201.613C68.2433 201.432 65.1381 201.163 62.0329 200.813C58.9403 200.364 55.8666 199.839 53.0002 199.271C50.1339 198.703 47.4813 197.947 45.231 197.323C42.9806 196.698 41.1389 196.036 39.8503 195.606L37.8388 194.869L39.9446 195.268C41.2709 195.556 43.1881 195.893 45.4698 196.33C47.7516 196.767 50.4293 197.185 53.2768 197.697C56.1243 198.209 59.1918 198.628 62.2529 198.99C65.3141 199.352 68.3816 199.764 71.2668 200.02C72.3794 200.108 73.448 200.208 74.4914 200.308C74.548 200.776 74.5983 201.238 74.6548 201.706C73.5297 201.694 72.3605 201.694 71.1536 201.613H71.1662ZM50.6745 216.412C47.7453 216.256 45.0172 216.043 42.6789 215.787C40.3406 215.531 38.4109 215.163 37.0594 214.976C35.708 214.788 34.9411 214.545 34.9411 214.545L59.8392 214.314L68.9725 214.282L76.9492 214.32H76.9995L77.3389 215.606L77.012 215.644C71.3143 216.257 65.589 216.584 59.8581 216.624C56.7277 216.605 53.6037 216.562 50.6745 216.412ZM56.7717 220.945L58.494 220.777L63.0198 220.377C64.9056 220.265 67.0679 219.99 69.3999 219.821C71.7319 219.653 74.2148 219.384 76.6915 219.091L78.3509 218.928C78.5458 219.503 78.7469 220.065 78.9795 220.627L76.9115 220.895C74.3971 221.107 71.8828 221.276 69.5319 221.395C67.181 221.513 64.9684 221.432 63.0827 221.395C61.1969 221.357 59.6192 221.195 58.5255 221.12L56.7717 220.945ZM80.3435 225.029C78.5018 225.266 76.5217 225.472 74.5417 225.616C72.5554 225.666 70.5691 225.66 68.7085 225.616C66.8479 225.572 65.1193 225.31 63.6798 225.123C62.2404 224.935 60.9895 224.642 60.1409 224.498L58.8209 224.173H60.1849H63.749C65.2198 224.211 66.9359 224.105 68.7776 224.111C70.6194 224.117 72.5491 224.017 74.4977 223.892C76.4463 223.768 78.3069 223.718 80.0984 223.562C80.2744 223.967 80.4441 224.38 80.6264 224.773L80.7647 225.054L80.3435 225.029ZM70.4874 238.567C68.0662 238.965 65.6263 239.24 63.177 239.391C61.0335 239.535 59.2295 239.485 57.9786 239.478C56.7277 239.472 56.0111 239.354 56.0111 239.354L57.9472 239.035C59.2043 238.841 60.9266 238.479 62.9758 238.08C67.1496 237.262 72.6685 236.044 78.1246 234.627C80.4692 234.046 82.7824 233.378 85.0076 232.753C85.215 233.103 85.4287 233.453 85.6362 233.79C85.8436 234.127 85.9882 234.314 86.1705 234.57C83.8007 235.401 81.2612 236.163 78.6903 236.85C75.9749 237.536 73.1777 238.173 70.5125 238.567H70.4874ZM87.3396 239.603C85.8499 239.997 84.4167 240.228 83.1973 240.44C81.9778 240.652 80.947 240.734 80.2304 240.821L79.0926 240.896L80.1487 240.478C80.8275 240.246 81.783 239.853 82.9458 239.453C84.1087 239.054 85.4602 238.536 86.8996 238.092L88.3768 237.605L89.0054 238.429C89.1562 238.629 89.3196 238.823 89.4768 239.023L87.3396 239.603ZM93.858 250.625C91.9723 251.374 90.0865 252.048 88.3076 252.573C86.6676 253.056 85.0039 253.456 83.323 253.772C81.6832 254.113 80.0183 254.322 78.3446 254.396L82.9521 252.523C85.7053 251.43 89.3637 250.025 92.9654 248.514C93.8769 248.146 94.782 247.79 95.6558 247.39C95.9323 247.265 96.2026 247.159 96.4729 247.04C96.6238 247.196 96.7746 247.359 96.9255 247.509C97.3152 247.896 97.6986 248.289 98.0884 248.67C96.7683 249.357 95.3352 250.006 93.8831 250.625H93.858ZM238.972 254.415C238.344 254.328 237.432 254.265 236.37 254.028C235.157 253.789 233.957 253.489 232.774 253.129L231.134 252.554L232.196 251.611C232.303 251.518 232.404 251.411 232.517 251.318L233.315 251.649C234.572 252.117 235.672 252.673 236.672 253.047L239.06 254.072L239.965 254.49L238.972 254.415ZM239.871 248.495C243.473 250.006 247.131 251.411 249.884 252.504L254.492 254.377C252.818 254.303 251.153 254.094 249.514 253.753C247.832 253.438 246.169 253.038 244.529 252.554C242.725 252.03 240.839 251.355 238.979 250.606C237.671 250.05 236.383 249.469 235.157 248.845C235.622 248.402 236.081 247.958 236.533 247.509L236.804 247.228L237.156 247.378C238.08 247.771 238.985 248.127 239.896 248.527L239.871 248.495ZM263.889 214.264L273.023 214.295L297.914 214.526C297.914 214.526 297.154 214.72 295.802 214.957C294.451 215.194 292.521 215.519 290.183 215.769C287.844 216.018 285.116 216.256 282.187 216.393C279.258 216.53 276.134 216.587 273.004 216.587C266.875 216.53 260.759 216.162 256.133 215.637C256.258 215.188 256.371 214.738 256.491 214.276L263.889 214.264ZM258.861 201.725C258.917 201.25 258.974 200.77 259.024 200.289C259.917 200.201 260.822 200.12 261.765 200.045C264.65 199.789 267.717 199.421 270.778 199.015C273.84 198.609 276.901 198.209 279.755 197.722C282.608 197.235 285.292 196.829 287.562 196.355C289.831 195.88 291.761 195.581 293.087 195.293L295.193 194.894L293.181 195.63C291.893 196.061 290.038 196.736 287.8 197.348C285.563 197.96 282.916 198.69 280.05 199.271C277.184 199.852 274.104 200.364 271.011 200.813C267.912 201.163 264.801 201.438 261.878 201.613C260.847 201.694 259.835 201.694 258.861 201.725ZM299.681 197.897C298.763 198.347 297.462 199.046 295.834 199.708C294.206 200.37 292.301 201.169 290.177 201.837C288.052 202.506 285.776 203.136 283.526 203.711C281.219 204.192 278.9 204.604 276.719 204.928C274.537 205.253 272.476 205.365 270.716 205.478C268.956 205.59 267.478 205.534 266.454 205.528L264.838 205.465L266.429 205.178C267.441 205.035 268.88 204.741 270.602 204.466C272.325 204.192 274.317 203.754 276.461 203.38C278.604 203.005 280.861 202.493 283.111 201.944C285.362 201.394 287.631 200.907 289.724 200.333C291.817 199.758 293.803 199.271 295.463 198.746C297.122 198.222 298.555 197.885 299.53 197.572L301.082 197.135L299.681 197.897ZM264.424 194.544C267.403 194.063 270.848 193.345 274.55 192.671C278.252 191.996 282.187 191.216 286.103 190.385C290.019 189.555 293.948 188.718 297.613 187.887C301.277 187.057 304.697 186.251 307.601 185.471C310.505 184.69 312.95 184.085 314.628 183.56L317.319 182.773C317.319 182.773 316.432 183.254 314.804 183.979C313.176 184.703 310.869 185.702 308.009 186.701C305.149 187.7 301.793 188.843 298.134 189.854C294.476 190.866 290.554 191.809 286.6 192.652C282.646 193.495 278.655 194.151 274.902 194.681C271.149 195.212 267.629 195.549 264.618 195.83C262.664 196.049 260.916 196.124 259.445 196.186C259.445 195.936 259.489 195.693 259.508 195.437L264.424 194.544ZM254.894 196.311V196.374L254.662 197.622L254.102 200.67L253.914 201.706H253.832C253.757 202.243 253.675 202.78 253.593 203.317L252.436 209.655C252.38 209.899 252.336 210.142 252.279 210.386L252.235 210.629L251.55 214.376L251.431 215.001L250.802 218.454L250.507 220.065L249.941 223.187L249.796 223.986L249.231 224.361L246.716 226.009L240.041 230.38C240.041 230.38 239.764 229.912 239.312 229.169C229.826 243.587 214.929 254.265 201.088 261.733C200.755 267.16 199.284 271.918 192.64 273.654C188.786 274.659 184.839 272.836 181.074 271.531C180.791 271.431 180.508 271.35 180.225 271.256C172.167 274.341 166.736 275.771 166.736 275.771C161.591 274.318 156.528 272.594 151.568 270.607C142.466 271.231 133.848 269.358 131.705 261.359C120.629 255.314 108.944 247.215 99.949 236.793L99.6347 236.437C97.8179 234.319 96.1223 232.101 94.5557 229.793L93.022 230.418L86.8493 218.885C86.4785 215.569 86.0887 212.253 85.7242 208.931C85.5482 207.314 85.3722 205.696 85.215 204.073C85.0264 202.087 84.5236 195.887 83.4676 191.334C82.8767 188.787 82.1161 186.757 81.1418 186.27C80.004 185.704 78.8278 185.218 77.6217 184.815C76.2595 184.36 74.8641 184.01 73.448 183.766C73.448 183.879 73.448 183.991 73.448 184.11C73.448 184.353 73.448 184.59 73.448 184.84C73.448 185.09 73.448 185.515 73.448 185.852L72.8885 185.746C70.7765 185.34 68.3125 184.871 65.7101 184.185C63.1078 183.498 60.3672 182.686 57.6329 181.818C54.8985 180.95 52.2522 179.838 49.7693 178.821C47.2864 177.803 45.0361 176.679 43.1189 175.698C41.2018 174.718 39.6554 173.825 38.5617 173.201L36.9714 172.214L38.8069 172.913C39.9635 173.394 41.6418 173.994 43.6281 174.787C45.6144 175.58 47.959 176.392 50.4419 177.353C52.9248 178.315 55.6088 179.227 58.3055 180.095C61.0021 180.962 63.6798 181.905 66.2319 182.667L67.4136 183.023C67.3742 182.273 67.5058 181.523 67.7985 180.83C68.0913 180.137 68.5377 179.518 69.1045 179.02C67.3822 178.602 65.597 178.134 63.7741 177.622C59.3112 176.317 54.6031 174.774 49.9453 173.076C45.3378 171.259 40.7869 169.298 36.5943 167.319C32.4016 165.339 28.6113 163.222 25.4118 161.361C22.2123 159.501 19.6226 157.802 17.8185 156.616L15.0213 154.699L18.0071 156.316C19.8929 157.371 22.6209 158.814 25.9021 160.462C29.1833 162.111 33.0931 163.947 37.2606 165.889C41.428 167.831 45.9978 169.635 50.599 171.384C55.2003 173.132 59.8203 174.749 64.2204 176.111C66.3764 176.735 68.4633 177.391 70.4496 177.984C71.4141 177.407 72.4181 176.898 73.4543 176.46L74.7114 175.873C75.4999 175.47 76.2583 175.011 76.9806 174.5C77.1629 174.375 77.3452 174.25 77.5212 174.119C77.5243 174.169 77.5243 174.219 77.5212 174.269L77.848 174.131L77.628 174.037C78.8597 173.096 80.0214 172.067 81.1041 170.959L81.475 170.584C82.1538 169.891 82.8138 169.179 83.4676 168.468C85.3722 124.52 97.4409 75.1143 97.4409 75.1143H236.075C236.075 75.1143 247.452 121.728 249.903 164.671L255.322 169.079L256.239 169.829L256.591 170.116L260.005 172.895L260.237 173.082L262.934 172.152L267.661 170.41C269.389 169.785 271.256 169.111 273.205 168.311C275.153 167.512 277.221 166.738 279.333 165.814C283.564 164.065 288.071 162.179 292.534 160.125C296.997 158.071 301.39 156.004 305.508 153.993C309.625 151.982 313.44 150.047 316.659 148.279C319.877 146.512 322.592 145.101 324.453 144.033L327.388 142.366C327.388 142.366 326.439 143.147 324.698 144.408C322.957 145.669 320.462 147.461 317.319 149.403C314.176 151.345 310.511 153.6 306.45 155.791C302.39 157.983 297.99 160.206 293.502 162.236C291.264 163.272 288.982 164.196 286.751 165.139C284.519 166.082 282.263 166.881 280.107 167.712C277.951 168.542 275.813 169.204 273.821 169.866C271.828 170.528 269.892 171.115 268.12 171.621C265.297 172.483 262.814 173.057 260.859 173.494L261.406 173.938L264.549 175.542C265.144 175.931 265.694 176.383 266.19 176.891L268.918 176.067C273.318 174.706 277.963 173.095 282.546 171.34C287.128 169.585 291.679 167.743 295.878 165.845C300.077 163.947 303.974 162.142 307.236 160.419C310.499 158.695 313.258 157.328 315.137 156.272L318.117 154.655L315.32 156.572C313.516 157.758 310.951 159.482 307.733 161.318C304.514 163.154 300.73 165.258 296.55 167.275C292.37 169.292 287.807 171.215 283.193 173.032C278.541 174.731 273.833 176.273 269.364 177.578C268.61 177.79 267.868 177.99 267.133 178.202C267.988 179.826 267.61 181.487 266.102 182.88L266.9 182.642C269.452 181.88 272.149 181.006 274.827 180.07C277.504 179.133 280.201 178.259 282.69 177.328C285.179 176.398 287.536 175.574 289.51 174.762C291.484 173.95 293.175 173.376 294.325 172.889L296.167 172.189L294.482 173.207C293.389 173.831 291.855 174.749 289.931 175.705C288.008 176.66 285.758 177.772 283.275 178.827C280.792 179.882 278.114 180.863 275.411 181.824C272.708 182.786 269.93 183.498 267.334 184.191C264.738 184.884 262.267 185.346 260.155 185.752H260.099V185.652C259.015 185.9 257.917 186.081 256.811 186.195V186.283L256.679 187.026L256.617 187.363L255.869 191.484L255.787 191.921L254.894 196.311Z" fill="#6A5938"/>
<path d="M138.978 185.664L145.207 183.242C144.822 182.914 144.478 182.54 144.182 182.13L141.624 178.59L133.937 177.797L140.48 181.837L129.373 185.733L138.978 185.664Z" fill="#6A5938"/>
<path d="M155.515 179.938C155.32 180.369 154.983 180.721 154.56 180.937L153.969 181.187L150.386 182.679L156.672 183.604L170.055 182.692L155.924 181.599L165.403 178.477L155.515 179.938Z" fill="#6A5938"/>
<path d="M98.4403 222.219C95.09 217.192 95.046 211.348 94.0025 205.746C93.5499 203.317 94.2037 201.631 96.2717 200.126C101.407 196.38 104.072 191.016 105.116 184.865C105.493 182.636 105.512 180.344 105.694 178.078C106.331 178.993 106.746 180.042 106.907 181.144C107.536 185.333 106.624 189.261 105.097 193.176C104.028 195.949 102.426 199.421 103.249 201.831C105.625 208.769 109.057 215.35 112.206 222.013C113.583 224.935 115.135 225.241 118.228 223.518C118.106 222.982 117.893 222.472 117.599 222.007C113.155 217.149 111.754 210.91 109.686 204.972C109.057 203.099 109.352 201.669 110.421 199.939C112.921 196.099 115.083 192.052 116.883 187.844C117.989 185.071 117.895 181.83 118.41 178.34L112.521 179.445L112.401 179.064C118.75 175.243 125.105 171.427 131.208 167.762L129.065 163.328C133.339 166.232 136.199 166.332 140.543 163.372C142.202 162.236 143.742 160.924 145.37 159.732C146.2 159.08 147.093 158.511 148.035 158.033C149.827 157.203 151.128 157.683 151.279 159.782C151.675 165.22 149.135 169.897 146.81 174.475C145.917 176.235 146.338 176.847 147.382 177.734C148.639 178.802 149.846 178.821 150.631 177.16C151.073 176.313 151.409 175.415 151.631 174.487C152.712 168.955 153.837 163.428 154.736 157.865C155.258 154.667 155.013 151.558 151.323 149.703C152.254 148.531 153.255 147.415 154.321 146.362C155.647 145.195 156.798 145.594 157.464 147.193C159.652 152.245 158.093 157.415 157.923 162.535C157.923 163.303 157.489 164.515 157.81 164.74C158.735 165.382 159.825 165.75 160.953 165.801C161.361 165.801 162.021 164.552 162.166 163.797C162.358 162.665 162.377 161.512 162.222 160.375C161.594 154.861 160.965 149.353 160.192 143.858C159.967 142.642 159.513 141.479 158.853 140.43C157.162 137.564 155.22 137.308 152.8 139.706C150.38 142.104 147.91 144.545 145.578 147.074C145.081 147.618 145.087 148.61 144.855 149.397L142.875 155.991L142.014 155.76C142.028 155.394 142.068 155.029 142.133 154.667C143.554 148.816 143.22 143.328 139.16 138.432C135.791 134.355 136.916 129.184 136.08 124.495C136.08 124.37 136.419 124.182 136.752 123.87C137.934 128.066 141.781 128.934 144.836 130.908L141.781 130.745C141.215 134.717 142.623 137.171 146.043 138.445C146.307 136.734 146.08 134.636 146.998 133.349C147.828 132.181 149.915 131.888 151.826 131.045L149.506 129.515C150.481 129.328 151.141 129.746 151.832 129.796C152.831 129.871 154.453 130.021 154.742 129.528C155.01 129.019 155.164 128.459 155.195 127.886C155.225 127.312 155.131 126.739 154.918 126.206C152.75 122.022 150.317 117.976 147.884 113.717L145.534 114.023C148.834 111.138 149.695 107.672 150.21 103.407L146.376 105.637C146.344 104.463 146.326 103.57 146.3 102.402L143.566 103.863C141.121 101.366 138.977 98.7554 136.407 96.6448C128.235 89.9446 116.543 89.2327 108.435 94.7715C104.462 97.494 101.853 101.066 101.615 106.33C110.346 95.7956 122.05 92.6422 129.102 98.2121C125.809 98.2871 121.899 97.7688 118.316 98.6305C114.725 99.5967 111.351 101.23 108.372 103.445C106.81 104.518 105.568 105.988 104.775 107.702C103.982 109.416 103.668 111.31 103.865 113.186C111.351 99.2986 131.347 100.654 135.74 109.602C126.161 111.919 121.434 118.918 118.435 127.504C117.812 129.312 117.306 131.158 116.921 133.031C114.966 142.372 109.887 149.697 102.444 155.485C99.6409 157.665 96.674 159.669 94.0465 162.036C91.5699 164.271 89.4579 166.9 87.1321 169.323C85.5795 170.959 84.1527 172.807 82.3298 174.062C79.7023 175.873 76.7668 177.235 73.9634 178.789L73.8125 179.657C75.5034 180.282 77.1565 181.4 78.8789 181.531C82.5812 181.812 83.4864 178.721 84.5361 175.848C84.7687 180.794 87.0504 184.647 89.8727 188.212C91.4945 190.273 91.6076 192.402 90.8156 194.675C90.3442 196.024 89.395 197.229 89.0682 198.59C88.6533 200.351 88.2259 202.287 88.5464 204.01C89.2693 207.851 90.715 211.56 91.3688 215.406C91.8339 218.16 92.0791 220.858 93.3677 223.443C94.562 225.841 96.4037 224.935 98.0632 224.648C98.3586 224.617 98.8049 222.756 98.4403 222.219Z" fill="#6A5938"/>
<path d="M196.8 177.54L194.745 180.706C194.492 181.087 194.183 181.429 193.827 181.718L202.15 183.398L213.86 182.873L199.164 180.232L205.921 176.391L196.8 177.54Z" fill="#6A5938"/>
<path d="M186.511 180.232L181.639 175.811L180.835 175.08C180.283 174.498 179.949 173.747 179.885 172.951L164.862 164.946L178.245 175.336L154.987 168.948L175.888 178.084L186.511 180.232Z" fill="#6A5938"/>
<path d="M259.395 182.012C261.124 181.88 262.777 180.763 264.461 180.138L264.31 179.27C261.507 177.715 258.571 176.354 255.95 174.543C254.121 173.294 252.694 171.421 251.142 169.804C248.835 167.381 246.742 164.752 244.227 162.517C241.594 160.15 238.633 158.146 235.829 155.966C228.368 150.165 223.302 142.853 221.334 133.487C220.945 131.615 220.437 129.769 219.813 127.96C216.815 119.374 212.088 112.349 202.508 110.058C206.908 101.103 226.897 99.7546 234.384 113.642C234.581 111.766 234.267 109.872 233.474 108.158C232.681 106.444 231.438 104.974 229.877 103.901C226.898 101.686 223.524 100.053 219.933 99.0864C216.356 98.2247 212.44 98.743 209.146 98.668C216.199 93.0918 227.903 96.2452 236.634 106.786C236.395 101.528 233.787 97.9499 229.814 95.2336C221.712 89.6886 210.02 90.4005 201.842 97.1069C199.271 99.2113 197.128 101.834 194.683 104.325L191.948 102.864C191.948 104.032 191.904 104.925 191.879 106.099L188.038 103.87C188.554 108.11 189.421 111.575 192.715 114.485L190.364 114.179C187.932 118.45 185.499 122.497 183.33 126.668C183.119 127.202 183.026 127.775 183.056 128.348C183.087 128.921 183.24 129.481 183.506 129.99C183.796 130.483 185.392 130.333 186.423 130.258C187.108 130.208 187.768 129.784 188.749 129.977L186.423 131.501C188.309 132.35 190.421 132.637 191.25 133.811C192.168 135.098 191.942 137.196 192.206 138.907C195.625 137.658 197.04 135.16 196.468 131.207L193.419 131.37C196.493 129.39 200.333 128.529 201.503 124.332C201.829 124.62 202.194 124.813 202.169 124.957C201.333 129.646 202.458 134.817 199.089 138.894C195.035 143.802 194.689 149.285 196.116 155.13C196.181 155.491 196.221 155.856 196.235 156.222L195.374 156.453L193.419 149.866C193.187 149.079 193.193 148.08 192.696 147.543C190.364 145.045 187.932 142.578 185.474 140.174C183.016 137.77 181.111 138.033 179.427 140.899C178.763 141.946 178.306 143.109 178.082 144.327C177.321 149.822 176.68 155.329 176.051 160.837C175.9 161.976 175.919 163.131 176.108 164.265C176.253 165.021 176.913 166.276 177.321 166.27C178.448 166.217 179.538 165.849 180.464 165.208C180.785 164.983 180.376 163.766 180.351 163.004C180.175 157.877 178.622 152.713 180.81 147.661C181.501 146.063 182.651 145.663 183.953 146.831C185.02 147.882 186.022 148.998 186.951 150.172C183.261 152.045 183.016 155.136 183.538 158.327C184.443 163.89 185.562 169.423 186.643 174.955C186.867 175.881 187.203 176.776 187.642 177.622C188.428 179.289 189.641 179.264 190.898 178.203C191.936 177.316 192.357 176.698 191.464 174.943C189.145 170.366 186.599 165.689 186.995 160.25C187.146 158.152 188.453 157.671 190.238 158.502C191.182 158.977 192.075 159.546 192.904 160.2C194.532 161.386 196.047 162.698 197.737 163.834C202.075 166.794 204.935 166.7 209.209 163.797L207.072 168.224L225.873 179.533L225.753 179.913L219.889 178.796C220.398 182.28 220.303 185.527 221.41 188.3C223.211 192.508 225.373 196.554 227.872 200.395C228.94 202.125 229.261 203.555 228.607 205.428C226.539 211.366 225.137 217.604 220.699 222.463C220.403 222.926 220.19 223.438 220.071 223.974C223.17 225.697 224.716 225.391 226.099 222.469C229.242 215.806 232.674 209.218 235.05 202.287C235.88 199.87 234.271 196.405 233.202 193.632C231.681 189.705 230.757 185.789 231.392 181.599C231.551 180.498 231.967 179.448 232.605 178.533C232.787 180.794 232.806 183.092 233.183 185.321C234.233 191.472 236.892 196.804 242.034 200.582C244.095 202.1 244.749 203.786 244.296 206.202C243.253 211.822 243.209 217.654 239.859 222.681C239.494 223.218 239.94 225.079 240.223 225.129C241.883 225.416 243.724 226.322 244.925 223.917C246.182 221.339 246.452 218.641 246.918 215.881C247.546 212.041 249.017 208.332 249.74 204.491C250.06 202.768 249.633 200.832 249.218 199.071C248.891 197.71 247.961 196.505 247.471 195.156C246.679 192.883 246.792 190.754 248.414 188.693C251.211 185.128 253.518 181.275 253.75 176.323C254.787 179.214 255.718 182.299 259.395 182.012Z" fill="#6A5938"/>
<path d="M96.165 23.3547C97.3982 24.5187 98.8597 25.4179 100.458 25.996C102.149 26.6094 103.938 26.9161 105.738 26.9015C107.119 26.9272 108.495 26.7397 109.818 26.3457C110.938 25.9889 111.997 25.4669 112.961 24.7971C113.831 24.2018 114.607 23.4798 115.261 22.6553C115.95 21.7741 116.544 20.824 117.034 19.8203L115.481 18.8899C114.593 20.5101 113.362 21.9202 111.873 23.0237C110.551 23.9301 108.979 24.4058 107.373 24.385C106.292 24.4006 105.221 24.1877 104.23 23.7605C103.231 23.3145 102.365 22.6197 101.715 21.7436C100.985 20.6909 100.448 19.5174 100.131 18.278C99.6887 16.582 99.4773 14.8346 99.5027 13.0827C99.5027 9.49841 100.094 6.71134 101.275 4.72147C101.771 3.79551 102.518 3.02582 103.431 2.49944C104.344 1.97306 105.387 1.71101 106.442 1.74291C107.325 1.7212 108.202 1.88904 109.014 2.23498C109.825 2.58091 110.552 3.09679 111.144 3.74735C112.401 5.08365 113.484 7.1651 114.394 9.99172H115.984L115.821 0.681369H114.249L113.13 1.67422C112.173 1.18899 111.168 0.801917 110.132 0.519016C108.867 0.161722 107.556 -0.0128282 106.241 0.000733545C104.348 -0.0135459 102.47 0.32536 100.703 0.999832C99.0578 1.62901 97.5601 2.5876 96.3032 3.81604C95.0438 5.06363 94.0498 6.55012 93.3804 8.18709C92.677 9.93401 92.3247 11.8008 92.3432 13.6821C92.3221 15.5571 92.6723 17.4178 93.3741 19.1584C93.9908 20.7398 94.9426 22.1709 96.165 23.3547Z" fill="#6A5938"/>
<path d="M132.515 24.7971C132.065 24.765 131.618 24.7024 131.177 24.6097C130.769 24.5462 130.369 24.4416 129.982 24.2975C129.616 24.1559 129.297 23.9132 129.065 23.5982C128.863 23.0773 128.782 22.5183 128.826 21.9621L140.366 7.73123V22.624C140.362 23.0128 140.256 23.3937 140.058 23.7293C139.843 24.0638 139.52 24.3151 139.141 24.4411C138.754 24.5688 138.353 24.6444 137.946 24.6659C137.368 24.7159 136.928 24.7596 136.626 24.7783V26.227H150.392V24.7971C149.939 24.7632 149.488 24.7048 149.041 24.6222C148.612 24.555 148.191 24.4463 147.784 24.2975C147.4 24.1571 147.076 23.8905 146.866 23.542C146.698 23.2003 146.616 22.8231 146.627 22.4429V4.37176C146.624 3.99441 146.706 3.62112 146.866 3.279C146.958 3.09874 147.087 2.93987 147.245 2.81287C147.403 2.68586 147.587 2.5936 147.784 2.54216C148.212 2.41425 148.649 2.31413 149.091 2.24243C149.569 2.1675 150.003 2.11754 150.392 2.09257V0.700073H136.702V2.10506C137.029 2.14877 137.444 2.22994 137.959 2.3361C138.393 2.42298 138.815 2.56135 139.216 2.74822C139.571 2.89154 139.883 3.12389 140.121 3.42262C140.337 3.82927 140.43 4.28858 140.392 4.74642L128.851 18.9773V4.37176C128.849 3.99789 128.926 3.62781 129.077 3.28524C129.17 3.10548 129.301 2.94741 129.46 2.82148C129.619 2.69554 129.804 2.6046 130.001 2.55465C130.394 2.44327 130.793 2.35157 131.195 2.2799C131.632 2.19807 132.073 2.1397 132.515 2.10506V0.700073H118.75V2.10506C119.172 2.15709 119.592 2.23213 120.007 2.32985C120.478 2.42456 120.939 2.56468 121.383 2.74822C121.768 2.89257 122.095 3.1579 122.314 3.50379C122.474 3.83438 122.552 4.19855 122.54 4.56533V22.6053C122.547 22.9945 122.461 23.3798 122.288 23.7293C122.089 24.0721 121.765 24.3265 121.383 24.4411C120.973 24.5638 120.552 24.6454 120.126 24.6847C119.542 24.7471 119.095 24.7908 118.794 24.7971V26.227H132.515V24.7971Z" fill="#6A5938"/>
<path d="M166.824 24.7971C166.361 24.7504 165.902 24.6796 165.447 24.5848C165.048 24.5141 164.655 24.4117 164.272 24.2788C163.871 24.1482 163.531 23.8775 163.316 23.517C163.146 23.167 163.062 22.7817 163.071 22.393V15.2245H165.202C166.779 15.24 168.353 15.0893 169.897 14.7749C171.21 14.5042 172.467 14.0121 173.612 13.3199C174.633 12.7053 175.482 11.8466 176.083 10.8222C176.704 9.68547 177.012 8.40593 176.975 7.11304C177.034 6.16674 176.837 5.22204 176.405 4.3767C175.973 3.53135 175.321 2.81607 174.517 2.30488C172.875 1.23501 170.398 0.700073 167.088 0.700073H152.913V2.10506C153.19 2.10506 153.611 2.21121 154.17 2.32985C154.631 2.41355 155.081 2.54326 155.515 2.717C155.914 2.84608 156.25 3.11757 156.458 3.47882C156.609 3.82093 156.682 4.19194 156.672 4.56533V22.5553C156.691 22.9502 156.616 23.344 156.452 23.7043C156.226 24.0338 155.897 24.2797 155.515 24.4037C155.125 24.5358 154.72 24.6176 154.309 24.6472L152.913 24.7971V26.227H166.824V24.7971ZM163.096 2.31736H164.573C166.564 2.31736 167.947 2.78153 168.722 3.70986C169.497 4.63819 169.887 6.0619 169.891 7.981C169.891 9.85847 169.376 11.251 168.345 12.1585C167.314 13.066 165.809 13.5177 163.832 13.5135H163.071L163.096 2.31736Z" fill="#6A5938"/>
<path d="M192.765 24.7971C192.309 24.7618 191.855 24.6971 191.408 24.6035C191.007 24.5371 190.614 24.4346 190.232 24.2975C189.854 24.1552 189.537 23.8885 189.333 23.542C189.158 23.202 189.07 22.8247 189.076 22.4429V13.8569H200.038V22.6428C200.052 23.0334 199.964 23.4209 199.78 23.7668C199.565 24.1013 199.241 24.3525 198.863 24.4786C198.477 24.6066 198.075 24.6781 197.668 24.6909L196.348 24.7971V26.227H210.221V24.7971C209.77 24.7635 209.321 24.7052 208.876 24.6222C208.447 24.5559 208.026 24.4471 207.619 24.2975C207.232 24.1565 206.904 23.8904 206.688 23.542C206.52 23.2003 206.438 22.8231 206.45 22.4429V4.37176C206.448 3.99861 206.53 3.62979 206.688 3.29148C206.783 3.11173 206.913 2.9534 207.072 2.82655C207.231 2.6997 207.415 2.60711 207.612 2.55465C208.039 2.42601 208.474 2.32588 208.914 2.25492C209.391 2.17999 209.831 2.13003 210.215 2.10506V0.700073H196.348V2.10506C196.772 2.15802 197.192 2.23938 197.605 2.34859C198.036 2.44264 198.457 2.57643 198.863 2.74822C199.237 2.9012 199.555 3.16499 199.774 3.50379C199.942 3.83226 200.024 4.19722 200.013 4.56533V12.0024H189.088V4.37176C189.087 3.99789 189.164 3.62781 189.314 3.28524C189.406 3.10175 189.537 2.94024 189.697 2.81192C189.858 2.6836 190.045 2.59155 190.245 2.54216C190.638 2.42935 191.036 2.33763 191.439 2.26741C191.882 2.18409 192.329 2.12572 192.778 2.09257V0.700073H178.886V2.10506C179.309 2.15709 179.729 2.23213 180.143 2.32985C180.615 2.42456 181.076 2.56468 181.52 2.74822C181.905 2.89257 182.231 3.1579 182.45 3.50379C182.611 3.83438 182.688 4.19855 182.677 4.56533V22.6053C182.687 22.9948 182.601 23.3809 182.425 23.7293C182.225 24.0721 181.902 24.3265 181.52 24.4411C181.11 24.5638 180.689 24.6454 180.263 24.6847C179.678 24.7471 179.232 24.7908 178.93 24.7971V26.227H192.809L192.765 24.7971Z" fill="#6A5938"/>
<path d="M220.982 24.7972C219.985 24.7558 219.001 24.5599 218.066 24.2164C217.481 23.9479 217.192 23.592 217.192 23.2361C217.2 23.0268 217.221 22.8183 217.255 22.6116C217.347 22.1163 217.482 21.6296 217.657 21.1567C217.839 20.6447 218.047 20.0577 218.286 19.3958C218.524 18.7339 218.751 18.1469 218.958 17.6723H227.821L230.009 22.9551C230.077 23.1119 230.13 23.2751 230.166 23.4421C230.171 23.5503 230.171 23.6587 230.166 23.7668C230.166 24.0416 229.726 24.2726 228.846 24.4537C228.09 24.6238 227.324 24.7406 226.551 24.8034V26.2271H240.537V24.7972C240.129 24.77 239.724 24.7115 239.324 24.6223C238.914 24.5351 238.518 24.3901 238.149 24.1915C237.76 23.9729 237.411 23.69 237.118 23.3547C236.864 23.0585 236.652 22.7286 236.489 22.3744C235.551 20.168 234.411 17.3893 233.07 14.0381C231.729 10.687 229.902 6.12236 227.589 0.344238H223.968L219.31 11.5217C217.911 14.8978 216.509 18.2697 215.105 21.6375C214.892 22.1689 214.598 22.664 214.231 23.1049C213.881 23.5324 213.455 23.8923 212.974 24.1665C212.607 24.3715 212.207 24.513 211.792 24.5849C211.348 24.6834 210.896 24.746 210.441 24.7722V26.2271H220.97L220.982 24.7972ZM223.371 6.68851L227.086 15.9052H219.712L223.371 6.68851Z" fill="#6A5938"/>
<path d="M114.192 36.5178C113.473 37.1614 112.89 37.9404 112.476 38.8095C112.187 39.5088 111.848 40.3643 111.502 41.3697C111.188 42.2838 110.814 43.1766 110.383 44.0422C109.878 45.0023 109.217 45.8735 108.428 46.6212C108.037 47.019 107.547 47.3076 107.008 47.4579C106.514 47.5909 106.004 47.6601 105.493 47.664H104.311V39.1779C104.309 38.804 104.386 38.4339 104.537 38.0914C104.631 37.9063 104.765 37.7439 104.929 37.6156C105.093 37.4872 105.283 37.396 105.486 37.3483C105.879 37.2351 106.278 37.1455 106.681 37.0798C107.121 36.9921 107.566 36.9317 108.013 36.8987V35.4937H94.1279V36.8987C94.5507 36.9513 94.9704 37.0263 95.3851 37.1235C95.8565 37.2182 96.3176 37.3583 96.7617 37.5419C97.1451 37.6886 97.4711 37.9533 97.692 38.2974C97.8523 38.628 97.93 38.9922 97.9183 39.359V57.3989C97.9267 57.789 97.8382 58.175 97.6606 58.5229C97.4652 58.867 97.1429 59.1222 96.7617 59.2348C96.3517 59.3568 95.9306 59.4384 95.5045 59.4783C94.9199 59.5408 94.4737 59.5845 94.1719 59.597V60.9957H108.001V59.597C107.547 59.5555 107.096 59.4888 106.649 59.3971C106.249 59.3316 105.855 59.2291 105.474 59.0912C105.095 58.9506 104.777 58.6835 104.575 58.3356C104.396 57.9992 104.305 57.6234 104.311 57.2428V49.3312C105.083 49.317 105.854 49.4116 106.599 49.6122C107.205 49.7735 107.769 50.0632 108.252 50.4615C108.739 50.8511 109.154 51.3224 109.478 51.8539C109.851 52.4952 110.185 53.1583 110.477 53.8397C110.949 54.895 111.395 56.0439 111.816 57.2741L113.073 60.977H122.923V59.597L121.917 59.4783C121.515 59.4221 121.176 59.3659 120.893 59.3035C120.572 59.2289 120.273 59.0814 120.019 58.8726C119.535 58.4537 119.159 57.9245 118.925 57.3303C118.68 56.8245 118.404 56.2188 118.083 55.5069C117.763 54.795 117.455 54.1207 117.153 53.4837C116.508 52.0725 115.592 50.7999 114.456 49.7371C113.26 48.6738 111.817 47.9209 110.257 47.5453V47.2206C110.854 46.7978 111.374 46.2786 111.797 45.6845C112.363 44.8409 112.825 43.9332 113.174 42.9807C113.4 42.4062 113.652 41.7318 113.922 40.9575C114.114 40.3276 114.438 39.7447 114.871 39.2466C115.414 39.9943 116.076 40.6483 116.832 41.1823C117.337 41.5058 117.923 41.6811 118.523 41.6881C118.94 41.702 119.356 41.6316 119.745 41.4814C120.134 41.3311 120.488 41.104 120.786 40.8139C121.093 40.4893 121.33 40.1058 121.482 39.6871C121.634 39.2683 121.699 38.8231 121.672 38.3786C121.684 37.9362 121.596 37.4968 121.414 37.0927C121.232 36.6886 120.962 36.33 120.623 36.0432C119.817 35.3998 118.801 35.0751 117.769 35.1315C117.076 35.1218 116.389 35.2469 115.745 35.5C115.163 35.731 114.635 36.0773 114.192 36.5178Z" fill="#6A5938"/>
<path d="M140.454 36.8988C141.342 36.9595 142.219 37.1315 143.063 37.4108C143.692 37.6418 144.012 37.9478 144.012 38.3162C143.978 38.7021 143.887 39.0809 143.742 39.4402C143.445 40.2332 143.107 41.0106 142.73 41.7694L141.177 44.9602C140.681 45.9968 140.014 47.3019 139.191 48.863C137.096 45.466 135.709 43.1639 135.03 41.9567C134.338 40.7578 133.716 39.6962 133.144 38.7721L132.886 38.3037C132.786 38.1547 132.726 37.9828 132.71 37.8042C132.71 37.5981 132.962 37.4108 133.452 37.2422C134.346 37.0166 135.264 36.8971 136.186 36.8863V35.4938H121.968V36.8988C122.784 36.9558 123.582 37.1677 124.319 37.5232C124.756 37.7344 125.152 38.022 125.488 38.3724C125.72 38.6472 125.959 38.9656 126.204 39.3216C126.783 40.1958 128.107 42.3813 130.177 45.8782C132.247 49.375 134.074 52.441 135.658 55.0761C135.287 55.757 134.867 56.4102 134.401 57.0306C133.991 57.5964 133.467 58.0707 132.861 58.4231C132.189 57.496 131.384 56.6714 130.472 55.9753C129.832 55.4898 129.053 55.2207 128.247 55.2072C127.823 55.1886 127.399 55.2603 127.004 55.4175C126.61 55.5748 126.253 55.8139 125.959 56.1189C125.394 56.704 125.084 57.4873 125.098 58.2982C125.1 58.749 125.206 59.1935 125.406 59.598C125.606 60.0026 125.897 60.3567 126.255 60.6336C127.166 61.3411 128.306 61.6941 129.46 61.6264C130.194 61.6376 130.924 61.5408 131.629 61.3392C132.308 61.1133 132.945 60.7779 133.515 60.3463C134.403 59.6816 135.193 58.8954 135.859 58.011C136.875 56.6721 137.791 55.2612 138.6 53.7898C139.388 52.4118 140.557 50.2284 142.108 47.2394C143.658 44.2505 144.978 41.8256 146.068 39.9647C146.341 39.492 146.639 39.0335 146.96 38.591C147.249 38.1947 147.623 37.8664 148.054 37.6293C148.45 37.4134 148.872 37.2496 149.311 37.1423C149.701 37.0298 150.101 36.9586 150.505 36.93V35.4938H140.448L140.454 36.8988Z" fill="#6A5938"/>
<path d="M156.848 55.2259C156.865 54.8227 156.792 54.4208 156.633 54.0493C156.474 53.6778 156.234 53.346 155.931 53.0779C155.232 52.5141 154.347 52.2291 153.448 52.2786C153.024 52.2723 152.603 52.3546 152.213 52.5203C151.823 52.686 151.473 52.9313 151.185 53.2402C150.894 53.5229 150.663 53.86 150.505 54.2319C150.346 54.6037 150.263 55.0031 150.261 55.407C150.261 57.2304 151.172 58.729 152.995 59.9155C154.818 61.1019 157.288 61.6951 160.412 61.6951C164.054 61.6951 167.05 60.9312 169.401 59.4034C171.752 57.8756 172.927 55.917 172.927 53.5275C172.956 52.5136 172.704 51.5115 172.198 50.6301C171.71 49.8395 171.034 49.1794 170.231 48.7068C169.43 48.219 168.553 47.8686 167.635 47.6703C166.741 47.4693 165.829 47.3584 164.913 47.3393V47.0833C166.105 46.8616 167.261 46.4748 168.345 45.9343C169.124 45.5431 169.833 45.0285 170.445 44.4107C170.944 43.9146 171.325 43.3126 171.557 42.6498C171.774 42.0485 171.886 41.4151 171.89 40.7765C171.893 39.8871 171.657 39.013 171.206 38.2446C170.755 37.4761 170.106 36.8412 169.326 36.4054C167.608 35.3147 165.255 34.7673 162.267 34.7632C160.888 34.7441 159.513 34.9143 158.181 35.269C157.08 35.5667 156.009 35.9638 154.981 36.4554L153.888 35.4937H152.253L152.09 44.5855H153.68C154.216 42.4002 155.231 40.3595 156.653 38.6097C157.158 37.978 157.796 37.4646 158.523 37.1062C159.25 36.7478 160.047 36.5533 160.859 36.5366C161.466 36.5242 162.069 36.6436 162.625 36.8862C163.106 37.1091 163.535 37.4304 163.882 37.8291C164.218 38.245 164.468 38.7224 164.618 39.2341C164.783 39.7873 164.866 40.3617 164.863 40.9388C164.863 42.8413 164.483 44.2379 163.725 45.1288C162.966 46.0197 161.688 46.463 159.891 46.4589H158.112V48.6132H160.557C161.466 48.5876 162.371 48.7382 163.222 49.0565C163.85 49.2877 164.409 49.6746 164.844 50.1805C165.229 50.6598 165.491 51.2259 165.604 51.829C165.734 52.4451 165.8 53.0729 165.799 53.7023C165.847 54.5407 165.727 55.3802 165.444 56.1715C165.161 56.9628 164.722 57.6901 164.152 58.3107C163.553 58.8779 162.842 59.316 162.065 59.5975C161.287 59.879 160.459 59.9979 159.633 59.9467C158.861 59.982 158.089 59.8631 157.364 59.597C156.864 59.3801 156.388 59.1122 155.943 58.7977C156.075 58.4231 156.257 57.9048 156.496 57.2429C156.727 56.5949 156.846 55.9131 156.848 55.2259Z" fill="#6A5938"/>
<path d="M203.546 38.0914C203.64 37.9117 203.77 37.7533 203.93 37.6265C204.089 37.4996 204.273 37.407 204.47 37.3546C204.896 37.2273 205.331 37.1272 205.771 37.0549C206.255 36.9799 206.688 36.93 207.078 36.905V35.4938H193.224V36.8988C193.648 36.9536 194.068 37.035 194.481 37.1423C194.912 37.2354 195.333 37.3692 195.739 37.5419C196.125 37.689 196.455 37.9534 196.681 38.2975C196.847 38.6265 196.927 38.9915 196.914 39.359V46.7961H185.945V39.1779C185.944 38.8041 186.021 38.434 186.172 38.0914C186.264 37.9077 186.396 37.7462 186.558 37.6179C186.72 37.4897 186.907 37.3977 187.108 37.3484C187.499 37.2357 187.895 37.1461 188.296 37.0798C188.738 36.9926 189.185 36.9321 189.635 36.8988V35.4938H175.769V36.8988C176.191 36.9514 176.611 37.0264 177.026 37.1236C177.497 37.2183 177.958 37.3584 178.402 37.5419C178.786 37.6886 179.112 37.9534 179.333 38.2975C179.493 38.6281 179.571 38.9922 179.559 39.359V57.399C179.567 57.789 179.479 58.1751 179.301 58.523C179.106 58.8671 178.784 59.1223 178.402 59.2348C177.992 59.3569 177.571 59.4384 177.145 59.4784C176.561 59.5408 176.114 59.5845 175.813 59.597V60.9958H189.685V59.597C189.231 59.5555 188.78 59.4888 188.334 59.3972C187.933 59.3316 187.54 59.2292 187.158 59.0912C186.78 58.9507 186.462 58.6836 186.26 58.3357C186.08 57.9993 185.99 57.6234 185.996 57.2429V48.6506H196.958V57.449C196.974 57.839 196.888 58.2265 196.707 58.5729C196.487 58.9062 196.162 59.1569 195.783 59.2848C195.397 59.4135 194.995 59.485 194.588 59.4971L193.268 59.6095V61.0082H207.147V59.597C206.795 59.597 206.343 59.5096 205.796 59.4159C205.367 59.3487 204.946 59.2399 204.539 59.0912C204.129 58.9627 203.777 58.6953 203.546 58.3357C203.38 57.9954 203.3 57.6205 203.313 57.2429V39.1779C203.309 38.8032 203.388 38.4321 203.546 38.0914Z" fill="#6A5938"/>
<path d="M232.932 38.0914C233.026 37.9117 233.156 37.7533 233.316 37.6265C233.475 37.4996 233.659 37.407 233.856 37.3546C234.282 37.2259 234.717 37.1258 235.157 37.0548C235.639 36.9799 236.072 36.93 236.458 36.905V35.4938H221.322C220.162 35.4891 219.006 35.634 217.883 35.9246C216.872 36.1776 215.911 36.5999 215.042 37.1735C214.239 37.7073 213.559 38.4057 213.049 39.2216C212.518 40.1056 212.25 41.1211 212.276 42.1503C212.257 43.0563 212.451 43.9542 212.842 44.7729C213.205 45.4985 213.722 46.1376 214.357 46.6462C214.986 47.1454 215.693 47.5397 216.45 47.8139C217.357 48.1479 218.3 48.3783 219.26 48.5008V48.8255C218.032 49.1359 216.891 49.7187 215.922 50.5302C215.103 51.2216 214.433 52.0714 213.955 53.0279C213.584 53.7835 213.226 54.5266 212.88 55.2634C212.534 56.0002 212.213 56.6996 211.912 57.3615C211.701 57.812 211.423 58.2288 211.088 58.5979C210.717 58.9602 210.251 59.2113 209.743 59.3223C209.415 59.4152 209.078 59.4738 208.737 59.4971C208.36 59.4971 208.046 59.5533 207.807 59.5783V60.977H217.475C217.957 59.6241 218.411 58.3877 218.839 57.2679C219.266 56.148 219.731 55.0303 220.234 53.9146C220.73 52.6241 221.465 51.4378 222.403 50.4178C223.096 49.811 223.994 49.4875 224.917 49.5124H226.225V57.4489C226.241 57.839 226.154 58.2265 225.973 58.5729C225.754 58.9062 225.429 59.1568 225.049 59.2848C224.664 59.4135 224.261 59.485 223.855 59.4971L222.535 59.6095V61.0082H236.408V59.597C236.062 59.597 235.609 59.5096 235.062 59.4159C234.634 59.3487 234.213 59.2399 233.805 59.0912C233.421 58.949 233.096 58.683 232.881 58.3356C232.716 57.9954 232.636 57.6205 232.649 57.2429V39.1779C232.66 38.7993 232.757 38.4281 232.932 38.0914ZM226.275 47.8201H224.207C223.546 47.8524 222.886 47.748 222.268 47.5137C221.651 47.2794 221.088 46.9202 220.618 46.4589C219.725 45.5847 219.26 44.1797 219.26 42.3501C219.186 40.9871 219.595 39.6416 220.416 38.5473C220.806 38.0728 221.302 37.6969 221.866 37.4504C222.43 37.204 223.045 37.0941 223.66 37.1298H226.306L226.275 47.8201Z" fill="#6A5938"/>
<path d="M187.202 107.741C187.202 107.741 184.449 104.182 179.992 104.182C179.992 104.182 180.816 102.158 178.628 99.9854C178.628 99.9854 176.787 105.418 171.651 107.291C171.573 107.021 171.427 106.775 171.227 106.576C171.027 106.377 170.779 106.232 170.507 106.155C172.393 101.053 177.861 99.2236 177.861 99.2236C177.452 98.7674 176.953 98.3988 176.395 98.1401C175.838 97.8814 175.233 97.738 174.618 97.7187C174.285 97.7118 173.953 97.7625 173.637 97.8686C173.637 93.4413 170.054 90.7001 170.054 90.7001C170.054 90.7001 166.472 93.4413 166.472 97.8686C166.154 97.7622 165.82 97.7115 165.485 97.7187C164.87 97.7387 164.265 97.8824 163.708 98.1411C163.15 98.3997 162.651 98.768 162.241 99.2236C162.241 99.2236 167.716 101.053 169.602 106.155C169.33 106.232 169.082 106.377 168.882 106.576C168.681 106.775 168.536 107.021 168.458 107.291C163.322 105.418 161.481 99.9854 161.481 99.9854C159.293 102.158 160.117 104.182 160.117 104.182C155.66 104.182 152.907 107.741 152.907 107.741C152.907 107.741 155.66 111.3 160.117 111.3C160.117 111.3 159.293 113.323 161.481 115.503C161.481 115.503 163.322 110.064 168.458 108.191C168.534 108.462 168.679 108.71 168.88 108.91C169.08 109.11 169.329 109.256 169.602 109.333C167.716 114.435 162.247 116.265 162.247 116.265C162.659 116.719 163.158 117.087 163.715 117.345C164.272 117.604 164.876 117.748 165.491 117.769C165.827 117.777 166.161 117.724 166.478 117.613C166.478 122.041 170.061 124.782 170.061 124.782C170.061 124.782 173.644 122.041 173.644 117.613C173.958 117.724 174.291 117.776 174.624 117.769C175.239 117.749 175.843 117.605 176.401 117.346C176.958 117.087 177.457 116.72 177.868 116.265C177.868 116.265 172.399 114.435 170.513 109.333C170.786 109.256 171.035 109.11 171.235 108.91C171.436 108.71 171.581 108.462 171.657 108.191C176.793 110.064 178.635 115.503 178.635 115.503C180.822 113.323 179.999 111.3 179.999 111.3C184.462 111.3 187.202 107.741 187.202 107.741ZM163.096 109.196H160.11C158.611 109.161 157.161 108.652 155.974 107.741C157.161 106.829 158.611 106.32 160.11 106.286H163.096C163.373 106.561 163.668 106.829 163.982 107.092L157.86 107.716L164.07 108.34C163.737 108.609 163.41 108.902 163.109 109.196H163.096ZM170.67 113.723C170.947 114.054 171.23 114.347 171.519 114.653V117.613C171.485 119.103 170.972 120.543 170.054 121.722C169.132 120.545 168.616 119.104 168.584 117.613L168.747 114.491C168.98 114.248 169.212 113.998 169.438 113.729L170.067 119.818L170.67 113.723ZM170.042 95.6144L169.413 101.778C169.143 101.453 168.86 101.153 168.571 100.853V97.8936C168.605 96.4027 169.121 94.9622 170.042 93.7848C170.959 94.9642 171.472 96.4039 171.506 97.8936L171.343 101.016C171.11 101.253 170.884 101.509 170.664 101.771L170.042 95.6144ZM179.98 109.221L176.837 109.065C176.585 108.821 176.315 108.584 176.032 108.347L182.243 107.722L176.114 107.098C176.428 106.836 176.724 106.567 177 106.292H179.986C181.486 106.327 182.935 106.837 184.122 107.747C182.939 108.652 181.497 109.159 180.005 109.196L179.98 109.221Z" fill="#6A5938"/>
<path d="M207.675 225.497C209.599 224.417 211.447 223.38 213.119 222.288C214.703 221.29 216.157 220.103 217.45 218.753C217.714 218.466 217.965 218.166 218.198 217.867C219.674 215.979 220.461 213.65 220.429 211.26C220.433 210.815 220.299 210.379 220.046 210.011L219.92 209.843C219.827 209.735 219.726 209.635 219.618 209.543L219.448 209.418C219.208 209.255 218.936 209.142 218.65 209.087C218.504 209.054 218.354 209.038 218.204 209.037H204.601C204.601 208.862 204.658 208.694 204.677 208.519C204.747 207.54 204.764 206.558 204.727 205.578C204.727 205.172 204.727 204.753 204.727 204.329V200.208C204.748 198.153 204.174 196.135 203.073 194.396C201.972 192.657 200.39 191.269 198.517 190.398L198.378 190.304C196.963 189.426 195.443 188.727 193.853 188.225C191.751 187.523 189.602 186.97 187.422 186.57C181.881 185.551 176.256 185.043 170.62 185.052H169.885C164.39 185.009 158.903 185.446 153.485 186.358C151.222 186.742 148.988 187.276 146.797 187.956C145.111 188.452 143.484 189.128 141.944 189.973C141.687 190.123 141.442 190.279 141.215 190.429L140.725 190.666C138.722 191.716 137.106 193.372 136.111 195.393C135.374 196.94 135.004 198.634 135.03 200.345V208.05C135.047 209.227 135.301 210.389 135.778 211.466C134.472 211.648 133.155 211.74 131.837 211.741C131.171 211.741 130.517 211.741 129.876 211.678C128.807 211.616 127.776 211.497 126.802 211.354C126.217 211.266 125.652 211.173 125.111 211.066L124.061 210.848L123.087 210.623C122.616 210.504 122.182 210.392 121.773 210.273L121.006 210.055L120.038 209.743L119.529 209.568L119.315 209.493L118.976 209.368L118.769 209.287L118.687 209.256L118.479 209.181L118.266 209.124C118.123 209.1 117.977 209.087 117.832 209.087C117.62 209.084 117.408 209.111 117.203 209.168L117.103 209.199C117.006 209.234 116.912 209.273 116.82 209.318C116.757 209.348 116.696 209.381 116.638 209.418C116.328 209.607 116.073 209.871 115.896 210.186C115.714 210.488 115.609 210.83 115.59 211.181C115.571 211.533 115.64 211.884 115.789 212.203C115.801 212.227 115.812 212.252 115.821 212.278C115.858 212.353 115.909 212.465 115.984 212.609L116.11 212.865C116.443 213.489 117.027 214.57 117.87 215.862C118.498 216.786 119.209 217.823 120.082 218.916C120.604 219.571 121.182 220.239 121.805 220.92C124.842 224.291 128.601 226.943 132.805 228.682L133.679 229.032C134.816 229.494 135.891 229.949 136.891 230.412L137.632 230.755C138.973 231.377 140.275 232.08 141.53 232.859L142.089 233.228C142.954 233.805 143.766 234.457 144.515 235.176C144.654 235.313 144.792 235.451 144.924 235.594C145.442 236.143 145.907 236.739 146.313 237.374C146.613 237.848 146.876 238.345 147.099 238.86C147.25 239.204 147.382 239.56 147.501 239.928C147.558 240.109 147.614 240.296 147.665 240.484C147.818 241.075 147.934 241.676 148.01 242.282H146.753C146.674 242.276 146.594 242.276 146.514 242.282C146.436 242.288 146.358 242.301 146.282 242.32C145.815 242.42 145.394 242.667 145.081 243.025L141.574 247.015L139.688 249.145C139.335 249.548 139.141 250.065 139.141 250.6V264.1C139.141 264.684 139.375 265.245 139.791 265.658C140.207 266.072 140.771 266.304 141.36 266.304H149.852C150.346 266.305 150.826 266.142 151.216 265.842L151.335 265.761L151.681 265.555C152.168 265.282 152.669 265.036 153.183 264.818C153.485 264.687 153.812 264.549 154.189 264.412L154.642 264.25C154.95 264.137 155.27 264.031 155.641 263.919C157.155 263.467 158.699 263.12 160.261 262.882C161.041 262.757 161.883 262.651 162.776 262.564C164.265 262.42 165.918 262.333 167.735 262.333C168.458 262.333 169.156 262.333 169.835 262.37L170.821 262.42C172.599 262.52 174.369 262.729 176.12 263.045C176.753 263.165 177.35 263.29 177.912 263.419L178.22 263.494C178.735 263.619 179.219 263.75 179.666 263.888C180.112 264.025 180.564 264.169 180.954 264.306L181.583 264.543L182.211 264.812C182.84 265.068 183.267 265.299 183.6 265.48L183.802 265.598C184.097 265.767 184.248 265.873 184.261 265.879C184.448 266.028 184.661 266.142 184.889 266.217C185.118 266.292 185.358 266.33 185.599 266.329H194.092C194.39 266.329 194.685 266.27 194.959 266.154C195.358 265.983 195.699 265.7 195.939 265.34C196.179 264.979 196.308 264.557 196.31 264.125V250.581C196.31 250.046 196.116 249.53 195.764 249.126L192.891 245.86L190.377 243.006C190.221 242.827 190.036 242.675 189.83 242.557C189.695 242.476 189.552 242.411 189.402 242.363C189.177 242.288 188.942 242.25 188.705 242.251H188.459C188.575 241.577 188.756 240.916 189 240.278C189.059 240.124 189.122 239.967 189.189 239.809C189.322 239.502 189.471 239.202 189.635 238.91C189.798 238.617 189.981 238.329 190.169 238.048C191.15 236.671 192.325 235.441 193.658 234.395C194.142 234.002 194.657 233.609 195.21 233.209C195.575 232.94 195.952 232.672 196.348 232.397C196.939 231.981 197.568 231.565 198.234 231.148C199.541 230.305 200.981 229.419 202.54 228.47C204.293 227.395 206.016 226.428 207.675 225.497ZM208.473 211.504L213.087 211.628C213.86 211.628 214.627 211.672 215.394 211.703L217.701 211.785L215.394 211.872C214.627 211.872 213.86 211.928 213.087 211.941L208.473 212.072L203.86 212.19H203.803C203.904 211.928 203.992 211.66 204.073 211.391L208.473 211.504ZM153.447 199.084C153.447 199.084 145.238 198.522 140.951 194.188C140.854 194.089 140.768 193.98 140.694 193.863C138.047 189.692 164.209 186.545 164.209 186.545C152.046 188.774 146.401 190.828 144.396 192.602C139.946 196.542 153.447 199.084 153.447 199.084ZM145.477 199.34L144.962 199.146L144.83 199.102L144.201 198.846C143.95 198.746 143.698 198.634 143.453 198.528C142.83 198.249 142.227 197.927 141.649 197.566L141.486 197.46L141.322 197.36C141.115 197.216 140.907 197.067 140.694 196.91L140.455 196.717C139.806 196.208 139.318 195.525 139.047 194.75L139.336 194.581C139.531 195.207 139.889 195.772 140.373 196.217C141.45 197.182 142.694 197.945 144.044 198.472C145.905 199.25 147.832 199.864 149.802 200.307L150.217 200.407L149.997 200.476L149.89 200.62L149.223 200.457H149.129L148.545 200.307L148.343 200.257L147.859 200.12L147.595 200.045L147.174 199.914L146.872 199.827L146.476 199.695L146.175 199.602L145.735 199.446L145.477 199.34ZM196.109 198.266L196.342 198.159L196.625 198.022L196.851 197.91L197.121 197.772L197.322 197.666L197.586 197.516L197.762 197.416L198.026 197.248L198.165 197.16L198.441 196.967L198.542 196.892C198.642 196.823 198.743 196.742 198.837 196.667L198.894 196.623C199.007 196.53 199.12 196.436 199.227 196.336C199.599 196.05 199.907 195.689 200.129 195.277C200.351 194.865 200.483 194.411 200.516 193.944C200.514 193.8 200.499 193.656 200.472 193.514C200.593 193.62 200.708 193.732 200.817 193.851C200.82 193.882 200.82 193.913 200.817 193.944C200.815 194.135 200.794 194.326 200.754 194.513C200.754 194.594 200.717 194.675 200.698 194.756C200.646 194.918 200.583 195.077 200.509 195.231C200.468 195.319 200.422 195.404 200.371 195.487C199.583 196.618 198.495 197.511 197.228 198.066C196.964 198.203 196.669 198.34 196.342 198.49H196.31L196.009 198.384L195.877 198.347L196.109 198.266ZM203.86 211.379H203.891C203.803 211.647 203.721 211.922 203.615 212.184H203.275C203.384 211.909 203.485 211.635 203.577 211.36L203.86 211.379ZM204.532 200.233V204.354C204.532 204.76 204.532 205.184 204.532 205.603C204.569 206.575 204.552 207.548 204.482 208.519C204.482 208.7 204.432 208.881 204.407 209.056H204.099C204.099 208.975 204.099 208.893 204.136 208.806C204.239 207.781 204.266 206.75 204.218 205.721C204.218 205.334 204.218 204.928 204.218 204.535V200.882C204.232 200.154 204.203 199.427 204.13 198.703C204.002 197.616 203.686 196.559 203.193 195.58C203.183 195.55 203.168 195.52 203.149 195.493C203.112 195.412 203.068 195.331 203.024 195.256L202.917 195.062C202.891 195.012 202.862 194.964 202.829 194.919C202.778 194.825 202.722 194.731 202.665 194.644L202.621 194.575L202.395 194.238C202.021 193.709 201.6 193.213 201.138 192.758C201.025 192.652 200.905 192.539 200.78 192.433L200.685 192.352L200.409 192.121C200.39 192.1 200.373 192.077 200.358 192.052L200.226 191.878L200.151 191.79L200.013 191.628L199.925 191.534L199.78 191.384L199.68 191.284L199.504 191.128L199.434 191.066C201.014 192.022 202.315 193.372 203.209 194.98C204.103 196.589 204.559 198.401 204.532 200.239V200.233ZM135.206 208.019V200.314C135.188 198.632 135.558 196.968 136.287 195.449C137.192 193.63 138.609 192.112 140.367 191.078L140.329 191.109L140.09 191.334L140.04 191.378C139.964 191.447 139.895 191.522 139.832 191.59L139.782 191.64L139.6 191.853L139.556 191.903L139.38 192.14L139.179 192.308L138.952 192.502L138.827 192.621L138.538 192.889L138.456 192.983C138.349 193.083 138.248 193.189 138.148 193.295C138.047 193.401 138.091 193.37 138.06 193.401L137.783 193.726C137.739 193.776 137.701 193.832 137.657 193.888L137.444 194.169C137.387 194.244 137.337 194.325 137.28 194.407L137.129 194.631C137.054 194.75 136.985 194.869 136.916 194.987L136.834 195.118C136.74 195.281 136.652 195.449 136.57 195.618C135.853 197.145 135.506 198.817 135.558 200.501V208.163C135.571 209.272 135.815 210.367 136.275 211.379C136.6 212.105 136.994 212.799 137.45 213.452C137.664 213.758 137.89 214.076 138.135 214.382C138.938 215.368 139.816 216.291 140.763 217.142C141.374 217.694 142.016 218.211 142.686 218.691C143.101 218.991 143.522 219.278 143.943 219.54C144.201 219.702 144.459 219.871 144.723 220.015C145.144 220.252 145.578 220.477 146.011 220.677C146.86 221.074 147.752 221.372 148.67 221.563C148.972 221.62 149.276 221.66 149.582 221.682L149.883 221.588L150.078 221.757L151.09 221.332L152.021 220.939L169.407 213.545V212.921L149.783 221.532C149.158 220.979 148.587 220.369 148.079 219.709C147.897 219.478 147.734 219.247 147.577 219.016L147.52 218.922C146.277 216.983 145.649 214.719 145.716 212.421C145.716 211.997 145.716 211.572 145.785 211.173C145.857 210.464 145.974 209.762 146.137 209.068C146.895 206.114 148.19 203.323 149.959 200.832L150.072 200.682L150.116 200.62L150.877 200.37L169.413 194.2V212.934L169.627 212.84L169.96 212.909V194.032C174.002 194.219 178.028 194.653 182.016 195.331L182.997 195.493H183.041L184.015 195.668H184.091L185.065 195.849H185.172L186.153 196.043H186.272L187.259 196.249H187.391L188.39 196.467L188.529 196.498L189.541 196.736L189.679 196.767L190.716 197.017L190.848 197.054L191.91 197.323L192.023 197.354L193.117 197.647H193.205L194.337 197.96H194.393L195.575 198.309L195.927 198.415L196.254 198.522C199.944 199.908 200.497 204.46 200.025 208.887C199.95 209.649 199.843 210.405 199.724 211.141C199.667 211.466 199.604 211.766 199.548 212.109C199.213 213.78 198.793 215.433 198.29 217.061C198.146 217.536 198.02 217.923 197.926 218.198C197.882 218.329 197.85 218.422 197.825 218.479L197.53 218.422L197.448 218.572L197.945 218.678L197.574 218.616H197.436L197.373 218.735L197.335 218.803L170.595 215.057L154.981 219.84L169.979 213.951L196.926 218.535L196.857 218.497L169.791 213.377L153.623 220.427L150.895 221.588L150.807 221.663L150.273 221.869C150.182 221.931 150.08 221.975 149.972 221.996C149.864 222.017 149.752 222.017 149.645 221.994H149.607C149.355 221.994 149.104 221.944 148.846 221.9C147.501 221.652 146.205 221.186 145.012 220.52L144.572 220.283C144.364 220.165 144.157 220.033 143.943 219.908C143.522 219.652 143.114 219.384 142.686 219.097C141.564 218.31 140.512 217.428 139.543 216.462C138.902 215.823 138.301 215.145 137.745 214.432C137.507 214.126 137.287 213.808 137.079 213.508C136.632 212.848 136.249 212.148 135.935 211.416C135.464 210.344 135.216 209.189 135.206 208.019ZM185.304 235.245C185.304 235.245 183.236 235.426 180.137 235.551C178.584 235.613 176.774 235.669 174.838 235.707C173.87 235.707 172.864 235.75 171.852 235.75H168.766H165.68C164.661 235.75 163.662 235.719 162.694 235.707C161.726 235.694 160.808 235.663 159.897 235.638C158.985 235.613 158.168 235.582 157.382 235.544C154.277 235.419 152.209 235.245 152.209 235.245C152.209 235.245 154.277 235.07 157.382 234.945C158.156 234.914 158.998 234.876 159.897 234.857C160.796 234.839 161.72 234.801 162.694 234.789C163.668 234.776 164.661 234.745 165.68 234.739H168.766H171.852C172.864 234.739 173.87 234.77 174.838 234.783C176.774 234.82 178.61 234.876 180.137 234.945C183.236 235.07 185.317 235.245 185.317 235.245H185.304ZM143.937 220.583C143.981 221.126 144.019 221.669 144.056 222.2C144.094 222.469 144.126 222.731 144.157 222.993C144.188 223.255 144.22 223.511 144.251 223.761C144.339 224.267 144.427 224.754 144.509 225.216C144.591 225.678 144.71 226.109 144.798 226.515C144.798 226.615 144.842 226.709 144.861 226.809C144.88 226.908 144.949 227.183 144.993 227.352C145.037 227.52 145.043 227.527 145.068 227.602C145.156 227.926 145.238 228.226 145.307 228.438L145.395 228.744C145.395 228.794 145.395 228.832 145.433 228.869V228.975L145.483 229.163L145.257 228.626C145.257 228.576 145.213 228.526 145.194 228.47L144.855 227.664C144.786 227.508 144.716 227.339 144.654 227.164C144.591 226.99 144.522 226.802 144.452 226.602C144.32 226.209 144.144 225.791 144.012 225.354L143.799 224.648C143.73 224.411 143.654 224.167 143.579 223.917C143.453 223.412 143.327 222.887 143.195 222.35C143.063 221.813 142.982 221.264 142.875 220.714C142.768 220.165 142.743 219.802 142.686 219.346C143.088 219.621 143.491 219.884 143.893 220.127C143.931 220.264 143.937 220.427 143.937 220.583ZM145.395 221.245L145.144 220.795C146.181 221.351 147.292 221.759 148.444 222.007L148.054 222.131L145.395 221.245ZM118.329 211.785C118.586 211.878 118.85 211.966 119.108 212.047C119.63 212.215 120.158 212.372 120.686 212.509C120.95 212.584 121.214 212.653 121.478 212.715L122.27 212.909C122.54 212.977 122.804 213.033 123.074 213.09C123.602 213.215 124.143 213.308 124.677 213.408C125.212 213.508 125.752 213.583 126.293 213.658L127.914 213.845C128.455 213.895 128.996 213.926 129.536 213.964C130.077 214.001 130.611 214.008 131.164 214.001C131.717 213.995 132.252 214.001 132.786 214.001L133.597 213.964L134.408 213.895C134.672 213.895 134.942 213.845 135.212 213.814L136.011 213.708L136.809 213.577H136.916C137.123 213.889 137.337 214.201 137.544 214.501C137.073 214.582 136.589 214.638 136.111 214.701L135.696 214.738L135.281 214.776C134.999 214.776 134.722 214.819 134.445 214.826C133.892 214.857 133.333 214.876 132.78 214.869C132.227 214.863 131.661 214.869 131.12 214.826C130.85 214.826 130.567 214.826 130.291 214.776L129.461 214.701C128.908 214.632 128.361 214.57 127.814 214.488C126.72 214.318 125.637 214.11 124.564 213.864C122.425 213.365 120.337 212.669 118.329 211.785ZM147.765 235.775C147.608 235.519 147.432 235.263 147.25 235.014C146.885 234.507 146.484 234.027 146.049 233.577C145.829 233.353 145.603 233.128 145.37 232.909C145.138 232.691 144.886 232.485 144.635 232.285C144.126 231.872 143.595 231.486 143.044 231.13C142.762 230.955 142.479 230.78 142.19 230.611L141.316 230.118C140.14 229.494 138.908 228.9 137.676 228.37L135.835 227.595L134.024 226.858C133.396 226.609 132.811 226.34 132.239 226.053C131.667 225.766 131.12 225.466 130.605 225.141C129.631 224.548 128.705 223.882 127.833 223.149C127.097 222.541 126.4 221.889 125.746 221.195C125.601 221.039 125.457 220.889 125.325 220.739C124.929 220.302 124.583 219.896 124.306 219.534C124.118 219.297 123.954 219.078 123.816 218.909C123.678 218.741 123.558 218.553 123.47 218.422L123.351 218.241L123.206 218.035L123.307 218.116L123.42 218.223L123.584 218.366L123.785 218.541L124.03 218.76L124.658 219.284C125.111 219.671 125.67 220.14 126.324 220.652C126.978 221.164 127.738 221.707 128.568 222.281C128.776 222.425 128.996 222.569 129.197 222.706C129.863 223.131 130.573 223.561 131.328 223.955C132.393 224.521 133.491 225.026 134.615 225.466L136.451 226.197C137.375 226.577 138.336 226.983 139.26 227.445C140.184 227.908 141.146 228.357 142.064 228.869C143.301 229.559 144.466 230.371 145.54 231.292C146.073 231.748 146.575 232.238 147.042 232.759C147.262 233.022 147.482 233.29 147.671 233.559C147.859 233.827 148.073 234.108 148.249 234.395C148.607 234.946 148.928 235.52 149.211 236.113C149.48 236.676 149.713 237.256 149.909 237.849C150.26 238.925 150.523 240.027 150.694 241.146C150.851 242.176 150.914 243.131 150.965 243.968C151.015 244.805 150.996 245.542 150.965 246.141C150.965 246.597 150.965 246.972 150.921 247.271C150.921 247.371 150.921 247.459 150.921 247.54C150.921 247.858 150.921 248.033 150.921 248.033L150.877 247.54C150.877 247.221 150.82 246.747 150.751 246.154C150.682 245.56 150.613 244.836 150.493 244.018C150.493 243.812 150.424 243.6 150.393 243.394C150.361 243.187 150.317 242.956 150.279 242.725C150.191 242.27 150.097 241.795 149.971 241.302C149.846 240.808 149.714 240.303 149.557 239.778C149.399 239.254 149.211 238.735 148.991 238.204C148.766 237.666 148.515 237.138 148.237 236.625C148.079 236.294 147.929 236.038 147.765 235.775ZM184.638 263.513C184.292 263.344 183.94 263.194 183.582 263.045C182.871 262.745 182.142 262.508 181.413 262.276C180.684 262.045 179.93 261.864 179.182 261.696C178.811 261.596 178.434 261.54 178.056 261.458C177.679 261.377 177.302 261.315 176.925 261.252L175.787 261.071L174.649 260.934C174.077 260.853 173.505 260.822 172.927 260.772L172.355 260.722L171.211 260.659L170.067 260.603H167.748L165.46 260.659L163.165 260.809C162.405 260.896 161.638 260.934 160.884 261.053L159.746 261.215L158.614 261.415C158.237 261.477 157.866 261.552 157.496 261.633C157.125 261.714 156.741 261.783 156.377 261.889L155.27 262.177L154.177 262.514C153.818 262.639 153.46 262.757 153.102 262.888C152.743 263.02 152.398 263.163 152.046 263.319C151.358 263.61 150.696 263.956 150.066 264.356L149.953 264.431H149.858C148.444 264.393 147.03 264.356 145.615 264.287C144.201 264.218 142.78 264.181 141.366 264.1C142.78 264.012 144.201 263.962 145.615 263.906C147.03 263.85 148.369 263.806 149.751 263.769C150.37 263.326 151.029 262.941 151.719 262.62C152.429 262.27 153.158 261.995 153.894 261.696L155.006 261.321L156.138 260.99C156.326 260.934 156.515 260.89 156.71 260.84L157.282 260.703C157.659 260.609 158.042 260.522 158.426 260.453L159.582 260.235L160.745 260.066C161.518 259.935 162.298 259.885 163.077 259.797C163.857 259.71 164.636 259.704 165.416 259.654L167.767 259.616L170.086 259.685C170.872 259.741 171.657 259.785 172.437 259.86C173.216 259.935 173.989 260.016 174.756 260.16L175.913 260.347L177.063 260.584C177.447 260.659 177.824 260.753 178.201 260.853C178.39 260.909 178.578 260.953 178.767 261.003L179.332 261.159L180.451 261.508L181.551 261.908C182.274 262.202 182.991 262.533 183.682 262.87C184.204 263.125 184.707 263.42 185.185 263.75C185.348 263.863 185.505 263.975 185.656 264.1C185.328 263.886 184.988 263.69 184.638 263.513ZM188.459 253.029H187.969L186.85 253.072C185.845 253.116 184.657 253.166 183.33 253.203C181.212 253.272 178.735 253.322 176.083 253.36H174.065H171.997H167.779H163.555C162.166 253.36 160.796 253.36 159.469 253.316C156.817 253.316 154.34 253.228 152.222 253.16C150.103 253.091 148.331 253.01 147.092 252.966C145.854 252.922 145.15 252.866 145.15 252.866C145.15 252.866 145.854 252.816 147.092 252.766C148.331 252.716 150.097 252.629 152.222 252.567C154.107 252.51 156.201 252.46 158.508 252.423H159.494C160.821 252.423 162.191 252.379 163.58 252.379H167.804H172.022H174.09H176.108L178.063 252.41L181.702 252.492L183.355 252.542C184.952 252.585 186.341 252.648 187.46 252.691H187.994H188.485C189.742 252.741 190.427 252.791 190.427 252.791C190.427 252.791 189.679 252.972 188.459 253.029ZM194.167 250.581C191.967 250.718 189.767 250.824 187.567 250.912L184.273 251.03L180.973 251.13C178.773 251.18 176.573 251.243 174.373 251.261C172.173 251.28 169.973 251.33 167.779 251.33C165.585 251.33 163.379 251.361 161.179 251.33C158.979 251.299 156.779 251.33 154.579 251.28C152.379 251.23 150.179 251.23 147.985 251.168C145.791 251.105 143.585 251.055 141.385 250.98L140.518 250.949L141.058 250.325C141.988 249.213 142.944 248.121 143.887 247.022C144.83 245.923 145.772 244.842 146.766 243.768C145.942 244.961 145.106 246.141 144.251 247.321C143.572 248.258 142.894 249.195 142.208 250.137C144.132 250.075 146.049 250.013 147.973 249.975C150.173 249.913 152.373 249.894 154.566 249.863C156.76 249.831 158.966 249.831 161.166 249.813C163.366 249.794 165.566 249.813 167.767 249.813C169.967 249.813 172.167 249.85 174.36 249.881C176.554 249.913 178.76 249.969 180.96 250.019L184.261 250.112L187.554 250.231C189.748 250.331 191.948 250.437 194.148 250.581H194.167ZM199.032 227.801C197.838 228.47 196.637 229.169 195.481 229.918C194.612 230.47 193.773 231.067 192.966 231.704C192.702 231.916 192.445 232.135 192.193 232.36C191.202 233.22 190.315 234.19 189.547 235.251C188.837 236.254 188.243 237.333 187.774 238.467C187.661 238.741 187.554 239.01 187.46 239.279C187.265 239.816 187.102 240.346 186.963 240.865C186.888 241.121 186.825 241.377 186.762 241.626C186.542 242.543 186.37 243.471 186.247 244.405C186.19 244.823 186.146 245.217 186.109 245.579C186.071 245.941 186.039 246.278 186.021 246.584C185.958 247.209 185.939 247.665 185.92 247.989L185.889 248.489V248.364C185.889 248.277 185.889 248.152 185.889 247.989C185.889 247.665 185.857 247.184 185.889 246.578C185.92 245.972 185.92 245.223 185.977 244.374C185.977 243.949 186.046 243.5 186.102 243.025C186.102 242.788 186.159 242.544 186.19 242.295C186.222 242.045 186.266 241.789 186.316 241.526C186.517 240.405 186.811 239.302 187.196 238.229C187.406 237.641 187.652 237.065 187.931 236.506C188.076 236.219 188.233 235.932 188.397 235.651C188.56 235.37 188.736 235.082 188.918 234.801C189.101 234.52 189.302 234.246 189.503 233.977C189.704 233.709 189.93 233.44 190.131 233.178C190.587 232.651 191.074 232.153 191.59 231.685C192.634 230.732 193.754 229.866 194.94 229.094C196.122 228.32 197.329 227.595 198.529 226.915C199.73 226.234 200.924 225.585 202.075 224.96C203.225 224.336 204.394 223.768 205.5 223.293C206.607 222.818 207.656 222.375 208.643 221.969L209.347 221.663C209.8 221.47 210.233 221.276 210.642 221.082C210.843 220.983 211.038 220.889 211.22 220.789C211.597 220.595 211.943 220.414 212.264 220.233C212.584 220.052 212.861 219.871 213.106 219.696C213.327 219.553 213.537 219.394 213.735 219.222C213.898 219.102 214.053 218.973 214.2 218.834L214.552 218.522L214.37 218.747L214.238 218.916C214.114 219.076 213.979 219.229 213.835 219.371C213.647 219.571 213.447 219.761 213.238 219.94C212.842 220.299 212.422 220.63 211.981 220.933L211.459 221.282C210.648 221.798 209.808 222.269 208.945 222.693C208.48 222.931 207.983 223.174 207.474 223.418L205.871 224.173L204.231 224.985C203.677 225.272 203.112 225.566 202.546 225.884C201.683 226.363 200.803 226.846 199.906 227.333L199.032 227.801Z" fill="#6A5938"/>
<path d="M160.13 202.605C160.13 201.712 159.149 200.982 157.955 200.982C156.76 200.982 155.773 201.694 155.773 202.605C155.773 203.517 156.748 204.235 157.948 204.235C159.149 204.235 160.13 203.505 160.13 202.605ZM157.307 201.787C157.153 201.803 156.997 201.803 156.842 201.787C157.099 201.555 157.438 201.432 157.785 201.444C157.995 201.439 158.204 201.478 158.398 201.558C158.592 201.639 158.766 201.76 158.91 201.912C159.049 202.073 159.131 202.275 159.143 202.487C158.903 202.207 158.596 201.992 158.25 201.862C158.053 201.773 157.838 201.73 157.621 201.737L157.307 201.787Z" fill="#6A5938"/>
<path d="M151.292 207.701C150.806 207.668 150.321 207.778 149.898 208.018C149.476 208.258 149.134 208.617 148.916 209.05C148.854 209.209 148.82 209.378 148.815 209.549C148.841 209.893 148.966 210.223 149.174 210.499C149.382 210.776 149.665 210.988 149.99 211.11C150.399 211.295 150.843 211.391 151.292 211.391C151.757 211.383 152.215 211.27 152.63 211.06C152.941 210.932 153.208 210.72 153.404 210.449C153.599 210.177 153.715 209.857 153.737 209.524C153.735 209.353 153.701 209.183 153.636 209.025C153.418 208.601 153.08 208.25 152.663 208.015C152.246 207.779 151.77 207.67 151.292 207.701ZM152.448 210.729C152.555 210.155 152.819 209.568 152.385 209.05L152.354 209.006C151.882 208.494 151.266 208.694 150.764 208.381H150.663C151.036 208.26 151.438 208.255 151.814 208.367C152.19 208.478 152.523 208.701 152.769 209.006C152.888 209.129 152.976 209.279 153.025 209.443C153.074 209.607 153.084 209.781 153.052 209.949C153.021 210.117 152.95 210.276 152.845 210.412C152.74 210.547 152.604 210.656 152.448 210.729Z" fill="#6A5938"/>
<path d="M186.492 204.06C186.124 204.121 185.781 204.286 185.505 204.535C185.228 204.784 185.029 205.107 184.932 205.464C184.834 205.822 184.843 206.201 184.955 206.554C185.068 206.907 185.28 207.221 185.567 207.458C185.854 207.695 186.204 207.845 186.574 207.891C186.945 207.936 187.321 207.875 187.657 207.714C187.993 207.554 188.276 207.3 188.472 206.985C188.668 206.669 188.768 206.304 188.761 205.933C188.702 205.389 188.432 204.89 188.009 204.54C187.585 204.19 187.041 204.018 186.492 204.06ZM187.975 206.514C187.862 206.678 187.717 206.818 187.549 206.925C187.38 207.032 187.192 207.105 186.995 207.139C187.181 207.032 187.337 206.879 187.447 206.696C187.557 206.512 187.618 206.303 187.623 206.09C187.628 205.806 187.52 205.532 187.322 205.328C187.212 205.222 187.082 205.139 186.939 205.083C186.797 205.028 186.645 205 186.492 205.003H186.335L185.794 205.066C185.997 204.921 186.242 204.846 186.492 204.853C186.758 204.853 187.02 204.914 187.258 205.033C187.496 205.151 187.703 205.322 187.862 205.534C187.977 205.668 188.049 205.832 188.069 206.007C188.089 206.181 188.056 206.358 187.975 206.514Z" fill="#6A5938"/>
<path d="M185.178 200.32C185.255 199.877 185.194 199.421 185.002 199.014C184.809 198.607 184.496 198.269 184.104 198.045C183.711 197.821 183.259 197.722 182.808 197.762C182.358 197.802 181.93 197.978 181.584 198.268C181.238 198.557 180.989 198.945 180.873 199.379C180.756 199.814 180.776 200.273 180.931 200.695C181.086 201.118 181.368 201.483 181.739 201.74C182.109 201.998 182.551 202.137 183.003 202.137C183.533 202.179 184.059 202.011 184.466 201.671C184.873 201.331 185.128 200.846 185.178 200.32ZM184.455 200.595C184.198 200.241 183.817 199.996 183.387 199.908C183.227 199.865 183.062 199.844 182.896 199.845C182.685 199.852 182.475 199.878 182.268 199.92C182.085 199.955 181.9 199.978 181.715 199.989C181.809 199.364 182.613 199.283 183.097 199.283C183.196 199.277 183.294 199.277 183.393 199.283C184.241 199.352 184.499 199.639 184.505 200.532L184.455 200.595Z" fill="#6A5938"/>
<path d="M162.436 203.636C162.158 203.636 161.883 203.698 161.631 203.817L161.493 203.892L161.399 203.854L161.462 203.904L161.386 203.96L161.298 204.023C161.242 204.061 161.189 204.105 161.141 204.154C161.112 204.177 161.085 204.202 161.059 204.229L160.927 204.391C160.907 204.415 160.888 204.44 160.871 204.466C160.813 204.549 160.763 204.637 160.72 204.728C160.636 204.915 160.593 205.117 160.593 205.322C160.593 205.526 160.636 205.728 160.72 205.915C160.85 206.173 161.052 206.388 161.301 206.535C161.551 206.683 161.838 206.756 162.128 206.745C162.342 206.748 162.554 206.714 162.757 206.645L162.952 206.564C163.356 206.379 163.68 206.056 163.863 205.653C163.948 205.466 163.993 205.264 163.993 205.059C163.993 204.855 163.948 204.652 163.863 204.466C163.732 204.205 163.528 203.987 163.274 203.839C163.021 203.692 162.729 203.621 162.436 203.636ZM162.618 206.133L162.034 206.389L162.524 205.984C162.632 205.915 162.724 205.824 162.791 205.716C162.859 205.608 162.9 205.486 162.914 205.359C162.914 205.003 162.505 204.697 162.109 204.397L161.839 204.185L161.613 204.004L161.707 203.948L162.405 204.229C162.933 204.16 163.297 204.36 163.385 204.76C163.425 205.044 163.373 205.333 163.235 205.585C163.096 205.837 162.88 206.038 162.618 206.158V206.133Z" fill="#6A5938"/>
<path d="M178.22 204.191C178.22 203.286 177.183 202.549 175.907 202.549C174.631 202.549 173.594 203.286 173.594 204.191C173.594 205.097 174.631 205.84 175.907 205.84C177.183 205.84 178.22 205.091 178.22 204.191ZM177.441 204.61C177.415 204.664 177.386 204.716 177.353 204.766C177.372 204.667 177.372 204.565 177.353 204.466C177.297 204.14 177.139 203.839 176.901 203.608C176.662 203.377 176.356 203.227 176.026 203.18C176.282 203.177 176.534 203.231 176.765 203.34C176.996 203.448 177.199 203.607 177.359 203.804C177.437 203.92 177.485 204.052 177.499 204.191C177.514 204.329 177.493 204.469 177.441 204.597V204.61Z" fill="#6A5938"/>
<path d="M193.306 215.194C193.836 215.236 194.361 215.068 194.768 214.728C195.175 214.388 195.431 213.903 195.481 213.377C195.476 212.997 195.338 212.63 195.091 212.34C194.868 212.089 194.593 211.89 194.285 211.755C193.977 211.62 193.643 211.554 193.306 211.56C192.958 211.553 192.613 211.624 192.297 211.769C191.982 211.914 191.703 212.129 191.483 212.396C191.261 212.676 191.139 213.021 191.137 213.377C191.187 213.902 191.442 214.386 191.847 214.726C192.253 215.066 192.777 215.234 193.306 215.194ZM193.727 212.153H194.016C194.262 212.159 194.502 212.221 194.72 212.334C195.016 212.515 195.129 212.84 195.129 213.427C194.869 213.077 194.489 212.834 194.06 212.746C193.898 212.701 193.731 212.678 193.564 212.677C193.352 212.684 193.142 212.709 192.935 212.752C192.753 212.791 192.568 212.814 192.382 212.821C192.398 212.721 192.436 212.626 192.493 212.543C192.551 212.46 192.627 212.39 192.715 212.34C193.032 212.198 193.379 212.133 193.727 212.153Z" fill="#6A5938"/>
<path d="M195.154 206.614L195.041 206.658L194.921 206.72L194.827 206.777L194.714 206.858L194.638 206.92L194.538 207.02L194.481 207.083C194.448 207.119 194.419 207.159 194.393 207.201L194.349 207.27C194.325 207.31 194.304 207.351 194.286 207.395V207.463C194.269 207.513 194.254 207.563 194.242 207.613V207.676C194.236 207.748 194.236 207.822 194.242 207.894C194.249 208.132 194.318 208.363 194.443 208.566C194.567 208.769 194.743 208.935 194.953 209.05C195.25 209.231 195.591 209.327 195.94 209.327C196.288 209.327 196.63 209.231 196.927 209.05C197.174 208.922 197.375 208.72 197.499 208.472C197.624 208.224 197.665 207.943 197.618 207.67V207.601C197.605 207.552 197.588 207.504 197.568 207.457C197.559 207.43 197.548 207.402 197.536 207.376C197.516 207.333 197.493 207.291 197.467 207.251L197.423 207.176C197.391 207.132 197.355 207.09 197.316 207.051C197.305 207.032 197.29 207.015 197.272 207.001C197.218 206.945 197.159 206.892 197.096 206.845L197.04 206.802L196.889 206.708L196.813 206.67C196.788 206.654 196.76 206.642 196.732 206.633H196.65L196.518 206.589L196.336 206.546H196.128H196.002C195.944 206.542 195.885 206.542 195.826 206.546H195.764H195.619H195.544H195.512H195.424H195.349H195.267L195.154 206.614ZM195.305 207.239L195.361 207.195C195.38 207.179 195.401 207.166 195.424 207.158H195.462H195.518H195.556H195.6L195.713 207.126C195.863 207.098 196.014 207.084 196.166 207.083H196.386C197.014 207.133 197.216 207.332 197.228 208.007C197.019 207.761 196.734 207.59 196.417 207.52C196.291 207.484 196.159 207.467 196.028 207.47C195.856 207.472 195.686 207.491 195.518 207.526C195.385 207.549 195.251 207.566 195.116 207.576C195.127 207.535 195.142 207.495 195.16 207.457C195.161 207.443 195.161 207.428 195.16 207.414L195.204 207.357C195.222 207.3 195.257 207.25 195.305 207.214V207.239Z" fill="#6A5938"/>
<path d="M194.073 203.155C194.14 203.161 194.207 203.161 194.274 203.155H194.324H194.387H194.456H194.519C194.564 203.14 194.609 203.121 194.651 203.099H194.695L194.846 202.999C194.846 202.999 194.846 202.999 194.877 202.967L194.972 202.868L195.009 202.818L195.072 202.724V202.668C195.089 202.631 195.104 202.594 195.116 202.555C195.119 202.539 195.119 202.522 195.116 202.505C195.122 202.447 195.122 202.389 195.116 202.331C195.122 202.281 195.122 202.23 195.116 202.181C195.12 202.164 195.12 202.147 195.116 202.131C195.113 202.112 195.113 202.093 195.116 202.074V202.037V201.993L195.078 201.918L195.034 201.862C195.019 201.838 195.002 201.815 194.984 201.794L194.928 201.737L194.871 201.681L194.802 201.637L194.733 201.587L194.664 201.55L194.582 201.513L194.5 201.481H194.437V201.444L194.4 201.413H194.368H194.324H194.286H194.242H194.192H194.117H194.066H193.218L193.362 201.843L193.274 201.918L193.218 201.981L193.155 202.074L193.111 202.143C193.094 202.18 193.079 202.217 193.067 202.256C193.068 202.276 193.068 202.297 193.067 202.318C193.06 202.382 193.06 202.447 193.067 202.512C193.148 202.708 193.288 202.876 193.468 202.991C193.648 203.106 193.859 203.163 194.073 203.155ZM194.217 201.575L194.349 201.644H194.4L194.469 201.675V201.587L194.638 201.619C194.728 201.673 194.805 201.745 194.865 201.829C194.926 201.914 194.968 202.01 194.99 202.112L194.902 202.262C194.779 202.112 194.609 202.009 194.418 201.968C194.092 201.875 193.84 202.012 193.545 202.006C193.563 201.694 193.915 201.587 194.217 201.575Z" fill="#6A5938"/>
<path d="M159.231 211.248C158.8 211.227 158.373 211.335 158.004 211.558C157.636 211.78 157.343 212.107 157.163 212.496C157.095 212.67 157.059 212.854 157.056 213.04C157.143 213.55 157.41 214.012 157.808 214.346C158.206 214.68 158.71 214.863 159.231 214.863C159.751 214.863 160.255 214.68 160.653 214.346C161.052 214.012 161.318 213.55 161.405 213.04C161.402 212.858 161.366 212.678 161.299 212.509C161.122 212.116 160.83 211.786 160.461 211.561C160.092 211.336 159.663 211.226 159.231 211.248ZM160.626 212.915L160.551 213.04C160.5 212.834 160.261 212.659 160.01 212.528C159.853 212.451 159.688 212.388 159.52 212.34C158.86 212.159 158.344 212.434 157.747 212.421C157.747 211.591 158.879 211.504 159.52 211.554C160.318 211.622 160.613 211.897 160.689 212.534C160.695 212.613 160.695 212.692 160.689 212.771L160.626 212.915Z" fill="#6A5938"/>
<path d="M164.24 200.407C164.506 200.422 164.771 200.358 165 200.222C165.229 200.086 165.411 199.884 165.524 199.644C165.636 199.404 165.673 199.136 165.631 198.874C165.588 198.613 165.468 198.37 165.285 198.177C165.102 197.985 164.865 197.851 164.604 197.793C164.344 197.736 164.072 197.757 163.824 197.855C163.576 197.953 163.364 198.122 163.214 198.341C163.064 198.56 162.983 198.819 162.983 199.084C162.974 199.424 163.102 199.755 163.337 200.002C163.573 200.25 163.897 200.396 164.24 200.407ZM163.781 198.315C164.818 198.128 165.403 199.127 164.523 199.789C164.621 199.658 164.679 199.502 164.691 199.339C164.703 199.176 164.668 199.013 164.59 198.869C164.513 198.725 164.395 198.606 164.252 198.525C164.109 198.445 163.945 198.407 163.781 198.415V198.315Z" fill="#6A5938"/>
<path d="M157.093 208.956C157.128 208.991 157.166 209.022 157.206 209.05H157.263L157.339 209.093H157.414H157.452L157.376 209.187L157.489 209.106H157.559C157.609 209.112 157.659 209.112 157.709 209.106C157.891 209.105 158.068 209.046 158.212 208.937C158.329 208.851 158.423 208.739 158.488 208.61C158.552 208.481 158.585 208.338 158.583 208.194C158.593 208.074 158.578 207.952 158.539 207.838C158.5 207.723 158.437 207.618 158.354 207.529C158.272 207.44 158.172 207.369 158.06 207.32C157.949 207.271 157.828 207.246 157.706 207.246C157.584 207.246 157.464 207.271 157.352 207.32C157.241 207.369 157.141 207.44 157.058 207.529C156.976 207.618 156.913 207.723 156.873 207.838C156.834 207.952 156.819 208.074 156.829 208.194C156.823 208.25 156.823 208.307 156.829 208.363C156.827 208.379 156.827 208.396 156.829 208.413C156.837 208.451 156.847 208.488 156.861 208.525V208.575C156.873 208.607 156.888 208.639 156.905 208.669C156.914 208.686 156.924 208.703 156.936 208.719C156.958 208.749 156.981 208.778 157.005 208.806L157.093 208.956ZM157.401 207.794C158.093 207.67 158.489 208.338 157.898 208.775C157.962 208.687 158 208.583 158.007 208.475C158.015 208.367 157.991 208.259 157.939 208.164C157.887 208.068 157.809 207.989 157.714 207.936C157.619 207.883 157.51 207.858 157.401 207.863V207.794Z" fill="#6A5938"/>
<path d="M151.467 206.065H151.562L151.53 206.115L151.58 206.065H151.643H151.694L151.876 206.021C152.151 205.942 152.39 205.772 152.555 205.54C152.63 205.437 152.681 205.318 152.703 205.193C152.724 205.067 152.717 204.938 152.68 204.816C152.608 204.63 152.477 204.471 152.308 204.364C152.138 204.258 151.938 204.208 151.738 204.223C151.599 204.221 151.461 204.243 151.329 204.285C151.063 204.342 150.83 204.5 150.68 204.725C150.53 204.95 150.474 205.225 150.524 205.49C150.599 205.674 150.731 205.828 150.901 205.932C151.07 206.035 151.269 206.082 151.467 206.065ZM151.983 205.509C152.247 205.047 151.694 204.604 151.084 204.828V204.766C151.895 204.348 152.592 204.816 152.002 205.484L151.983 205.509Z" fill="#6A5938"/>
<path d="M166.698 209.049C166.442 208.819 166.107 208.694 165.761 208.7C165.582 208.702 165.404 208.729 165.233 208.781C165.044 208.841 164.865 208.932 164.705 209.049C164.569 209.151 164.451 209.273 164.353 209.412C164.256 209.543 164.191 209.695 164.163 209.855C164.135 210.015 164.144 210.18 164.19 210.336C164.251 210.507 164.353 210.66 164.488 210.782C164.623 210.904 164.786 210.991 164.963 211.035C165.107 211.081 165.258 211.104 165.409 211.104C165.564 211.099 165.718 211.076 165.868 211.035H165.937C166.28 210.963 166.58 210.76 166.774 210.471C166.968 210.181 167.04 209.828 166.974 209.487C166.921 209.32 166.825 209.17 166.698 209.049ZM166.069 210.392C166.415 209.768 165.686 209.206 164.887 209.499V209.412C165.962 208.9 166.88 209.536 166.082 210.392H166.069Z" fill="#6A5938"/>
<path d="M179.508 209.455C178.251 209.455 177.233 210.155 177.07 211.054C177.053 211.136 177.042 211.22 177.038 211.304C177.047 211.539 177.108 211.769 177.217 211.979C177.326 212.188 177.479 212.371 177.667 212.515C178.192 212.933 178.848 213.154 179.521 213.14C180.209 213.157 180.88 212.924 181.407 212.484C181.593 212.343 181.746 212.163 181.854 211.957C181.963 211.751 182.025 211.524 182.035 211.291C182.031 211.216 182.021 211.14 182.004 211.066C181.803 210.167 180.772 209.455 179.508 209.455ZM179.439 210.136C179.767 210.139 180.089 210.227 180.372 210.391C180.655 210.556 180.891 210.79 181.055 211.073C181.085 211.129 181.11 211.187 181.13 211.247C181.187 211.43 181.186 211.625 181.127 211.807C181.069 211.989 180.956 212.149 180.803 212.265V212.184C180.931 211.827 180.946 211.439 180.847 211.073C180.795 210.936 180.716 210.811 180.615 210.704C180.353 210.447 180.007 210.292 179.64 210.267C179.482 210.246 179.326 210.208 179.175 210.155C179.263 210.141 179.351 210.135 179.439 210.136Z" fill="#6A5938"/>
<path d="M190.364 217.217L169.96 212.877V213.352L190.364 217.217Z" fill="#6A5938"/>
</svg>
