<svg width="172" height="148" viewBox="0 0 172 148" fill="none" xmlns="http://www.w3.org/2000/svg">
<g clip-path="url(#clip0_327_21)">
<path d="M79.945 60.4976C80.1078 60.8676 80.3666 61.1874 80.6948 61.4241L80.8408 61.5342L80.9187 58.0032C80.8181 58.1133 80.7207 58.2235 80.6266 58.3271C80.0521 59.0107 79.6464 59.7007 79.945 60.4976Z" fill="#6A5938"/>
<path d="M50.5888 58.3692C49.7157 57.4751 49.2061 56.0853 49.2516 54.3684C47.6645 63.0244 45.9313 74.3076 45.2822 85.1178C46.019 84.3921 46.733 83.7086 47.4211 83.0477C48.0507 74.5084 49.3132 65.7617 50.5888 58.3692Z" fill="#6A5938"/>
<path d="M116.815 57.9644L116.536 57.8542L116.679 64.2361L116.815 57.9644Z" fill="#6A5938"/>
<path d="M124.812 81.8654C124.942 81.995 125.075 82.1246 125.205 82.2477L126.951 83.6763C126.318 74.4664 124.945 65.0135 123.585 57.2161C123.349 58.5623 123.203 59.9226 123.147 61.2881C123.147 61.1326 122.744 60.8281 122.089 60.4458C123.179 67.0123 124.218 74.4859 124.812 81.8654Z" fill="#6A5938"/>
<path d="M51.4457 50.0179C51.7119 49.8008 51.9878 49.5838 52.2669 49.37C52.8056 46.665 53.2892 44.4103 53.656 42.7581H57.158L57.3462 46.1564C58.189 45.7563 59.0655 45.4311 59.9654 45.1845L60.0985 42.7549H68.3293L68.5565 46.6067L68.9849 46.8626L69.2283 42.7614H80.2633L80.4418 50.6852C80.6723 50.7403 80.8832 50.7986 81.0682 50.8601L81.25 42.7614H98.3997L99.3539 49.2955C99.7109 49.0687 100.074 48.8527 100.444 48.6476L101.317 42.7614H111.648L111.84 45.6769C112.015 45.6769 112.193 45.6769 112.372 45.7028L112.563 42.7549H116.192L116.27 46.3183C116.533 46.3864 116.796 46.4609 117.055 46.5419L117.166 42.7614H118.685C118.967 44.0572 119.334 45.6769 119.717 47.6206C120.611 48.079 121.428 48.6747 122.138 49.3862C121.372 45.5214 120.713 42.5378 120.333 40.876H52.0072C51.5431 42.9136 50.6571 46.9339 49.6704 52.13C50.0963 51.3022 50.703 50.5804 51.4457 50.0179Z" fill="#6A5938"/>
<path d="M59.3421 56.4353C58.8499 56.6652 58.3859 56.951 57.9595 57.2873L58.5339 67.6537L58.7579 67.0058L59.3421 56.4353Z" fill="#6A5938"/>
<path d="M82.5708 139.947C84.2325 140.53 85.4918 140.918 86.1604 141.113C86.8096 140.918 88.0623 140.536 89.6949 139.963C87.3294 139.672 84.9376 139.667 82.5708 139.947Z" fill="#6A5938"/>
<path d="M118.113 119.703L117.886 116.366L117.516 116.742L117.244 120.727C114.905 123.342 112.283 125.69 109.425 127.727L109.188 119.515L108.727 119.615L108.474 128.404C106.991 129.434 105.482 130.387 103.982 131.265C103.95 132.01 103.95 132.777 103.95 133.532C110.853 129.645 118.091 124.203 122.492 116.972L121.32 115.009C120.393 116.665 119.32 118.236 118.113 119.703Z" fill="#6A5938"/>
<path d="M67.0049 121.919L66.8329 121.828L66.4597 130.137C61.6108 127.099 56.843 123.266 53.328 118.579L53.2826 117.377L50.7607 118.423C55.0806 124.76 61.5491 129.642 67.8131 133.231C67.833 132.513 67.91 131.798 68.0435 131.093C67.8293 130.963 67.6151 130.844 67.3944 130.714L67.0049 121.919Z" fill="#6A5938"/>
<path d="M134.211 98.8373C140.651 97.2434 152.63 93.7577 161.315 88.1469C173.746 80.1032 171.902 68.7844 171.902 68.7844C159.478 78.0137 141.933 84.8977 134.254 87.6642C134.254 87.5249 134.254 87.3889 134.237 87.2496C141.53 83.8092 157.281 75.7331 164.843 66.9249C174.862 55.2335 169.845 44.7051 169.845 44.7051C155.759 61.8745 139.635 71.5023 133.277 74.8811C133.251 74.6349 133.225 74.3887 133.196 74.1425C139.524 69.0435 155.266 55.7583 161.87 44.7051C170.231 30.7137 161.87 18.0051 161.87 18.0051C152.672 34.9413 141.712 49.4283 131.44 61.0906C129.447 48.5245 127.133 38.8708 126.896 37.9249L126 34.2351H119.064L118.074 37.4325L117.081 34.2351H92.9957L91.9993 37.6074L90.9996 34.2351H74.71L73.7363 36.0719L72.7626 34.2351H47.447L48.5116 36.0103L46.2105 34.8117L45.4543 37.9249C45.2238 38.8773 42.8578 48.6833 40.8682 61.4016C30.518 49.7005 19.4473 35.0903 10.165 17.9922C10.165 17.9922 1.80431 30.7008 10.165 44.6922C16.8703 55.9203 33.0139 69.455 39.1318 74.3661C39.1091 74.5863 39.0832 74.8066 39.0604 75.0302C32.9263 71.7906 16.5036 62.1466 2.19054 44.6922C2.19054 44.6922 -2.82715 55.2206 7.20497 66.9022C14.884 75.8433 30.9951 84.0295 38.129 87.3759C38.129 87.5022 38.129 87.6286 38.129 87.7582C30.6122 85.0694 12.7452 78.1206 0.155551 68.7617C0.155551 68.7617 -1.68794 80.0805 10.7427 88.1242C19.5739 93.8387 31.813 97.3503 38.1679 98.9053C38.1679 99.0349 38.1679 99.1677 38.1906 99.3005C30.6414 98.2153 14.5205 95.4455 3.78737 90.3498C3.78737 90.3498 5.58542 100.791 17.2468 104.986C25.1076 107.811 34.2472 108.734 39.372 109.032L39.4402 109.356C33.2314 109.602 21.0442 109.858 12.7874 108.566C12.7874 108.566 16.9028 116.097 26.9349 118.151C31.6475 119.123 37.561 118.757 42.5137 118.109C42.663 118.404 42.8123 118.699 42.9746 118.987C43.0882 119.191 43.2083 119.392 43.3316 119.593C37.9991 121.193 30.9432 122.774 23.8581 122.774C23.8581 122.774 26.9447 127.222 35.1787 127.653C39.4272 127.873 44.7467 126.794 48.9011 125.709L48.3461 126.454L48.3688 126.48C48.5441 126.674 48.7226 126.862 48.9011 127.053C45.1427 128.777 40.4009 130.678 36.2043 131.514C36.2043 131.514 41.6926 136.309 51.8124 133.134C52.6432 132.875 53.5098 132.557 54.4088 132.204C54.5159 132.292 54.6198 132.382 54.7334 132.467C60.0886 136.801 65.9891 140.099 71.1496 142.49L73.0969 141.375L72.0876 142.92C76.2154 144.805 80.4804 146.374 84.846 147.615L86.2286 147.981L87.6145 147.615C88.5654 147.362 104.771 142.963 117.74 132.47L117.954 132.295C118.759 132.619 119.551 132.897 120.311 133.134C130.43 136.302 135.915 131.514 135.915 131.514C131.81 130.695 127.175 128.855 123.459 127.16L124.075 126.48L124.465 126.03C128.402 127.002 133.111 127.863 136.947 127.666C145.178 127.235 148.265 122.787 148.265 122.787C141.284 122.787 134.351 121.258 129.051 119.687C129.184 119.457 129.32 119.23 129.447 118.997C129.573 118.763 129.745 118.44 129.892 118.161C134.786 118.786 140.56 119.11 145.178 118.161C155.21 116.107 159.326 108.575 159.326 108.575C151.212 109.845 139.294 109.622 132.994 109.379C133.02 109.259 133.043 109.132 133.069 109.009C138.262 108.685 147.168 107.749 154.866 104.983C166.528 100.787 168.326 90.3465 168.326 90.3465C157.755 95.3742 141.933 98.1213 134.247 99.2519C134.198 99.1288 134.205 98.9798 134.211 98.8373ZM161.091 66.7662C160.468 67.3946 159.589 68.3114 158.449 69.3221C157.31 70.3329 155.983 71.5153 154.477 72.6847C152.971 73.8542 151.312 75.0301 149.625 76.1672C147.937 77.3043 146.158 78.2988 144.493 79.2221C142.828 80.1453 141.209 80.8937 139.823 81.5221C138.437 82.1506 137.246 82.6074 136.418 82.9313L135.12 83.4043L136.357 82.7564C137.152 82.3644 138.265 81.7618 139.602 81.0491C140.94 80.3365 142.465 79.4456 144.107 78.5126C145.749 77.5796 147.447 76.4977 149.125 75.3833C150.803 74.2689 152.478 73.148 153.993 72.0304C155.509 70.9127 156.944 69.8761 158.115 68.9204C159.287 67.9648 160.303 67.2035 160.978 66.6301L162.059 65.7522L161.091 66.7662ZM164.736 58.9201C164.269 59.4449 163.688 60.0604 163.01 60.7634C162.331 61.4663 161.572 62.2568 160.692 63.0731C158.962 64.7415 156.869 66.6074 154.526 68.4928C152.182 70.3782 149.576 72.2409 146.908 74.0097C144.198 75.7267 141.423 77.3334 138.762 78.7361C137.055 79.6108 135.403 80.3948 133.851 81.0848C133.835 80.8548 133.815 80.6248 133.796 80.3948C135.243 79.6691 136.775 78.8625 138.379 78.017C140.998 76.5916 143.731 74.9589 146.392 73.2225C149.053 71.4861 151.66 69.6591 154.026 67.8417C156.392 66.0243 158.57 64.2782 160.332 62.6747C161.234 61.8907 162.049 61.1586 162.763 60.4977C163.477 59.8369 164.113 59.2797 164.603 58.784L166.197 57.2712L164.736 58.9201ZM135.169 76.4523C136.22 75.8044 137.765 74.9168 139.541 73.7668L142.432 71.9429L145.603 69.8178C146.72 69.1116 147.804 68.279 148.95 67.4918C150.095 66.7046 151.222 65.8526 152.335 65.0006C153.448 64.1487 154.558 63.2772 155.642 62.409C156.726 61.5408 157.745 60.6403 158.758 59.7915C159.77 58.9428 160.705 58.0746 161.565 57.2291C162.425 56.3836 163.259 55.6093 163.98 54.8221C164.7 54.0349 165.356 53.3384 165.927 52.7035C166.499 52.0685 166.976 51.4822 167.352 50.993C168.118 50.0212 168.511 49.4283 168.511 49.4283C168.219 50.0121 167.893 50.5788 167.537 51.1258C167.213 51.6539 166.774 52.2726 166.268 52.9788C165.762 53.6851 165.178 54.469 164.47 55.2692C163.762 56.0693 163.013 56.9505 162.172 57.8413C161.332 58.7322 160.413 59.6425 159.452 60.5722C158.449 61.4501 157.466 62.4252 156.369 63.2967C155.272 64.1681 154.194 65.1076 153.046 65.9498C151.897 66.7921 150.774 67.657 149.602 68.4313C148.43 69.2055 147.311 70.0057 146.168 70.6989C145.026 71.3922 143.935 72.0757 142.877 72.6847L139.885 74.3337C138.963 74.8649 138.087 75.3055 137.288 75.6651L135.273 76.6369L133.53 77.4533L135.169 76.4523ZM160.215 39.6515C159.79 40.4873 159.202 41.6924 158.391 43.0822C157.58 44.4719 156.632 46.0917 155.512 47.76C154.392 49.4283 153.127 51.168 151.825 52.8752C150.524 54.5824 149.089 56.1827 147.742 57.6794C146.395 59.176 145.048 60.488 143.887 61.5992C142.725 62.7103 141.702 63.5785 140.995 64.1908L139.859 65.1302L140.858 64.045C141.507 63.3777 142.413 62.3864 143.5 61.2137C144.588 60.041 145.801 58.6221 147.119 57.1254C148.437 55.6288 149.771 53.9636 151.072 52.2661C152.374 50.5686 153.669 48.8971 154.827 47.2676C155.986 45.6381 157.067 44.122 157.93 42.7744C158.794 41.4268 159.553 40.3286 160.046 39.5349L160.845 38.2974L160.215 39.6515ZM162.487 29.4309C162.487 29.4309 162.007 30.3639 161.169 31.9998C160.751 32.8194 160.215 33.7977 159.589 34.9154C158.962 36.033 158.258 37.2964 157.427 38.6376C155.804 41.3425 153.795 44.4298 151.507 47.6466C149.219 50.8634 146.593 54.1613 143.88 57.3813C141.105 60.5528 138.216 63.6239 135.409 66.3969C133.832 67.9292 132.29 69.3513 130.807 70.673L131.696 69.2217L132.186 68.4216C133.049 67.5793 133.929 66.7111 134.835 65.83C137.6 63.0407 140.436 59.96 143.163 56.782C145.889 53.6041 148.508 50.3322 150.845 47.1769C153.182 44.0216 155.295 41.0218 156.976 38.3654C157.843 37.0502 158.599 35.8321 159.284 34.7437C159.968 33.6552 160.556 32.719 161.007 31.9188L162.487 29.4309ZM132.553 63.1703C133.481 62.1758 134.5 61.1294 135.523 59.9308L138.749 56.2507C139.836 54.9549 140.988 53.6267 142.101 52.237C143.215 50.8472 144.347 49.4348 145.418 47.977C146.489 46.5193 147.632 45.1133 148.648 43.6523C149.664 42.1913 150.699 40.7756 151.634 39.36C153.532 36.5513 155.262 33.8917 156.651 31.5592C158.041 29.2268 159.183 27.2669 159.936 25.8707C160.689 24.4744 161.101 23.6613 161.101 23.6613C161.101 23.6613 160.777 24.5165 160.144 25.9711C159.511 27.4256 158.547 29.4957 157.223 31.8897C156.574 33.0948 155.843 34.3776 155.068 35.7382C154.292 37.0988 153.445 38.5177 152.491 39.9301C151.536 41.3425 150.582 42.8457 149.547 44.297C148.511 45.7483 147.434 47.2125 146.356 48.6995C145.279 50.1864 144.084 51.5437 142.955 52.9432C141.826 54.3427 140.631 55.6385 139.521 56.9343C138.411 58.2301 137.227 59.3898 136.152 60.5269C135.078 61.664 133.997 62.6747 133.02 63.6303L131.972 64.6443C131.933 64.3884 131.897 64.1292 131.858 63.8765C132.095 63.6595 132.316 63.4198 132.553 63.1703ZM12.0636 25.8901C12.8166 27.2863 13.9558 29.2495 15.3482 31.5787C16.7405 33.9079 18.4672 36.5707 20.3658 39.3794C21.3006 40.7951 22.3132 42.2334 23.3518 43.6717C24.3904 45.1101 25.4939 46.5517 26.5974 47.9965C27.7009 49.4413 28.8238 50.8472 29.9144 52.2564C31.0049 53.6656 32.1863 54.9647 33.2671 56.2702L36.4932 59.9503C37.4993 61.1359 38.5347 62.1823 39.4629 63.1898C39.7874 63.5364 40.112 63.8765 40.4366 64.2102L40.3295 64.9488C39.901 64.5406 39.4596 64.1098 38.9955 63.653C38.0219 62.6974 36.9313 61.7093 35.8635 60.5496C34.7957 59.3898 33.6111 58.2495 32.4946 56.957C31.3781 55.6644 30.1837 54.3459 29.0316 52.9626C27.8794 51.5794 26.724 50.1767 25.6302 48.7189C24.5364 47.2611 23.4427 45.8033 22.4398 44.3164C21.4369 42.8295 20.4178 41.4009 19.496 39.9496C18.5743 38.4983 17.7272 37.0955 16.919 35.7576C16.1109 34.4197 15.4066 33.1142 14.764 31.9091C13.4657 29.5151 12.5245 27.4321 11.8429 25.9905C11.1613 24.5489 10.8692 23.6808 10.8692 23.6808C10.8692 23.6808 11.3106 24.4939 12.0636 25.8901ZM31.0795 64.1778C30.372 63.5623 29.3431 62.7038 28.1877 61.5862C27.0323 60.4686 25.6886 59.1501 24.3417 57.6632C22.9948 56.1762 21.6057 54.5306 20.2587 52.859C18.9118 51.1874 17.6947 49.4089 16.5523 47.7438C15.4098 46.0787 14.4751 44.4589 13.6734 43.066C12.8718 41.673 12.2746 40.4744 11.8494 39.6353L11.2003 38.3104L12.0084 39.5479C12.5018 40.3415 13.2483 41.4494 14.1278 42.7874C15.0074 44.1253 16.0752 45.6414 17.2274 47.2806C18.3795 48.9197 19.6583 50.614 20.9825 52.2791C22.3067 53.9442 23.6309 55.6126 24.9356 57.1384C26.2404 58.6642 27.4542 60.0539 28.5577 61.2266C29.6612 62.3993 30.5408 63.3906 31.1964 64.058L32.2155 65.114L31.0795 64.1778ZM36.6684 66.3807C33.861 63.6077 30.9757 60.5496 28.1974 57.3651C25.4874 54.1451 22.8877 50.8246 20.5703 47.6304C18.253 44.4363 16.2732 41.3263 14.6536 38.6214C13.8195 37.2802 13.1055 36.0298 12.492 34.8992C11.8786 33.7686 11.3301 32.8032 10.9114 31.9836L9.59048 29.4147L11.0705 31.8929C11.5216 32.6931 12.1123 33.639 12.7971 34.7178C13.4819 35.7965 14.2349 37.0243 15.1015 38.3395C16.7827 40.9959 18.9313 43.9698 21.2324 47.151C23.5335 50.3322 26.1852 53.5781 28.9147 56.7561C31.6443 59.9341 34.4809 63.0148 37.2462 65.804C38.1257 66.6722 38.9825 67.5177 39.8264 68.3406C39.8264 68.4021 39.8069 68.4669 39.8004 68.5285C39.768 68.7649 39.7388 69.0047 39.7096 69.2444C38.7142 68.3352 37.7027 67.3806 36.6749 66.3807H36.6684ZM4.44947 51.1161C4.09308 50.5691 3.768 50.0023 3.47579 49.4186C3.47579 49.4186 3.86851 50.0115 4.63446 50.9833C5.01095 51.4725 5.49455 52.0459 6.05928 52.6938C6.62401 53.3417 7.27962 54.0544 8.00663 54.8124C8.73365 55.5704 9.5418 56.39 10.4214 57.2194C11.3009 58.0487 12.2648 58.8845 13.2288 59.7818C14.2414 60.6306 15.2573 61.5408 16.3446 62.3993C17.4318 63.2578 18.5094 64.1648 19.6518 64.9909C20.7943 65.817 21.888 66.7046 23.037 67.4821C24.1859 68.2596 25.2667 69.1019 26.3832 69.8081L29.5671 71.917L32.4589 73.7408C34.244 74.8909 35.7791 75.772 36.8307 76.4264L38.486 77.4598L36.7204 76.6305L34.7049 75.6586C33.9194 75.2926 33.0431 74.8585 32.1084 74.3272L29.0965 72.6653C28.0384 72.0563 26.9382 71.3695 25.8055 70.6795C24.6727 69.9895 23.5335 69.2088 22.3716 68.4118C21.2097 67.6149 20.0672 66.7921 18.928 65.9304C17.7888 65.0687 16.6918 64.1616 15.6046 63.2772C14.5173 62.3928 13.5241 61.4307 12.5212 60.5528C11.5476 59.6231 10.6291 58.7257 9.80145 57.8219C8.97382 56.9181 8.17865 56.0726 7.50357 55.2497C6.82848 54.4269 6.22156 53.6527 5.70551 52.9594C5.18946 52.2661 4.78052 51.6442 4.44947 51.1161ZM35.6558 82.9313C34.8282 82.6074 33.6371 82.1668 32.2544 81.5286C30.8718 80.8904 29.2555 80.1389 27.5808 79.2285C25.9061 78.3182 24.1664 77.2654 22.4495 76.1737C20.7326 75.082 19.113 73.8477 17.6006 72.6912C16.0882 71.5347 14.7542 70.3329 13.6312 69.3254C12.5083 68.3179 11.6157 67.3817 10.9893 66.7694L10.0157 65.7555L11.0964 66.6334C11.7748 67.2067 12.7744 67.981 13.959 68.9237C15.1437 69.8664 16.5717 70.903 18.0809 72.0336C19.5901 73.1642 21.2649 74.3013 22.9493 75.3865C24.6338 76.4717 26.3377 77.5634 27.9703 78.5159C29.6028 79.4683 31.1574 80.3397 32.4881 81.0394C33.8188 81.7392 34.9353 82.3547 35.7337 82.7467L36.9703 83.3945L35.6558 82.9313ZM33.3125 78.7523C30.6544 77.3496 27.8761 75.7428 25.1693 74.0259C22.5014 72.2442 19.905 70.362 17.5454 68.4993C15.1859 66.6366 13.1119 64.748 11.3788 63.0796C10.4992 62.2633 9.7268 61.4761 9.0582 60.7698C8.38961 60.0636 7.79892 59.4514 7.33155 58.9266L5.87428 57.2874L7.46462 58.8002C7.9547 59.2959 8.58435 59.866 9.30487 60.5139C10.0254 61.1618 10.8335 61.9069 11.7358 62.6909C13.5079 64.2912 15.7019 66.0114 18.0452 67.8579C20.3886 69.7044 23.0142 71.4926 25.6821 73.2128C28.35 74.933 31.0763 76.5819 33.6955 78.0073C35.3864 78.8981 36.9995 79.7501 38.5152 80.5017C38.5152 80.7284 38.4795 80.9552 38.4632 81.1787C36.8405 80.4758 35.1073 79.6562 33.3125 78.7361V78.7523ZM4.3164 74.933C3.41737 74.2786 2.92079 73.8607 2.92079 73.8607L4.43648 74.7256C5.41016 75.2796 6.79278 76.0214 8.46102 76.9285C10.1292 77.8356 12.1058 78.8301 14.2187 79.8926C16.3316 80.9552 18.6067 82.0534 20.9176 83.0738C23.2284 84.0943 25.5296 85.118 27.7333 86.025C28.8238 86.4883 29.8916 86.8932 30.8978 87.3208C31.9039 87.7484 32.8679 88.0918 33.7604 88.4093L36.1881 89.3131L38.077 89.961L39.6998 90.5539L38.0056 90.1846C36.9248 89.9319 35.3637 89.6014 33.5397 89.041C32.6212 88.7786 31.6313 88.4838 30.5959 88.1307C29.5606 87.7776 28.4506 87.4569 27.3503 87.0131C26.2501 86.5693 25.0784 86.187 23.9198 85.6784C22.7611 85.1698 21.5894 84.7065 20.434 84.172C18.1166 83.1192 15.8415 81.9724 13.7481 80.8289C11.6547 79.6853 9.73653 78.5321 8.11374 77.5213C6.49094 76.5106 5.22516 75.5711 4.3164 74.933ZM9.41197 95.4455C8.57786 95.0697 8.11374 94.8203 8.11374 94.8203L9.48662 95.2414C10.3532 95.5135 11.619 95.8181 13.1152 96.2327C14.6114 96.6474 16.3835 97.0426 18.2724 97.4864C20.1614 97.9302 22.1671 98.3773 24.2151 98.7822C26.2631 99.1871 28.2753 99.5953 30.1805 99.9679C32.0857 100.34 33.8707 100.687 35.4091 100.94L38.2783 101.465L38.3075 101.808C37.4896 101.772 36.4705 101.737 35.3183 101.607C33.7604 101.461 31.9429 101.283 30.0085 101.011C28.0741 100.739 26.0164 100.363 23.9684 99.9581C21.9205 99.5532 19.8952 99.0284 18.0095 98.4809C16.1239 97.9334 14.394 97.3568 12.914 96.845C11.434 96.3331 10.2428 95.8116 9.41197 95.4455ZM34.4322 106.625C33.9032 106.625 33.134 106.657 32.2317 106.599C31.3294 106.541 30.2616 106.479 29.1322 106.314C28.0027 106.149 26.8083 105.932 25.6172 105.682C24.4391 105.384 23.2706 105.054 22.1834 104.71C21.0961 104.367 20.1127 103.956 19.2623 103.606C18.412 103.256 17.7466 102.9 17.2728 102.666L16.5523 102.271L17.3539 102.498C17.857 102.66 18.5905 102.848 19.4538 103.107C20.3172 103.366 21.3395 103.619 22.4171 103.93C23.4946 104.241 24.663 104.513 25.8314 104.766C26.9998 105.018 28.1617 105.307 29.2685 105.511C30.3752 105.715 31.3976 105.942 32.2901 106.074C33.1827 106.207 33.9129 106.369 34.4452 106.444L35.2663 106.593L34.4322 106.625ZM36.8048 104.594C35.2956 104.5 33.6922 104.361 32.0889 104.179C30.4921 103.946 28.905 103.674 27.425 103.379C25.945 103.084 24.5754 102.692 23.4134 102.368C22.2515 102.044 21.3006 101.701 20.6352 101.477L19.5966 101.095L20.6839 101.303C21.3687 101.452 22.3586 101.626 23.5368 101.853C24.7149 102.08 26.0976 102.297 27.5678 102.563C29.0381 102.828 30.6219 103.045 32.2025 103.233C33.7831 103.421 35.367 103.635 36.8567 103.768C37.4312 103.813 37.9829 103.865 38.5217 103.917C38.5509 104.16 38.5768 104.399 38.6061 104.642C38.0251 104.636 37.4214 104.636 36.7983 104.594H36.8048ZM26.2241 112.271C24.7117 112.191 23.3031 112.08 22.0957 111.948C20.8884 111.815 19.892 111.624 19.1942 111.526C18.4964 111.429 18.1004 111.303 18.1004 111.303L30.9562 111.183L35.672 111.167L39.7907 111.186H39.8167L39.9919 111.854L39.8232 111.873C36.8812 112.191 33.925 112.361 30.9659 112.382C29.3496 112.372 27.7366 112.349 26.2241 112.271ZM29.3724 114.623L30.2616 114.536L32.5985 114.329C33.5721 114.27 34.6886 114.128 35.8927 114.04C37.0969 113.953 38.3789 113.813 39.6576 113.661L40.5145 113.577C40.6151 113.875 40.7189 114.167 40.839 114.458L39.7712 114.597C38.473 114.708 37.1748 114.795 35.9609 114.857C34.7471 114.918 33.6046 114.876 32.6309 114.857C31.6572 114.837 30.8426 114.753 30.2779 114.714L29.3724 114.623ZM41.5433 116.742C40.5924 116.865 39.57 116.972 38.5476 117.047C37.522 117.072 36.4964 117.069 35.5357 117.047C34.575 117.024 33.6825 116.888 32.9393 116.791C32.196 116.693 31.5501 116.541 31.112 116.467L30.4304 116.298H31.1347H32.975C33.7344 116.318 34.6205 116.263 35.5714 116.266C36.5224 116.269 37.5188 116.217 38.5249 116.152C39.531 116.088 40.4917 116.062 41.4167 115.981C41.5076 116.191 41.5952 116.405 41.6894 116.609L41.7608 116.755L41.5433 116.742ZM36.4542 123.765C35.2041 123.972 33.9443 124.114 32.6796 124.193C31.5729 124.267 30.6414 124.241 29.9955 124.238C29.3496 124.235 28.9796 124.173 28.9796 124.173L29.9793 124.008C30.6284 123.908 31.5177 123.72 32.5758 123.513C34.7308 123.088 37.5804 122.456 40.3976 121.721C41.6082 121.42 42.8026 121.073 43.9515 120.749C44.0586 120.931 44.169 121.112 44.2761 121.287C44.3832 121.462 44.4579 121.559 44.552 121.692C43.3284 122.123 42.0172 122.518 40.6897 122.874C39.2876 123.231 37.8433 123.561 36.4672 123.765H36.4542ZM45.1557 124.303C44.3865 124.507 43.6465 124.627 43.0168 124.737C42.3872 124.847 41.8549 124.889 41.4849 124.935L40.8974 124.974L41.4427 124.757C41.7932 124.637 42.2866 124.433 42.887 124.225C43.4874 124.018 44.1852 123.749 44.9285 123.519L45.6912 123.266L46.0157 123.694C46.0936 123.798 46.178 123.898 46.2592 124.002L45.1557 124.303ZM48.5213 130.021C47.5477 130.409 46.574 130.759 45.6555 131.031C44.8087 131.282 43.9497 131.49 43.0817 131.653C42.2351 131.831 41.3754 131.939 40.5112 131.977L42.8902 131.006C44.3118 130.439 46.2007 129.71 48.0605 128.926C48.5311 128.735 48.9984 128.55 49.4496 128.343C49.5924 128.278 49.7319 128.223 49.8715 128.161C49.9494 128.242 50.0273 128.326 50.1052 128.404C50.3064 128.605 50.5044 128.809 50.7056 129.007C50.024 129.363 49.284 129.7 48.5343 130.021H48.5213ZM123.449 131.987C123.124 131.942 122.654 131.909 122.105 131.786C121.479 131.662 120.859 131.507 120.249 131.32L119.402 131.022L119.95 130.533C120.005 130.484 120.057 130.429 120.116 130.38L120.528 130.552C121.177 130.795 121.745 131.083 122.261 131.278L123.494 131.809L123.962 132.026L123.449 131.987ZM123.913 128.916C125.773 129.7 127.662 130.429 129.083 130.996L131.462 131.968C130.598 131.929 129.739 131.821 128.892 131.644C128.024 131.481 127.165 131.273 126.318 131.022C125.387 130.75 124.413 130.4 123.452 130.011C122.777 129.723 122.112 129.421 121.479 129.097C121.719 128.867 121.956 128.637 122.19 128.404L122.329 128.258L122.511 128.336C122.988 128.54 123.456 128.725 123.926 128.932L123.913 128.916ZM136.315 111.157L141.03 111.173L153.883 111.293C153.883 111.293 153.49 111.394 152.792 111.517C152.095 111.64 151.098 111.808 149.891 111.938C148.683 112.067 147.275 112.191 145.762 112.262C144.25 112.333 142.637 112.362 141.021 112.362C137.856 112.333 134.698 112.142 132.309 111.87C132.374 111.637 132.433 111.403 132.494 111.164L136.315 111.157ZM133.718 104.652C133.747 104.406 133.776 104.157 133.802 103.907C134.263 103.862 134.731 103.82 135.218 103.781C136.707 103.648 138.291 103.457 139.872 103.246C141.452 103.036 143.033 102.828 144.506 102.576C145.98 102.323 147.366 102.112 148.537 101.866C149.709 101.62 150.705 101.465 151.39 101.315L152.478 101.108L151.439 101.49C150.774 101.714 149.816 102.064 148.661 102.381C147.505 102.699 146.139 103.078 144.659 103.379C143.179 103.68 141.589 103.946 139.992 104.179C138.392 104.361 136.785 104.503 135.276 104.594C134.744 104.636 134.221 104.636 133.718 104.652ZM154.795 102.666C154.321 102.9 153.649 103.262 152.809 103.606C151.968 103.949 150.985 104.364 149.888 104.71C148.791 105.057 147.616 105.384 146.454 105.682C145.263 105.932 144.065 106.146 142.939 106.314C141.813 106.482 140.748 106.541 139.839 106.599C138.93 106.657 138.168 106.628 137.639 106.625L136.805 106.593L137.626 106.444C138.148 106.369 138.892 106.217 139.781 106.074C140.67 105.932 141.699 105.705 142.806 105.511C143.912 105.316 145.078 105.051 146.24 104.766C147.401 104.48 148.573 104.228 149.654 103.93C150.735 103.632 151.76 103.379 152.617 103.107C153.474 102.835 154.214 102.66 154.717 102.498L155.519 102.271L154.795 102.666ZM136.59 100.927C138.129 100.677 139.907 100.305 141.819 99.9549C143.731 99.605 145.762 99.2001 147.784 98.7692C149.806 98.3384 151.835 97.9043 153.727 97.4734C155.619 97.0426 157.385 96.6247 158.884 96.2197C160.384 95.8148 161.646 95.5006 162.513 95.2285L163.902 94.8203C163.902 94.8203 163.444 95.0697 162.604 95.4455C161.763 95.8213 160.572 96.3396 159.095 96.8579C157.619 97.3763 155.885 97.9691 153.997 98.4939C152.108 99.0187 150.082 99.5078 148.041 99.9452C145.999 100.383 143.938 100.723 142.001 100.998C140.063 101.273 138.246 101.448 136.691 101.594C135.682 101.707 134.779 101.746 134.02 101.779C134.02 101.649 134.043 101.523 134.052 101.39L136.59 100.927ZM131.67 101.844V101.876L131.55 102.524L131.261 104.105L131.164 104.642H131.122C131.083 104.921 131.04 105.2 130.998 105.478L130.401 108.766C130.372 108.893 130.349 109.019 130.32 109.145L130.297 109.272L129.943 111.215L129.882 111.539L129.557 113.331L129.405 114.167L129.113 115.786L129.038 116.201L128.746 116.395L127.448 117.251L124.001 119.518C124.001 119.518 123.858 119.275 123.624 118.89C118.727 126.37 111.035 131.909 103.888 135.784C103.716 138.599 102.956 141.067 99.5258 141.968C97.5362 142.49 95.498 141.544 93.5539 140.867C93.4078 140.815 93.2618 140.773 93.1157 140.724C88.9549 142.324 86.1507 143.066 86.1507 143.066C83.4944 142.313 80.8801 141.418 78.3191 140.387C73.6195 140.711 69.1698 139.739 68.063 135.589C62.3443 132.454 56.3107 128.252 51.6663 122.845L51.504 122.661C50.566 121.562 49.6904 120.411 48.8816 119.214L48.0897 119.538L44.9025 113.554C44.711 111.834 44.5098 110.114 44.3215 108.391C44.2307 107.552 44.1398 106.713 44.0586 105.87C43.9613 104.84 43.7016 101.623 43.1564 99.2617C42.8513 97.9399 42.4586 96.8871 41.9555 96.6344C41.368 96.3409 40.7607 96.0887 40.138 95.8796C39.4346 95.6436 38.7141 95.4617 37.9829 95.3354C37.9829 95.3937 37.9829 95.452 37.9829 95.5135C37.9829 95.6399 37.9829 95.763 37.9829 95.8926C37.9829 96.0221 37.9829 96.2424 37.9829 96.4174L37.694 96.3623C36.6035 96.1517 35.3313 95.9088 33.9876 95.5524C32.6439 95.1961 31.2288 94.7749 29.817 94.3246C28.4052 93.8744 27.0388 93.2977 25.7568 92.7697C24.4748 92.2416 23.3128 91.6585 22.3229 91.1499C21.333 90.6413 20.5346 90.1781 19.9699 89.8541L19.1487 89.3423L20.0965 89.7051C20.6936 89.9546 21.5602 90.2655 22.5858 90.677C23.6114 91.0884 24.822 91.5095 26.104 92.0084C27.3861 92.5073 28.7719 92.9802 30.1643 93.4305C31.5566 93.8808 32.9393 94.37 34.257 94.7652L34.8671 94.9499C34.8468 94.5605 34.9147 94.1715 35.0659 93.812C35.2171 93.4525 35.4475 93.1316 35.7402 92.8733C34.8509 92.6563 33.9292 92.4133 32.9879 92.1477C30.6836 91.4706 28.2526 90.6705 25.8476 89.7893C23.4686 88.8466 21.1188 87.8294 18.954 86.8025C16.7892 85.7756 14.8321 84.6774 13.1801 83.712C11.5281 82.7467 10.1909 81.8655 9.25943 81.25L7.81514 80.2555L9.3568 81.0945C10.3305 81.642 11.7391 82.3903 13.4333 83.2455C15.1275 84.1008 17.1462 85.0532 19.298 86.0607C21.4499 87.0682 23.8094 88.0044 26.1852 88.9114C28.561 89.8185 30.9465 90.6575 33.2184 91.3637C34.3316 91.6877 35.4091 92.0278 36.4348 92.3356C36.9328 92.0363 37.4512 91.7721 37.9861 91.5451L38.6353 91.2406C39.0424 91.0314 39.434 90.7932 39.8069 90.5279C39.901 90.4632 39.9952 90.3984 40.086 90.3303C40.0877 90.3562 40.0877 90.3822 40.086 90.4081L40.2548 90.3368L40.1412 90.2882C40.7772 89.7996 41.377 89.2659 41.936 88.6911L42.1275 88.4968C42.478 88.1372 42.8188 87.7679 43.1564 87.3986C44.1398 64.5989 50.3713 38.968 50.3713 38.968H121.953C121.953 38.968 127.827 63.1509 129.093 85.429L131.891 87.716L132.365 88.1048L132.546 88.2538L134.309 89.6954L134.429 89.7926L135.821 89.3099L138.262 88.4061C139.154 88.0821 140.118 87.7323 141.125 87.3176C142.131 86.9029 143.198 86.5012 144.289 86.0218C146.473 85.1147 148.8 84.1364 151.105 83.0706C153.409 82.0048 155.678 80.9325 157.804 79.8894C159.929 78.8463 161.9 77.842 163.561 76.9253C165.223 76.0085 166.625 75.2764 167.586 74.7224L169.101 73.8575C169.101 73.8575 168.611 74.2624 167.712 74.9168C166.813 75.5711 165.525 76.5009 163.902 77.5084C162.279 78.5159 160.387 79.6853 158.29 80.8224C156.194 81.9595 153.922 83.1127 151.605 84.1656C150.449 84.7033 149.271 85.1828 148.119 85.6719C146.967 86.1611 145.801 86.5757 144.688 87.0066C143.575 87.4374 142.471 87.7808 141.443 88.1242C140.414 88.4676 139.414 88.7721 138.499 89.0345C137.042 89.4816 135.76 89.7796 134.75 90.0064L135.033 90.2364L136.655 91.0689C136.963 91.2705 137.247 91.5052 137.502 91.7687L138.911 91.3411C141.183 90.6348 143.581 89.7991 145.947 88.8888C148.313 87.9785 150.663 87.0228 152.831 86.038C154.999 85.0532 157.012 84.117 158.696 83.2229C160.381 82.3288 161.805 81.6193 162.776 81.0718L164.314 80.2328L162.87 81.2273C161.938 81.8428 160.614 82.7369 158.953 83.6893C157.291 84.6418 155.337 85.7335 153.179 86.7798C151.02 87.8262 148.664 88.824 146.282 89.7667C143.88 90.6478 141.449 91.448 139.141 92.125C138.752 92.2352 138.369 92.3388 137.989 92.449C138.431 93.2912 138.236 94.1529 137.457 94.8754L137.869 94.7523C139.187 94.357 140.579 93.9035 141.962 93.4176C143.344 92.9317 144.737 92.4781 146.022 91.9954C147.307 91.5128 148.524 91.0851 149.544 90.664C150.563 90.2429 151.436 89.9448 152.03 89.6921L152.981 89.3293L152.111 89.8574C151.546 90.1813 150.754 90.6575 149.761 91.1532C148.768 91.6488 147.606 92.2254 146.324 92.7729C145.042 93.3204 143.659 93.829 142.264 94.3279C140.868 94.8268 139.434 95.1961 138.093 95.5557C136.753 95.9152 135.477 96.155 134.387 96.3655H134.357V96.3137C133.798 96.4423 133.231 96.5364 132.66 96.5955V96.6409L132.592 97.0264L132.559 97.2013L132.173 99.3394L132.131 99.5662L131.67 101.844Z" fill="#6A5938"/>
<path d="M71.8182 96.32L75.0345 95.0631C74.8355 94.8929 74.6579 94.6993 74.5055 94.4865L73.1846 92.6497L69.2152 92.2383L72.5939 94.3342L66.8589 96.3557L71.8182 96.32Z" fill="#6A5938"/>
<path d="M80.3574 93.3493C80.2565 93.5729 80.0826 93.7557 79.8641 93.8677L79.559 93.9972L77.709 94.7715L80.9546 95.2509L87.8644 94.778L80.5683 94.2111L85.4627 92.5913L80.3574 93.3493Z" fill="#6A5938"/>
<path d="M50.8871 115.284C49.1572 112.676 49.1345 109.644 48.5957 106.738C48.362 105.478 48.6996 104.603 49.7674 103.823C52.419 101.879 53.7952 99.0963 54.3339 95.9054C54.5287 94.7489 54.5384 93.56 54.6325 92.384C54.9615 92.8589 55.1759 93.4033 55.2589 93.9746C55.5835 96.1483 55.1129 98.186 54.3242 100.217C53.7724 101.655 52.9448 103.457 53.37 104.707C54.5968 108.306 56.3689 111.721 57.9949 115.177C58.7057 116.693 59.5074 116.852 61.1042 115.958C61.0411 115.68 60.9314 115.415 60.7797 115.174C58.485 112.654 57.7613 109.417 56.6935 106.337C56.3689 105.365 56.5215 104.623 57.0732 103.726C58.3639 101.733 59.4802 99.634 60.4097 97.4506C60.9809 96.0123 60.9322 94.331 61.1983 92.5201L58.1572 93.0935L58.0956 92.8959C61.3736 90.9133 64.6549 88.934 67.8064 87.0324L66.6996 84.7323C68.9066 86.2387 70.3834 86.2905 72.6261 84.755C73.4829 84.1654 74.2781 83.4851 75.1187 82.8664C75.5473 82.5283 76.0082 82.2332 76.4948 81.9852C77.4198 81.5544 78.0916 81.8038 78.1695 82.8923C78.374 85.7139 77.0628 88.1403 75.8619 90.5148C75.401 91.4284 75.6185 91.7458 76.1573 92.2059C76.8064 92.7598 77.4295 92.7695 77.8352 91.9078C78.0632 91.4684 78.2365 91.0028 78.3513 90.5213C78.9095 87.6511 79.4905 84.7841 79.9546 81.8977C80.224 80.2391 80.0974 78.6258 78.1922 77.6637C78.6731 77.0556 79.19 76.4768 79.7404 75.9306C80.4252 75.3248 81.0191 75.5321 81.3632 76.3614C82.4926 78.9822 81.6877 81.6645 81.6001 84.3209C81.6001 84.7194 81.3762 85.3478 81.5417 85.4644C82.0194 85.7977 82.5822 85.9887 83.1645 86.0152C83.3754 86.0152 83.7162 85.3673 83.7909 84.9753C83.8899 84.3884 83.8997 83.7899 83.8201 83.2C83.4955 80.3395 83.171 77.4823 82.7718 74.6315C82.6555 74.0006 82.421 73.3972 82.0805 72.853C81.2074 71.3661 80.2045 71.2333 78.955 72.4773C77.7054 73.7212 76.4299 74.9879 75.2258 76.2999C74.9694 76.5817 74.9726 77.0968 74.8525 77.505L73.8302 80.9259L73.3855 80.806C73.3931 80.6159 73.4137 80.4265 73.4472 80.2391C74.1807 77.2037 74.0087 74.3562 71.912 71.8164C70.1724 69.701 70.7534 67.0187 70.3217 64.5858C70.3217 64.521 70.497 64.4239 70.669 64.2619C71.2791 66.4388 73.2654 66.8891 74.8428 67.9128L73.2654 67.8286C72.9733 69.8889 73.7003 71.162 75.4659 71.8229C75.6023 70.9353 75.4854 69.8468 75.9593 69.1795C76.3877 68.5737 77.4652 68.4214 78.4519 67.9841L77.2543 67.1904C77.7573 67.0932 78.0981 67.3103 78.4551 67.3362C78.9712 67.375 79.8085 67.4528 79.9578 67.1969C80.0961 66.933 80.1758 66.6424 80.1915 66.3451C80.2072 66.0477 80.1585 65.7504 80.0487 65.4735C78.929 63.303 77.6729 61.2038 76.4169 58.9944L75.2031 59.1532C76.907 57.6565 77.3516 55.8586 77.6178 53.646L75.638 54.8025C75.6217 54.1935 75.612 53.7303 75.599 53.1245L74.1872 53.8825C72.9247 52.5867 71.8179 51.2326 70.4905 50.1376C66.2712 46.6617 60.2344 46.2923 56.0476 49.1658C53.9964 50.5782 52.6495 52.4312 52.5261 55.1621C57.0343 49.6971 63.0775 48.0611 66.7191 50.9508C65.0184 50.9896 62.9996 50.7207 61.1497 51.1678C59.2954 51.6691 57.5532 52.5166 56.0151 53.6655C55.2088 54.2221 54.5673 54.9849 54.1579 55.874C53.7485 56.7632 53.5862 57.7458 53.6881 58.7191C57.5535 51.5144 67.8778 52.2174 70.1464 56.8596C65.2002 58.0615 62.7595 61.693 61.2113 66.1473C60.8893 67.0852 60.6281 68.0428 60.4291 69.0142C59.4198 73.8605 56.7973 77.6605 52.9546 80.6635C51.507 81.7941 49.9751 82.834 48.6184 84.0617C47.3397 85.2215 46.2492 86.5853 45.0483 87.8422C44.2466 88.691 43.5099 89.6499 42.5687 90.301C41.212 91.2405 39.6963 91.9467 38.2488 92.7533L38.1709 93.2036C39.044 93.5276 39.8976 94.1074 40.7868 94.1755C42.6985 94.3212 43.1659 92.7177 43.7079 91.2275C43.828 93.7932 45.0061 95.792 46.4634 97.6417C47.3007 98.7108 47.3592 99.8154 46.9502 100.995C46.7068 101.694 46.2167 102.32 46.0479 103.026C45.8337 103.939 45.613 104.944 45.7786 105.838C46.1518 107.83 46.8983 109.754 47.2358 111.75C47.476 113.178 47.6026 114.578 48.2679 115.919C48.8846 117.163 49.8355 116.693 50.6924 116.544C50.8449 116.528 51.0754 115.563 50.8871 115.284Z" fill="#6A5938"/>
<path d="M101.674 92.1053L100.613 93.7478C100.482 93.9455 100.323 94.1224 100.139 94.2726L104.436 95.144L110.483 94.8719L102.895 93.5016L106.384 91.5093L101.674 92.1053Z" fill="#6A5938"/>
<path d="M96.3611 93.5016L93.8458 91.208L93.4304 90.829C93.1458 90.5272 92.9729 90.1375 92.9403 89.7243L85.1833 85.5713L92.0932 90.9618L80.0845 87.6478L90.8761 92.3872L96.3611 93.5016Z" fill="#6A5938"/>
<path d="M133.994 94.4249C134.886 94.3569 135.74 93.777 136.61 93.453L136.532 93.0027C135.084 92.1961 133.569 91.4899 132.215 90.5504C131.271 89.9025 130.534 88.9307 129.732 88.0917C128.541 86.8347 127.461 85.4709 126.162 84.3112C124.802 83.0834 123.274 82.0435 121.826 80.9129C117.974 77.9034 115.358 74.11 114.342 69.2507C114.141 68.2795 113.878 67.322 113.556 66.3837C112.008 61.9294 109.568 58.285 104.621 57.0961C106.893 52.4506 117.214 51.7509 121.08 58.9556C121.182 57.9823 121.019 56.9996 120.61 56.1105C120.2 55.2214 119.559 54.4585 118.753 53.9019C117.215 52.7531 115.472 51.9055 113.618 51.4043C111.771 50.9572 109.749 51.2261 108.049 51.1872C111.69 48.2943 117.734 49.9303 122.242 55.3986C122.118 52.6709 120.771 50.8147 118.72 49.4055C114.537 46.5288 108.5 46.8981 104.277 50.3773C102.95 51.4691 101.843 52.8297 100.581 54.1222L99.1688 53.3642C99.1688 53.97 99.1461 54.4332 99.1331 55.0422L97.15 53.8857C97.4162 56.0854 97.864 57.8833 99.5647 59.3929L98.3509 59.2342C97.0948 61.45 95.8388 63.5492 94.7191 65.7132C94.6102 65.9903 94.5619 66.2874 94.5776 66.5847C94.5933 66.8819 94.6725 67.1724 94.81 67.4366C94.9593 67.6925 95.7836 67.6148 96.3159 67.5759C96.6697 67.55 97.0105 67.3297 97.5168 67.4301L96.3159 68.2205C97.2896 68.6611 98.3801 68.8101 98.8085 69.4192C99.2824 70.0865 99.1655 71.175 99.3018 72.0626C101.067 71.4147 101.798 70.1189 101.502 68.0683L99.9283 68.1525C101.515 67.1256 103.498 66.6785 104.102 64.5016C104.271 64.6506 104.459 64.751 104.446 64.8255C104.014 67.2584 104.595 69.9407 102.856 72.0561C100.762 74.6024 100.584 77.4466 101.321 80.4788C101.354 80.6661 101.375 80.8556 101.382 81.0457L100.938 81.1656L99.9283 77.7479C99.8082 77.3397 99.8114 76.8214 99.555 76.5428C98.3509 75.247 97.0948 73.9674 95.8258 72.7202C94.5568 71.473 93.5734 71.6091 92.7036 73.096C92.3607 73.6393 92.1249 74.2429 92.009 74.8745C91.6163 77.7252 91.2853 80.5825 90.9607 83.4397C90.8827 84.0308 90.8925 84.6301 90.9899 85.2182C91.0645 85.6102 91.4053 86.2613 91.6163 86.2581C92.1984 86.2306 92.7609 86.0397 93.2391 85.7074C93.4046 85.5908 93.1937 84.9591 93.1807 84.5638C93.0898 81.9042 92.2881 79.2251 93.4176 76.6044C93.7746 75.7751 94.3686 75.5677 95.0404 76.1735C95.5916 76.719 96.1086 77.2978 96.5885 77.9067C94.6834 78.8785 94.5568 80.4821 94.8262 82.1375C95.2936 85.0238 95.8713 87.894 96.4295 90.7642C96.5453 91.2443 96.7186 91.7088 96.9456 92.1475C97.3513 93.0125 97.9777 92.9995 98.6268 92.4488C99.1623 91.9888 99.3797 91.6681 98.9189 90.7578C97.7212 88.3832 96.4068 85.9568 96.6113 83.1352C96.6892 82.0467 97.3642 81.7973 98.286 82.2282C98.7732 82.4749 99.2343 82.7701 99.6621 83.1093C100.503 83.7248 101.285 84.4051 102.158 84.9947C104.397 86.5302 105.874 86.4816 108.081 84.9753L106.978 87.2721L116.685 93.1388L116.624 93.3364L113.595 92.7565C113.858 94.5642 113.81 96.2487 114.381 97.6871C115.311 99.8702 116.427 101.97 117.717 103.962C118.269 104.859 118.435 105.601 118.097 106.573C117.029 109.654 116.305 112.89 114.014 115.41C113.861 115.651 113.751 115.916 113.69 116.194C115.29 117.088 116.088 116.93 116.802 115.414C118.425 111.957 120.197 108.539 121.424 104.944C121.852 103.69 121.021 101.892 120.47 100.454C119.684 98.416 119.207 96.3848 119.535 94.2111C119.617 93.6396 119.832 93.0951 120.161 92.6205C120.255 93.7932 120.265 94.9853 120.46 96.1418C121.002 99.3327 122.375 102.099 125.03 104.059C126.094 104.846 126.432 105.721 126.198 106.975C125.659 109.89 125.637 112.916 123.907 115.524C123.718 115.802 123.949 116.768 124.095 116.794C124.952 116.943 125.903 117.412 126.523 116.165C127.172 114.827 127.311 113.428 127.551 111.996C127.876 110.004 128.635 108.079 129.009 106.087C129.174 105.193 128.954 104.189 128.739 103.275C128.571 102.569 128.09 101.944 127.837 101.244C127.428 100.065 127.487 98.9602 128.324 97.8912C129.768 96.0414 130.959 94.0426 131.079 91.4737C131.615 92.9736 132.095 94.5739 133.994 94.4249Z" fill="#6A5938"/>
<path d="M49.7126 12.1156C50.3493 12.7195 51.1039 13.186 51.9293 13.4859C52.8026 13.8042 53.726 13.9633 54.6556 13.9557C55.3684 13.969 56.079 13.8718 56.762 13.6674C57.3402 13.4823 57.8872 13.2115 58.3848 12.864C58.8343 12.5551 59.2347 12.1805 59.5727 11.7528C59.9282 11.2957 60.2349 10.8028 60.4879 10.2821L59.6862 9.79939C59.2274 10.6399 58.5919 11.3715 57.8233 11.9439C57.1408 12.4142 56.3287 12.661 55.4994 12.6502C54.9416 12.6583 54.3884 12.5478 53.8766 12.3262C53.3609 12.0948 52.9137 11.7344 52.5784 11.2798C52.2011 10.7337 51.9241 10.1249 51.7605 9.48192C51.532 8.60205 51.4228 7.69553 51.436 6.78665C51.436 4.92718 51.741 3.48128 52.3512 2.44896C52.6072 1.96858 52.9927 1.56927 53.4641 1.29619C53.9356 1.02311 54.4742 0.887163 55.0191 0.903714C55.4749 0.892448 55.9278 0.979524 56.3467 1.15899C56.7657 1.33846 57.141 1.60609 57.4468 1.94359C58.0959 2.63685 58.6552 3.71668 59.1248 5.1831H59.9459L59.8615 0.352998H59.0501L58.4724 0.868079C57.9781 0.616344 57.4594 0.415537 56.9243 0.268771C56.271 0.0834111 55.5944 -0.00714341 54.9152 -0.000107726C53.938 -0.00751572 52.9681 0.168305 52.0559 0.518213C51.2062 0.844624 50.4329 1.34193 49.784 1.97923C49.1336 2.62646 48.6204 3.39764 48.2748 4.24688C47.9116 5.15316 47.7297 6.12162 47.7392 7.09765C47.7283 8.07033 47.9092 9.03567 48.2715 9.93869C48.5899 10.7591 49.0814 11.5015 49.7126 12.1156Z" fill="#6A5938"/>
<path d="M68.4819 12.864C68.2495 12.8474 68.0185 12.8149 67.7905 12.7669C67.58 12.7339 67.3734 12.6796 67.1739 12.6049C66.9846 12.5314 66.8202 12.4055 66.7 12.2421C66.5961 11.9718 66.554 11.6819 66.5767 11.3933L72.5356 4.01047V11.7367C72.5334 11.9384 72.4786 12.136 72.3766 12.3101C72.2656 12.4836 72.0983 12.614 71.9027 12.6794C71.7033 12.7456 71.4959 12.7848 71.2861 12.796C70.9875 12.8219 70.7603 12.8446 70.6045 12.8543V13.6059H77.7123V12.864C77.4782 12.8465 77.2453 12.8162 77.0145 12.7733C76.7932 12.7385 76.5757 12.682 76.3654 12.6049C76.1672 12.532 76 12.3937 75.8915 12.2129C75.8047 12.0357 75.7623 11.84 75.7682 11.6427V2.26762C75.7666 2.07185 75.8088 1.8782 75.8915 1.70071C75.939 1.60719 76.0057 1.52478 76.0874 1.45889C76.1691 1.393 76.2638 1.34513 76.3654 1.31845C76.5868 1.25209 76.8123 1.20015 77.0405 1.16295C77.2871 1.12408 77.5111 1.09816 77.7123 1.0852V0.362793H70.6434V1.09168C70.8122 1.11436 71.0264 1.15647 71.2925 1.21154C71.5167 1.25662 71.7346 1.3284 71.9417 1.42535C72.1251 1.4997 72.2861 1.62024 72.409 1.77522C72.5202 1.98619 72.5686 2.22447 72.5486 2.46199L66.5897 9.84482V2.26762C66.5889 2.07366 66.6287 1.88167 66.7065 1.70395C66.7547 1.61069 66.8221 1.52869 66.9043 1.46335C66.9866 1.39802 67.0818 1.35084 67.1836 1.32493C67.3867 1.26714 67.5925 1.21957 67.8003 1.18239C68.0257 1.13993 68.2532 1.10966 68.4819 1.09168V0.362793H61.374V1.09168C61.5924 1.11867 61.8091 1.15761 62.0231 1.2083C62.2666 1.25744 62.5046 1.33013 62.7339 1.42535C62.9326 1.50023 63.1013 1.63788 63.2143 1.81733C63.2971 1.98884 63.3372 2.17776 63.3311 2.36805V11.727C63.3349 11.9289 63.2904 12.1288 63.2013 12.3101C63.0981 12.4879 62.931 12.6199 62.7339 12.6794C62.5223 12.743 62.3049 12.7853 62.0848 12.8057C61.783 12.8381 61.5525 12.8608 61.3967 12.864V13.6059H68.4819V12.864Z" fill="#6A5938"/>
<path d="M86.1962 12.864C85.9575 12.8398 85.7202 12.8031 85.4854 12.7539C85.2792 12.7172 85.0762 12.6641 84.8784 12.5952C84.6715 12.5274 84.4962 12.387 84.3851 12.1999C84.2971 12.0184 84.2537 11.8185 84.2585 11.6168V7.89788H85.3588C86.1729 7.90595 86.9856 7.82776 87.7833 7.66463C88.4611 7.52419 89.1099 7.2689 89.7014 6.90983C90.2283 6.59096 90.6668 6.14548 90.9769 5.61403C91.2976 5.02431 91.4566 4.3605 91.4378 3.68976C91.4681 3.19884 91.3665 2.70874 91.1434 2.27018C90.9202 1.83163 90.5838 1.46055 90.1688 1.19535C89.3206 0.640311 88.0418 0.362793 86.3325 0.362793H79.0137V1.09168C79.1565 1.09168 79.3739 1.14675 79.6628 1.2083C79.9005 1.25173 80.1332 1.31902 80.3573 1.40915C80.5631 1.47612 80.7366 1.61696 80.8442 1.80437C80.9221 1.98186 80.9598 2.17434 80.9545 2.36805V11.7011C80.9645 11.9059 80.9255 12.1102 80.8409 12.2971C80.7243 12.4681 80.5543 12.5956 80.3573 12.66C80.1559 12.7285 79.9465 12.7709 79.7342 12.7863L79.0137 12.864V13.6059H86.1962V12.864ZM84.2715 1.20182H85.0342C86.062 1.20182 86.776 1.44263 87.1763 1.92423C87.5766 2.40584 87.7778 3.14445 87.78 4.14005C87.78 5.11407 87.5139 5.83647 86.9816 6.30728C86.4493 6.77809 85.6725 7.01241 84.6513 7.01025H84.2585L84.2715 1.20182Z" fill="#6A5938"/>
<path d="M99.5906 12.864C99.355 12.8457 99.1208 12.8122 98.8895 12.7636C98.6828 12.7291 98.4797 12.676 98.2826 12.6049C98.0875 12.531 97.9237 12.3927 97.8185 12.2129C97.7282 12.0365 97.6826 11.8408 97.6854 11.6427V7.18843H103.346V11.7464C103.353 11.949 103.307 12.1501 103.213 12.3295C103.102 12.5031 102.934 12.6334 102.739 12.6988C102.54 12.7652 102.332 12.8023 102.122 12.809L101.441 12.864V13.6059H108.604V12.864C108.371 12.8466 108.139 12.8164 107.909 12.7733C107.688 12.7389 107.47 12.6825 107.26 12.6049C107.06 12.5317 106.891 12.3937 106.78 12.2129C106.693 12.0357 106.65 11.84 106.656 11.6427V2.26762C106.656 2.07404 106.698 1.8827 106.78 1.70719C106.828 1.61393 106.896 1.53179 106.978 1.46598C107.06 1.40018 107.155 1.35214 107.257 1.32493C107.477 1.25819 107.701 1.20624 107.929 1.16943C108.175 1.13056 108.402 1.10464 108.6 1.09168V0.362793H101.441V1.09168C101.66 1.11916 101.876 1.16137 102.09 1.21802C102.312 1.26682 102.529 1.33623 102.739 1.42535C102.932 1.50471 103.097 1.64156 103.209 1.81733C103.296 1.98774 103.338 2.17707 103.333 2.36805V6.22629H97.6919V2.26762C97.6911 2.07366 97.7309 1.88167 97.8088 1.70395C97.856 1.60875 97.9234 1.52496 98.0064 1.45839C98.0893 1.39182 98.1858 1.34407 98.2891 1.31845C98.4919 1.25992 98.6978 1.21234 98.9058 1.17591C99.1343 1.13268 99.3651 1.1024 99.5971 1.0852V0.362793H92.4243V1.09168C92.6427 1.11867 92.8594 1.15761 93.0734 1.2083C93.3169 1.25744 93.5549 1.33013 93.7842 1.42535C93.9829 1.50023 94.1516 1.63788 94.2646 1.81733C94.3474 1.98884 94.3874 2.17776 94.3814 2.36805V11.727C94.3869 11.929 94.3423 12.1293 94.2516 12.3101C94.1484 12.4879 93.9813 12.6199 93.7842 12.6794C93.5726 12.743 93.3552 12.7853 93.1351 12.8057C92.8333 12.8381 92.6028 12.8608 92.447 12.864V13.6059H99.6133L99.5906 12.864Z" fill="#6A5938"/>
<path d="M114.16 12.8639C113.645 12.8424 113.137 12.7408 112.654 12.5626C112.352 12.4233 112.203 12.2387 112.203 12.054C112.207 11.9454 112.218 11.8373 112.236 11.7301C112.283 11.4731 112.353 11.2206 112.443 10.9752C112.537 10.7096 112.644 10.4051 112.768 10.0617C112.891 9.71832 113.008 9.41381 113.115 9.1676H117.691L118.821 11.9082C118.856 11.9896 118.883 12.0742 118.902 12.1609C118.905 12.217 118.905 12.2732 118.902 12.3294C118.902 12.4719 118.675 12.5918 118.22 12.6857C117.83 12.7739 117.434 12.8346 117.036 12.8671V13.6057H124.257V12.8639C124.046 12.8498 123.837 12.8195 123.631 12.7732C123.419 12.7279 123.214 12.6527 123.024 12.5496C122.823 12.4363 122.643 12.2895 122.492 12.1156C122.36 11.9619 122.251 11.7907 122.167 11.607C121.682 10.4623 121.094 9.02075 120.401 7.28221C119.709 5.54368 118.766 3.1756 117.571 0.177979H115.702L113.297 5.97669C112.574 7.72819 111.85 9.47752 111.126 11.2247C111.016 11.5004 110.864 11.7572 110.674 11.986C110.494 12.2077 110.274 12.3944 110.025 12.5367C109.836 12.643 109.629 12.7164 109.415 12.7537C109.185 12.8048 108.952 12.8373 108.717 12.8509V13.6057H114.154L114.16 12.8639ZM115.393 3.46932L117.312 8.25082H113.505L115.393 3.46932Z" fill="#6A5938"/>
<path d="M59.0206 18.9446C58.6493 19.2785 58.3482 19.6826 58.1345 20.1335C57.9852 20.4963 57.81 20.9401 57.6315 21.4617C57.4694 21.936 57.2764 22.3991 57.0537 22.8482C56.7928 23.3463 56.4518 23.7982 56.0444 24.1861C55.8422 24.3925 55.5893 24.5422 55.3109 24.6202C55.0558 24.6892 54.7929 24.7251 54.5287 24.7271H53.9185V20.3246C53.9177 20.1307 53.9575 19.9387 54.0353 19.761C54.084 19.665 54.153 19.5807 54.2377 19.5141C54.3223 19.4475 54.4205 19.4002 54.5254 19.3755C54.728 19.3167 54.9339 19.2702 55.1421 19.2362C55.3693 19.1907 55.5991 19.1593 55.8302 19.1422V18.4133H48.6606V19.1422C48.8789 19.1695 49.0956 19.2084 49.3098 19.2588C49.5532 19.308 49.7912 19.3807 50.0205 19.4759C50.2185 19.552 50.3868 19.6894 50.5009 19.8679C50.5837 20.0394 50.6238 20.2283 50.6177 20.4186V29.7775C50.6221 29.9798 50.5764 30.1801 50.4847 30.3606C50.3838 30.5391 50.2174 30.6715 50.0205 30.7299C49.8089 30.7932 49.5914 30.8355 49.3714 30.8563C49.0696 30.8887 48.8392 30.9113 48.6834 30.9178V31.6435H55.8237V30.9178C55.5893 30.8963 55.3563 30.8617 55.1259 30.8142C54.9191 30.7801 54.7159 30.727 54.5189 30.6554C54.3233 30.5825 54.1592 30.4439 54.0548 30.2634C53.9623 30.0889 53.9154 29.8939 53.9185 29.6965V25.5921C54.3172 25.5847 54.715 25.6338 55.0999 25.7378C55.4129 25.8215 55.7041 25.9718 55.9535 26.1784C56.205 26.3806 56.4192 26.6251 56.5864 26.9008C56.7791 27.2335 56.9514 27.5775 57.1024 27.931C57.3458 28.4785 57.5763 29.0745 57.7937 29.7127L58.4429 31.6337H63.5287V30.9178L63.0094 30.8563C62.8017 30.8271 62.6264 30.798 62.4804 30.7656C62.3147 30.7269 62.1603 30.6504 62.0292 30.542C61.779 30.3247 61.5853 30.0502 61.4645 29.7419C61.3379 29.4795 61.1951 29.1652 61.0296 28.7959C60.8641 28.4266 60.705 28.0768 60.5492 27.7463C60.2162 27.0142 59.7432 26.354 59.1569 25.8026C58.5392 25.251 57.7944 24.8604 56.9888 24.6656V24.4971C57.2967 24.2778 57.5655 24.0084 57.784 23.7002C58.076 23.2625 58.3146 22.7916 58.4948 22.2975C58.6116 21.9995 58.7414 21.6496 58.881 21.2479C58.9804 20.9211 59.1473 20.6187 59.3711 20.3603C59.6512 20.7482 59.9933 21.0874 60.3837 21.3645C60.6442 21.5323 60.9468 21.6233 61.2568 21.6269C61.4721 21.6341 61.6867 21.5976 61.8875 21.5196C62.0884 21.4417 62.2713 21.3239 62.4252 21.1734C62.5836 21.005 62.7059 20.806 62.7845 20.5888C62.8632 20.3716 62.8967 20.1406 62.8828 19.91C62.8887 19.6805 62.8432 19.4525 62.7494 19.2429C62.6556 19.0332 62.516 18.8472 62.3408 18.6984C61.925 18.3646 61.4001 18.1961 60.8673 18.2254C60.5098 18.2204 60.1547 18.2853 59.8222 18.4166C59.5219 18.5364 59.2491 18.7161 59.0206 18.9446Z" fill="#6A5938"/>
<path d="M72.5809 19.1422C73.0393 19.1737 73.4919 19.263 73.9278 19.4079C74.2524 19.5277 74.4179 19.6865 74.4179 19.8776C74.4006 20.0778 74.3535 20.2743 74.2784 20.4607C74.1249 20.8721 73.9505 21.2754 73.7558 21.669L72.9542 23.3244C72.6978 23.8622 72.3537 24.5392 71.9286 25.3491C70.8467 23.5868 70.1305 22.3925 69.78 21.7662C69.423 21.1442 69.1017 20.5935 68.8063 20.1141L68.6732 19.8711C68.6215 19.7938 68.5902 19.7046 68.5824 19.6119C68.5824 19.505 68.7122 19.4079 68.9653 19.3204C69.427 19.2033 69.9009 19.1414 70.3772 19.1357V18.4133H63.0356V19.1422C63.4573 19.1718 63.8693 19.2818 64.2495 19.4662C64.4755 19.5757 64.68 19.725 64.8532 19.9067C64.9733 20.0493 65.0966 20.2145 65.2232 20.3991C65.5218 20.8527 66.2055 21.9865 67.2744 23.8006C68.3433 25.6147 69.2866 27.2053 70.1045 28.5724C69.9131 28.9257 69.6961 29.2645 69.4554 29.5864C69.2438 29.8799 68.9729 30.126 68.6603 30.3088C68.3133 29.8278 67.8978 29.4 67.4269 29.0389C67.0964 28.787 66.6938 28.6474 66.278 28.6404C66.0587 28.6308 65.8398 28.668 65.6361 28.7495C65.4324 28.8311 65.2484 28.9552 65.0966 29.1134C64.8047 29.4169 64.6449 29.8233 64.6519 30.244C64.6531 30.4779 64.7075 30.7085 64.8109 30.9183C64.9144 31.1282 65.0642 31.3119 65.2491 31.4556C65.7197 31.8226 66.3082 32.0057 66.9044 31.9707C67.283 31.9765 67.6603 31.9262 68.0241 31.8216C68.3748 31.7045 68.7038 31.5304 68.9978 31.3066C69.4566 30.9617 69.8641 30.5538 70.2084 30.095C70.7329 29.4004 71.2058 28.6685 71.6235 27.9051C72.0303 27.1902 72.6339 26.0575 73.4345 24.5068C74.2351 22.9562 74.9167 21.6982 75.4792 20.7328C75.6206 20.4876 75.7744 20.2497 75.9401 20.0201C76.0895 19.8145 76.2823 19.6442 76.5048 19.5212C76.7093 19.4092 76.9275 19.3242 77.154 19.2686C77.355 19.2102 77.5617 19.1733 77.7706 19.1584V18.4133H72.5777L72.5809 19.1422Z" fill="#6A5938"/>
<path d="M81.0454 28.6501C81.0541 28.4409 81.0161 28.2323 80.9342 28.0396C80.8522 27.8469 80.7284 27.6747 80.5716 27.5357C80.2107 27.2432 79.7537 27.0953 79.2896 27.121C79.0706 27.1177 78.8535 27.1605 78.6522 27.2464C78.4509 27.3324 78.27 27.4596 78.1211 27.6199C77.9712 27.7666 77.8519 27.9414 77.77 28.1343C77.6881 28.3273 77.6453 28.5345 77.644 28.744C77.644 29.6899 78.1147 30.4674 79.0559 31.0829C79.9971 31.6984 81.2726 32.0062 82.8857 32.0062C84.766 32.0062 86.313 31.6099 87.5269 30.8173C88.7407 30.0247 89.3477 29.0086 89.3477 27.7689C89.3623 27.2429 89.232 26.723 88.9712 26.2658C88.7189 25.8556 88.3702 25.5132 87.9553 25.268C87.5419 25.0149 87.0888 24.8331 86.6149 24.7302C86.1534 24.626 85.6826 24.5685 85.2095 24.5586V24.4257C85.8252 24.3107 86.4218 24.1101 86.9816 23.8297C87.3836 23.6267 87.7497 23.3597 88.0656 23.0392C88.3237 22.7819 88.5201 22.4696 88.6401 22.1257C88.752 21.8138 88.8102 21.4852 88.8121 21.1538C88.8137 20.6924 88.6917 20.239 88.4589 19.8403C88.2261 19.4417 87.8909 19.1123 87.4879 18.8862C86.6008 18.3203 85.3859 18.0364 83.8431 18.0342C83.1312 18.0243 82.4213 18.1126 81.7335 18.2966C81.1652 18.451 80.6122 18.6571 80.0815 18.9121L79.5168 18.4132H78.6729L78.5885 23.1299H79.4096C79.6861 21.9962 80.2104 20.9375 80.9448 20.0297C81.2051 19.702 81.5347 19.4357 81.91 19.2497C82.2854 19.0638 82.6972 18.9629 83.1161 18.9542C83.4297 18.9478 83.7409 19.0097 84.0281 19.1356C84.2766 19.2513 84.4978 19.4179 84.6772 19.6248C84.8505 19.8406 84.9795 20.0882 85.057 20.3537C85.1426 20.6406 85.1853 20.9387 85.1836 21.2381C85.1836 22.225 84.9877 22.9496 84.5961 23.4118C84.2045 23.8739 83.5445 24.1039 82.6163 24.1018H81.6978V25.2194H82.9603C83.4297 25.2062 83.8971 25.2843 84.3365 25.4494C84.6608 25.5693 84.9491 25.7701 85.1738 26.0325C85.3729 26.2812 85.5078 26.5749 85.5665 26.8878C85.6337 27.2074 85.6674 27.5331 85.6672 27.8596C85.692 28.2945 85.6296 28.7301 85.4836 29.1406C85.3376 29.5511 85.1109 29.9284 84.8168 30.2504C84.5074 30.5446 84.1404 30.7719 83.7388 30.918C83.3372 31.064 82.9098 31.1257 82.4832 31.0991C82.0845 31.1174 81.686 31.0557 81.3116 30.9177C81.0534 30.8052 80.8075 30.6662 80.5781 30.503C80.6462 30.3087 80.7403 30.0398 80.8637 29.6964C80.9826 29.3603 81.044 29.0065 81.0454 28.6501Z" fill="#6A5938"/>
<path d="M105.157 19.761C105.205 19.6677 105.273 19.5856 105.355 19.5198C105.437 19.454 105.532 19.4059 105.634 19.3787C105.854 19.3127 106.079 19.2608 106.306 19.2232C106.556 19.1843 106.78 19.1584 106.981 19.1455V18.4133H99.8275V19.1422C100.046 19.1707 100.263 19.2129 100.477 19.2686C100.699 19.3168 100.916 19.3863 101.126 19.4759C101.325 19.5522 101.496 19.6894 101.613 19.8679C101.698 20.0386 101.739 20.2279 101.733 20.4186V24.2768H96.0691V20.3246C96.0683 20.1307 96.1081 19.9387 96.1859 19.761C96.2339 19.6657 96.3019 19.5819 96.3854 19.5153C96.4689 19.4488 96.5658 19.4011 96.6695 19.3755C96.8711 19.317 97.0759 19.2705 97.2829 19.2362C97.5112 19.1909 97.7421 19.1595 97.9742 19.1422V18.4133H90.8145V19.1422C91.0328 19.1695 91.2494 19.2084 91.4636 19.2588C91.707 19.308 91.9451 19.3807 92.1744 19.4759C92.3723 19.552 92.5406 19.6894 92.6547 19.8679C92.7375 20.0394 92.7776 20.2283 92.7715 20.4186V29.7775C92.7759 29.9798 92.7302 30.1801 92.6385 30.3606C92.5376 30.5391 92.3712 30.6715 92.1744 30.7299C91.9627 30.7932 91.7452 30.8355 91.5252 30.8563C91.2234 30.8887 90.993 30.9113 90.8372 30.9178V31.6435H98.0002V30.9178C97.7658 30.8963 97.5329 30.8617 97.3024 30.8142C97.0956 30.7801 96.8924 30.727 96.6955 30.6554C96.4998 30.5825 96.3358 30.4439 96.2313 30.2634C96.1388 30.0889 96.0919 29.8939 96.095 29.6965V25.239H101.755V29.8034C101.764 30.0058 101.719 30.2068 101.626 30.3865C101.512 30.5594 101.344 30.6895 101.148 30.7558C100.949 30.8226 100.742 30.8597 100.532 30.866L99.8502 30.9243V31.6499H107.016V30.9178C106.835 30.9178 106.601 30.8725 106.319 30.8239C106.097 30.789 105.88 30.7326 105.67 30.6554C105.458 30.5887 105.276 30.45 105.157 30.2634C105.071 30.0869 105.03 29.8924 105.037 29.6965V20.3246C105.035 20.1302 105.076 19.9377 105.157 19.761Z" fill="#6A5938"/>
<path d="M120.33 19.7608C120.379 19.6675 120.446 19.5854 120.528 19.5196C120.61 19.4538 120.705 19.4057 120.807 19.3785C121.027 19.3118 121.252 19.2598 121.479 19.223C121.728 19.1841 121.952 19.1582 122.151 19.1453V18.4131H114.335C113.736 18.4107 113.14 18.4859 112.56 18.6367C112.038 18.7679 111.542 18.987 111.093 19.2846C110.678 19.5615 110.327 19.9238 110.064 20.3471C109.79 20.8057 109.652 21.3325 109.665 21.8665C109.655 22.3365 109.755 22.8023 109.957 23.227C110.145 23.6035 110.411 23.935 110.739 24.1989C111.064 24.4579 111.429 24.6625 111.82 24.8047C112.289 24.978 112.775 25.0975 113.271 25.161V25.3295C112.637 25.4905 112.048 25.7929 111.547 26.2139C111.124 26.5726 110.779 27.0134 110.532 27.5097C110.34 27.9016 110.155 28.2871 109.977 28.6694C109.798 29.0517 109.633 29.4145 109.477 29.7579C109.368 29.9916 109.225 30.2078 109.052 30.3993C108.86 30.5873 108.619 30.7175 108.357 30.7751C108.188 30.8233 108.014 30.8537 107.838 30.8658C107.643 30.8658 107.481 30.8949 107.357 30.9079V31.6336H112.349C112.598 30.9317 112.833 30.2902 113.053 29.7093C113.274 29.1283 113.514 28.5485 113.774 27.9697C114.03 27.3002 114.41 26.6848 114.894 26.1556C115.251 25.8408 115.715 25.6729 116.192 25.6858H116.867V29.8032C116.875 30.0056 116.831 30.2066 116.737 30.3863C116.624 30.5592 116.456 30.6893 116.26 30.7557C116.061 30.8224 115.853 30.8595 115.643 30.8658L114.962 30.9241V31.6498H122.125V30.9176C121.946 30.9176 121.713 30.8723 121.43 30.8237C121.209 30.7888 120.992 30.7324 120.781 30.6552C120.583 30.5814 120.415 30.4434 120.304 30.2632C120.219 30.0868 120.177 29.8922 120.184 29.6963V20.3244C120.19 20.128 120.24 19.9355 120.33 19.7608ZM116.893 24.8079H115.825C115.484 24.8247 115.143 24.7705 114.824 24.649C114.505 24.5274 114.215 24.341 113.972 24.1017C113.511 23.6482 113.271 22.9193 113.271 21.9701C113.233 21.263 113.444 20.565 113.868 19.9973C114.069 19.7511 114.326 19.5561 114.617 19.4282C114.908 19.3004 115.225 19.2434 115.543 19.2619H116.909L116.893 24.8079Z" fill="#6A5938"/>
<path d="M96.7182 55.8943C96.7182 55.8943 95.2966 54.0478 92.9955 54.0478C92.9955 54.0478 93.4207 52.9982 92.2912 51.8709C92.2912 51.8709 91.3403 54.6892 88.6886 55.6611C88.6485 55.5208 88.5731 55.3931 88.4698 55.2899C88.3664 55.1867 88.2384 55.1116 88.0979 55.0715C89.0716 52.4248 91.8953 51.4756 91.8953 51.4756C91.6837 51.239 91.4262 51.0477 91.1383 50.9135C90.8504 50.7793 90.5381 50.7049 90.2205 50.6949C90.0485 50.6913 89.8772 50.7176 89.7142 50.7727C89.7142 48.4759 87.8642 47.0537 87.8642 47.0537C87.8642 47.0537 86.0142 48.4759 86.0142 50.7727C85.8502 50.7175 85.6778 50.6912 85.5047 50.6949C85.1872 50.7053 84.875 50.7798 84.5872 50.914C84.2993 51.0482 84.0417 51.2393 83.83 51.4756C83.83 51.4756 86.6569 52.4248 87.6305 55.0715C87.49 55.1116 87.362 55.1867 87.2587 55.2899C87.1553 55.3931 87.08 55.5208 87.0398 55.6611C84.3882 54.6892 83.4372 51.8709 83.4372 51.8709C82.3078 52.9982 82.7329 54.0478 82.7329 54.0478C80.4318 54.0478 79.0103 55.8943 79.0103 55.8943C79.0103 55.8943 80.4318 57.7409 82.7329 57.7409C82.7329 57.7409 82.3078 58.7905 83.4372 59.921C83.4372 59.921 84.3882 57.0994 87.0398 56.1276C87.0792 56.2686 87.1542 56.3971 87.2577 56.5009C87.3611 56.6047 87.4895 56.6803 87.6305 56.7204C86.6569 59.3671 83.8332 60.3163 83.8332 60.3163C84.0455 60.5521 84.3032 60.7427 84.5909 60.8769C84.8786 61.011 85.1905 61.0859 85.5079 61.097C85.6813 61.1008 85.8539 61.0734 86.0175 61.016C86.0175 63.3128 87.8675 64.7349 87.8675 64.7349C87.8675 64.7349 89.7175 63.3128 89.7175 61.016C89.88 61.0732 90.0515 61.1006 90.2238 61.097C90.5412 61.0862 90.8532 61.0115 91.141 60.8774C91.4288 60.7432 91.6865 60.5523 91.8985 60.3163C91.8985 60.3163 89.0748 59.3671 88.1012 56.7204C88.2422 56.6803 88.3706 56.6047 88.474 56.5009C88.5775 56.3971 88.6525 56.2686 88.6918 56.1276C91.3435 57.0994 92.2945 59.921 92.2945 59.921C93.4239 58.7905 92.9988 57.7409 92.9988 57.7409C95.3031 57.7409 96.7182 55.8943 96.7182 55.8943ZM84.2714 56.6491H82.7297C81.9554 56.6313 81.2071 56.3668 80.5941 55.8943C81.2069 55.4215 81.9553 55.157 82.7297 55.1395H84.2714C84.4142 55.2821 84.5667 55.4214 84.729 55.5574L81.5678 55.8814L84.7744 56.2053C84.6024 56.3446 84.4336 56.4969 84.2779 56.6491H84.2714ZM88.1823 58.9978C88.3251 59.1695 88.4711 59.3217 88.6204 59.4805V61.016C88.603 61.7889 88.338 62.5359 87.8642 63.1476C87.3879 62.5371 87.1216 61.7896 87.1048 61.016L87.1891 59.3962C87.3092 59.2699 87.4293 59.1403 87.5462 59.001L87.8707 62.1595L88.1823 58.9978ZM87.8577 49.6032L87.5332 52.8006C87.3936 52.6321 87.2476 52.4766 87.0983 52.3211V50.7856C87.1157 50.0122 87.382 49.2648 87.8577 48.654C88.3311 49.2659 88.596 50.0128 88.614 50.7856L88.5296 52.4054C88.4095 52.5285 88.2926 52.6613 88.179 52.7974L87.8577 49.6032ZM92.989 56.6621L91.3662 56.5811C91.2364 56.4548 91.0968 56.3317 90.9508 56.2086L94.1574 55.8846L90.993 55.5607C91.1553 55.4246 91.3078 55.2853 91.4506 55.1428H92.9923C93.7665 55.1606 94.5148 55.4251 95.1279 55.8976C94.5171 56.3669 93.7726 56.6301 93.002 56.6491L92.989 56.6621Z" fill="#6A5938"/>
<path d="M107.289 116.985C108.282 116.424 109.237 115.887 110.1 115.32C110.918 114.802 111.669 114.186 112.336 113.486C112.472 113.337 112.602 113.182 112.722 113.026C113.485 112.047 113.891 110.838 113.874 109.599C113.877 109.368 113.807 109.141 113.676 108.951L113.612 108.863C113.564 108.808 113.512 108.756 113.456 108.708L113.368 108.643C113.244 108.558 113.104 108.5 112.956 108.471C112.88 108.454 112.803 108.446 112.726 108.445H105.702C105.702 108.355 105.731 108.267 105.741 108.177C105.777 107.669 105.786 107.159 105.767 106.651C105.767 106.44 105.767 106.223 105.767 106.003V103.865C105.778 102.799 105.482 101.752 104.913 100.85C104.344 99.9474 103.528 99.2273 102.56 98.7755L102.489 98.7269C101.758 98.2713 100.973 97.9089 100.152 97.6481C99.0671 97.2841 97.9575 96.9973 96.8319 96.7897C93.9706 96.2609 91.0664 95.9974 88.1564 96.0025H87.7767C84.9397 95.9801 82.1062 96.2067 79.3089 96.6795C78.1406 96.879 76.987 97.156 75.8556 97.5088C74.9849 97.766 74.1448 98.1169 73.35 98.5552C73.217 98.633 73.0904 98.7139 72.9736 98.7917L72.7204 98.9148C71.686 99.4596 70.8518 100.318 70.3381 101.367C69.9575 102.169 69.7665 103.048 69.7799 103.936V107.934C69.7884 108.544 69.9198 109.147 70.1661 109.706C69.4919 109.8 68.812 109.848 68.1311 109.848C67.7871 109.848 67.4496 109.848 67.1185 109.816C66.5668 109.783 66.0345 109.722 65.5314 109.647C65.2296 109.602 64.9375 109.553 64.6584 109.498L64.1163 109.385L63.6133 109.268C63.3699 109.207 63.1459 109.148 62.9349 109.087L62.539 108.973L62.0392 108.811L61.7763 108.721L61.6659 108.682L61.4907 108.617L61.3836 108.575L61.3414 108.559L61.2343 108.52L61.1239 108.491C61.05 108.478 60.975 108.471 60.9 108.471C60.7903 108.47 60.681 108.484 60.5754 108.513L60.5235 108.53C60.4737 108.547 60.4249 108.568 60.3774 108.591C60.345 108.607 60.3136 108.624 60.2833 108.643C60.1235 108.741 59.9917 108.878 59.9003 109.041C59.8062 109.198 59.7519 109.375 59.7423 109.558C59.7327 109.74 59.768 109.922 59.8451 110.088C59.8515 110.1 59.8569 110.113 59.8614 110.127C59.8808 110.166 59.9068 110.224 59.9458 110.298L60.0107 110.431C60.1827 110.755 60.4845 111.316 60.9194 111.986C61.244 112.466 61.6107 113.003 62.0619 113.57C62.3313 113.91 62.6299 114.257 62.9512 114.61C64.5194 116.359 66.4601 117.735 68.631 118.637L69.0821 118.818C69.6695 119.058 70.2245 119.295 70.7406 119.534L71.1236 119.712C71.816 120.035 72.488 120.4 73.1358 120.804L73.4247 120.995C73.8714 121.295 74.2906 121.633 74.6775 122.006C74.7489 122.077 74.8203 122.149 74.8885 122.223C75.1562 122.508 75.3963 122.817 75.6057 123.146C75.7607 123.392 75.8963 123.65 76.0114 123.917C76.0893 124.095 76.1575 124.28 76.2191 124.471C76.2484 124.565 76.2776 124.662 76.3035 124.76C76.3829 125.066 76.4425 125.378 76.482 125.693H75.8329C75.7919 125.689 75.7506 125.689 75.7096 125.693C75.6691 125.696 75.629 125.702 75.5895 125.712C75.3487 125.764 75.1313 125.893 74.9696 126.078L73.1586 128.148L72.1849 129.253C72.0029 129.462 71.9027 129.73 71.9025 130.008V137.011C71.9025 137.315 72.0232 137.606 72.2381 137.82C72.4529 138.034 72.7443 138.155 73.0482 138.155H77.433C77.6879 138.155 77.9357 138.071 78.1373 137.915L78.199 137.873L78.3775 137.766C78.6288 137.625 78.8877 137.497 79.1532 137.384C79.3089 137.316 79.4777 137.245 79.6725 137.173L79.9061 137.089C80.0652 137.031 80.2307 136.976 80.4222 136.917C81.2038 136.683 82.0009 136.503 82.8077 136.38C83.2101 136.315 83.6451 136.26 84.1059 136.214C84.8751 136.14 85.7287 136.095 86.6667 136.095C87.0399 136.095 87.4002 136.095 87.7507 136.114L88.2603 136.14C89.1781 136.192 90.0918 136.3 90.9963 136.464C91.323 136.527 91.6314 136.591 91.9213 136.658L92.0803 136.697C92.3465 136.762 92.5964 136.83 92.8268 136.901C93.0573 136.973 93.2909 137.047 93.4922 137.118L93.8167 137.241L94.1413 137.381C94.4658 137.514 94.6865 137.633 94.8586 137.727L94.9624 137.789C95.115 137.876 95.1929 137.931 95.1994 137.935C95.2964 138.012 95.4062 138.071 95.5239 138.11C95.6422 138.149 95.7661 138.168 95.8907 138.168H100.275C100.429 138.168 100.582 138.137 100.723 138.077C100.93 137.988 101.105 137.842 101.229 137.655C101.353 137.468 101.42 137.249 101.421 137.024V129.998C101.421 129.721 101.321 129.453 101.139 129.243L99.6555 127.549L98.3573 126.068C98.2771 125.975 98.1816 125.896 98.0749 125.835C98.0055 125.793 97.9315 125.759 97.8542 125.735C97.7382 125.696 97.6165 125.676 97.494 125.676H97.3674C97.427 125.327 97.5205 124.984 97.6465 124.653C97.6768 124.573 97.7093 124.492 97.7439 124.41C97.8128 124.25 97.8897 124.095 97.9743 123.943C98.0587 123.791 98.1528 123.642 98.2502 123.496C98.7566 122.782 99.3632 122.143 100.052 121.601C100.301 121.397 100.568 121.193 100.853 120.986C101.041 120.846 101.236 120.707 101.441 120.564C101.746 120.348 102.07 120.132 102.414 119.917C103.089 119.479 103.833 119.019 104.638 118.527C105.543 117.97 106.432 117.467 107.289 116.985ZM107.701 109.725L110.084 109.79C110.483 109.79 110.879 109.812 111.275 109.829L112.466 109.871L111.275 109.916C110.879 109.916 110.483 109.945 110.084 109.952L107.701 110.02L105.319 110.081H105.29C105.342 109.945 105.387 109.806 105.429 109.667L107.701 109.725ZM79.2895 103.282C79.2895 103.282 75.0507 102.99 72.8372 100.742C72.787 100.691 72.7424 100.634 72.7042 100.573C71.3378 98.4094 84.8459 96.7767 84.8459 96.7767C78.5657 97.9332 75.6512 98.999 74.6158 99.919C72.3179 101.963 79.2895 103.282 79.2895 103.282ZM75.1741 103.414L74.9079 103.314L74.8398 103.291L74.5152 103.159C74.3854 103.107 74.2556 103.048 74.129 102.993C73.8074 102.848 73.4962 102.682 73.1975 102.494L73.1131 102.439L73.0287 102.388C72.9216 102.313 72.8145 102.235 72.7042 102.154L72.5808 102.054C72.2461 101.79 71.9938 101.436 71.8538 101.033L72.0031 100.946C72.1042 101.271 72.2888 101.563 72.5386 101.795C73.095 102.295 73.737 102.691 74.4341 102.964C75.3952 103.368 76.39 103.687 77.407 103.917L77.6212 103.968L77.5076 104.004L77.4525 104.079L77.1084 103.994H77.0597L76.7579 103.917L76.6541 103.891L76.4041 103.819L76.2678 103.781L76.0504 103.713L75.8946 103.667L75.6901 103.599L75.5343 103.551L75.3071 103.47L75.1741 103.414ZM101.317 102.857L101.437 102.802L101.583 102.731L101.7 102.673L101.84 102.601L101.944 102.546L102.08 102.469L102.171 102.417L102.307 102.329L102.379 102.284L102.521 102.183L102.573 102.145C102.625 102.109 102.677 102.067 102.726 102.028L102.755 102.005C102.814 101.957 102.872 101.908 102.927 101.856C103.119 101.708 103.278 101.521 103.393 101.307C103.507 101.093 103.575 100.857 103.592 100.616C103.592 100.54 103.584 100.466 103.57 100.392C103.632 100.447 103.692 100.505 103.748 100.567C103.75 100.583 103.75 100.599 103.748 100.616C103.747 100.715 103.736 100.813 103.716 100.91C103.716 100.952 103.696 100.995 103.687 101.037C103.66 101.121 103.627 101.203 103.589 101.283C103.568 101.328 103.544 101.373 103.518 101.416C103.111 102.003 102.549 102.466 101.895 102.754C101.759 102.825 101.606 102.896 101.437 102.974H101.421L101.265 102.919L101.197 102.899L101.317 102.857ZM105.319 109.66H105.335C105.29 109.8 105.248 109.942 105.193 110.078H105.017C105.074 109.936 105.125 109.793 105.173 109.651L105.319 109.66ZM105.666 103.878V106.016C105.666 106.226 105.666 106.447 105.666 106.664C105.685 107.168 105.677 107.673 105.64 108.177C105.64 108.27 105.614 108.364 105.601 108.455H105.442C105.442 108.413 105.442 108.371 105.462 108.326C105.515 107.794 105.529 107.259 105.504 106.725C105.504 106.524 105.504 106.314 105.504 106.11V104.215C105.512 103.837 105.496 103.46 105.459 103.084C105.393 102.52 105.229 101.972 104.975 101.464C104.969 101.448 104.962 101.433 104.952 101.419C104.933 101.377 104.91 101.335 104.887 101.296L104.832 101.195C104.819 101.169 104.804 101.145 104.787 101.121C104.761 101.072 104.732 101.024 104.702 100.978L104.68 100.943L104.563 100.768C104.37 100.493 104.152 100.236 103.914 100C103.855 99.945 103.794 99.8867 103.729 99.8316L103.68 99.7895L103.537 99.6696C103.528 99.6585 103.519 99.6466 103.511 99.634L103.443 99.5433L103.404 99.4979L103.333 99.4137L103.287 99.3651L103.213 99.2873L103.161 99.2355L103.07 99.1545L103.034 99.1221C103.85 99.6184 104.521 100.318 104.983 101.153C105.445 101.987 105.68 102.928 105.666 103.881V103.878ZM69.8708 107.917V103.92C69.8617 103.047 70.0526 102.184 70.429 101.396C70.8961 100.453 71.6279 99.6647 72.5354 99.1286L72.5159 99.1448L72.3926 99.2614L72.3666 99.2841C72.3277 99.3197 72.292 99.3586 72.2595 99.3942L72.2336 99.4202L72.1394 99.5303L72.1167 99.5562L72.0258 99.6793L71.922 99.7668L71.8051 99.8672L71.7402 99.9288L71.5909 100.068L71.5487 100.117C71.4936 100.168 71.4416 100.224 71.3897 100.279C71.3378 100.334 71.3605 100.318 71.3443 100.334L71.2015 100.502C71.1787 100.528 71.1593 100.557 71.1365 100.586L71.0262 100.732C70.997 100.771 70.971 100.813 70.9418 100.855L70.8639 100.972C70.825 101.033 70.7893 101.095 70.7536 101.157L70.7114 101.225C70.6627 101.309 70.6173 101.396 70.5751 101.484C70.2047 102.276 70.0257 103.143 70.0525 104.017V107.992C70.0592 108.568 70.1852 109.136 70.4225 109.66C70.5907 110.037 70.7939 110.397 71.0294 110.736C71.1398 110.894 71.2566 111.06 71.3832 111.218C71.7977 111.73 72.2512 112.209 72.7399 112.65C73.0556 112.936 73.3871 113.205 73.733 113.454C73.9472 113.609 74.1647 113.758 74.3821 113.894C74.5152 113.978 74.6483 114.066 74.7846 114.14C75.002 114.264 75.226 114.38 75.4499 114.484C75.888 114.69 76.3488 114.844 76.8228 114.944C76.9784 114.973 77.1355 114.994 77.2934 115.005L77.4492 114.957L77.5498 115.044L78.0724 114.824L78.5527 114.62L87.53 110.784V110.46L77.3973 114.928C77.0746 114.641 76.7801 114.324 76.5177 113.982C76.4236 113.862 76.3392 113.742 76.2581 113.622L76.2289 113.574C75.5871 112.568 75.2626 111.393 75.2974 110.201C75.2974 109.981 75.2974 109.761 75.3331 109.553C75.3702 109.186 75.4309 108.821 75.5149 108.462C75.9062 106.929 76.575 105.481 77.4882 104.189L77.5466 104.111L77.5693 104.079L77.962 103.949L87.5333 100.748V110.467L87.6436 110.418L87.8156 110.454V100.661C89.9025 100.758 91.9814 100.983 94.0407 101.335L94.547 101.419H94.5697L95.0728 101.51H95.1117L95.6148 101.604H95.67L96.1763 101.704H96.2379L96.7475 101.811H96.8157L97.3317 101.924L97.4031 101.94L97.9256 102.064L97.9971 102.08L98.5326 102.209L98.6007 102.229L99.1492 102.368L99.2077 102.384L99.7724 102.537H99.8178L100.402 102.699H100.431L101.041 102.88L101.223 102.935L101.392 102.99C103.297 103.709 103.583 106.071 103.339 108.368C103.3 108.763 103.245 109.155 103.184 109.537C103.154 109.706 103.122 109.861 103.093 110.039C102.92 110.906 102.703 111.763 102.444 112.608C102.369 112.854 102.304 113.055 102.255 113.198C102.233 113.266 102.216 113.314 102.203 113.344L102.051 113.314L102.009 113.392L102.265 113.447L102.074 113.415H102.002L101.97 113.476L101.95 113.512L88.1434 111.568L80.0814 114.05L87.8254 110.995L101.739 113.373L101.704 113.353L87.728 110.697L79.3804 114.354L77.9718 114.957L77.9263 114.996L77.6504 115.103C77.6036 115.135 77.5507 115.157 77.4949 115.168C77.4391 115.18 77.3816 115.179 77.3259 115.167H77.3064C77.1766 115.167 77.0468 115.141 76.9137 115.119C76.2189 114.99 75.55 114.748 74.9339 114.403L74.7067 114.28C74.5996 114.218 74.4925 114.15 74.3821 114.085C74.1647 113.953 73.9537 113.813 73.733 113.664C73.1536 113.256 72.6107 112.799 72.1102 112.297C71.779 111.966 71.469 111.614 71.182 111.244C71.0587 111.086 70.9451 110.92 70.838 110.765C70.6072 110.423 70.4094 110.059 70.2473 109.68C70.0041 109.124 69.876 108.524 69.8708 107.917ZM95.7381 122.042C95.7381 122.042 94.6703 122.136 93.0702 122.2C92.2686 122.233 91.3339 122.262 90.3342 122.281C89.8344 122.281 89.3151 122.304 88.7926 122.304H87.199H85.6054C85.0796 122.304 84.5636 122.288 84.0637 122.281C83.5639 122.275 83.0901 122.259 82.6194 122.246C82.1488 122.233 81.7269 122.217 81.3212 122.197C79.7179 122.132 78.6501 122.042 78.6501 122.042C78.6501 122.042 79.7179 121.951 81.3212 121.886C81.7204 121.87 82.1553 121.85 82.6194 121.841C83.0836 121.831 83.5607 121.812 84.0637 121.805C84.5668 121.799 85.0796 121.782 85.6054 121.779H87.199H88.7926C89.3151 121.779 89.8344 121.795 90.3342 121.802C91.3339 121.821 92.2816 121.85 93.0702 121.886C94.6703 121.951 95.7446 122.042 95.7446 122.042H95.7381ZM74.3789 114.435C74.4016 114.717 74.4211 114.999 74.4406 115.274C74.46 115.414 74.4763 115.55 74.4925 115.686C74.5087 115.822 74.5249 115.955 74.5412 116.084C74.5866 116.347 74.6321 116.599 74.6742 116.839C74.7164 117.079 74.7781 117.302 74.8235 117.513C74.8235 117.565 74.8463 117.613 74.856 117.665C74.8657 117.717 74.9014 117.859 74.9242 117.947C74.9469 118.034 74.9501 118.038 74.9631 118.076C75.0085 118.245 75.0507 118.4 75.0864 118.511L75.1319 118.669C75.1319 118.695 75.1319 118.715 75.1513 118.734V118.789L75.1773 118.886L75.0605 118.608C75.0605 118.582 75.0377 118.556 75.028 118.527L74.8528 118.109C74.8171 118.028 74.7813 117.94 74.7489 117.85C74.7164 117.759 74.6807 117.662 74.645 117.558C74.5769 117.354 74.486 117.137 74.4178 116.91L74.3075 116.544C74.2718 116.421 74.2328 116.295 74.1939 116.165C74.129 115.903 74.0641 115.631 73.9959 115.352C73.9278 115.073 73.8856 114.788 73.8304 114.503C73.7752 114.218 73.7622 114.03 73.733 113.794C73.9407 113.936 74.1485 114.072 74.3562 114.199C74.3757 114.27 74.3789 114.354 74.3789 114.435ZM75.1319 114.779L75.002 114.545C75.5375 114.834 76.1112 115.046 76.706 115.174L76.5048 115.239L75.1319 114.779ZM61.1564 109.871C61.2894 109.919 61.4257 109.965 61.5588 110.007C61.8282 110.094 62.1008 110.175 62.3735 110.247C62.5098 110.285 62.6461 110.321 62.7824 110.353L63.1913 110.454C63.3309 110.49 63.4672 110.519 63.6068 110.548C63.8794 110.613 64.1585 110.661 64.4344 110.713C64.7103 110.765 64.9894 110.804 65.2685 110.843L66.1059 110.94C66.385 110.966 66.6641 110.982 66.9432 111.001C67.2224 111.021 67.4982 111.024 67.7839 111.021C68.0695 111.018 68.3453 111.021 68.6212 111.021L69.0399 111.001L69.4586 110.966C69.5949 110.966 69.7345 110.94 69.874 110.924L70.2862 110.869L70.6984 110.801H70.7536C70.8607 110.963 70.971 111.124 71.0781 111.28C70.8347 111.322 70.5848 111.351 70.3381 111.384L70.1239 111.403L69.9097 111.423C69.7637 111.423 69.6209 111.445 69.4781 111.448C69.1924 111.465 68.9036 111.474 68.618 111.471C68.3324 111.468 68.0403 111.471 67.7611 111.448C67.6216 111.448 67.4755 111.448 67.3327 111.423L66.9043 111.384C66.6187 111.348 66.3363 111.316 66.054 111.274C65.4892 111.185 64.9299 111.077 64.376 110.95C63.2714 110.691 62.1935 110.33 61.1564 109.871ZM76.3555 122.317C76.2743 122.184 76.1834 122.051 76.0893 121.922C75.901 121.659 75.6938 121.41 75.4694 121.177C75.3558 121.06 75.239 120.943 75.1189 120.83C74.9988 120.717 74.869 120.61 74.7392 120.506C74.4763 120.292 74.2022 120.092 73.918 119.907C73.772 119.816 73.6259 119.725 73.4766 119.638L73.0255 119.382C72.4186 119.058 71.7824 118.75 71.1463 118.475L70.1953 118.073L69.2606 117.691C68.936 117.561 68.6342 117.422 68.3389 117.273C68.0435 117.124 67.7611 116.969 67.495 116.8C66.9923 116.492 66.5138 116.147 66.0637 115.767C65.6838 115.451 65.3239 115.113 64.9862 114.753C64.9115 114.672 64.8369 114.594 64.7687 114.516C64.5642 114.289 64.3857 114.079 64.2429 113.891C64.1456 113.768 64.0612 113.655 63.9898 113.567C63.9184 113.48 63.8567 113.382 63.8113 113.314L63.7496 113.22L63.6749 113.114L63.7269 113.156L63.7853 113.211L63.8697 113.285L63.9735 113.376L64.1001 113.489L64.4247 113.761C64.6584 113.962 64.9472 114.205 65.2848 114.471C65.6223 114.737 66.015 115.018 66.4434 115.316C66.5505 115.391 66.6641 115.465 66.768 115.537C67.112 115.757 67.4788 115.981 67.8682 116.185C68.4184 116.478 68.9851 116.74 69.5657 116.969L70.5134 117.348C70.9905 117.545 71.4871 117.756 71.9642 117.995C72.4413 118.235 72.9379 118.468 73.4117 118.734C74.0506 119.092 74.6519 119.513 75.2065 119.991C75.4817 120.227 75.7408 120.482 75.9822 120.752C76.0958 120.888 76.2094 121.028 76.3068 121.167C76.4041 121.306 76.5145 121.452 76.6054 121.601C76.7901 121.887 76.956 122.184 77.1019 122.492C77.241 122.784 77.3613 123.085 77.4622 123.392C77.6438 123.951 77.7795 124.523 77.8679 125.103C77.949 125.637 77.9815 126.133 78.0075 126.567C78.0334 127.001 78.0237 127.384 78.0075 127.695C78.0075 127.931 78.0075 128.125 77.9847 128.281C77.9847 128.333 77.9847 128.378 77.9847 128.42C77.9847 128.585 77.9847 128.676 77.9847 128.676L77.962 128.42C77.962 128.255 77.9328 128.009 77.8971 127.701C77.8614 127.393 77.8257 127.018 77.764 126.593C77.764 126.486 77.7283 126.376 77.7121 126.269C77.6959 126.162 77.6732 126.042 77.6537 125.923C77.6083 125.686 77.5596 125.44 77.4947 125.184C77.4298 124.928 77.3616 124.666 77.2805 124.394C77.1993 124.121 77.1019 123.853 76.9884 123.577C76.8725 123.298 76.7425 123.024 76.5989 122.758C76.5177 122.586 76.4398 122.453 76.3555 122.317ZM95.3941 136.707C95.2156 136.619 95.0338 136.542 94.8488 136.464C94.4821 136.308 94.1056 136.185 93.7291 136.065C93.3526 135.946 92.9631 135.852 92.5769 135.764C92.3854 135.712 92.1907 135.683 91.996 135.641C91.8012 135.599 91.6065 135.567 91.4117 135.534L90.8243 135.44L90.2368 135.369C89.9415 135.327 89.6462 135.311 89.3476 135.285L89.0522 135.259L88.4615 135.226L87.8708 135.197H86.6732L85.4918 135.226L84.3072 135.304C83.9144 135.35 83.5185 135.369 83.129 135.431L82.5416 135.515L81.9573 135.618C81.7626 135.651 81.5711 135.69 81.3796 135.732C81.1881 135.774 80.9902 135.81 80.8019 135.865L80.2307 136.014L79.666 136.189C79.481 136.253 79.296 136.315 79.111 136.383C78.926 136.451 78.7475 136.525 78.5657 136.606C78.2105 136.757 77.8686 136.937 77.5433 137.144L77.4849 137.183H77.4362C76.706 137.164 75.9757 137.144 75.2455 137.109C74.5152 137.073 73.7817 137.053 73.0514 137.011C73.7817 136.966 74.5152 136.94 75.2455 136.911C75.9757 136.882 76.667 136.859 77.3811 136.84C77.7004 136.61 78.0405 136.41 78.3969 136.244C78.7637 136.062 79.1402 135.92 79.5199 135.764L80.0944 135.57L80.6786 135.398C80.776 135.369 80.8733 135.346 80.9739 135.32L81.2693 135.249C81.464 135.201 81.662 135.155 81.86 135.12L82.4572 135.006L83.0576 134.919C83.4568 134.851 83.8593 134.825 84.2617 134.779C84.6642 134.734 85.0666 134.731 85.4691 134.705L86.6829 134.685L87.8805 134.721C88.2862 134.75 88.6919 134.773 89.0944 134.812C89.4969 134.851 89.8961 134.893 90.292 134.967L90.8892 135.064L91.4832 135.188C91.6811 135.226 91.8759 135.275 92.0706 135.327C92.168 135.356 92.2653 135.379 92.3627 135.405L92.6548 135.486L93.2325 135.667L93.8005 135.874C94.1737 136.027 94.5437 136.198 94.9008 136.373C95.1704 136.506 95.4297 136.659 95.6765 136.83C95.7608 136.888 95.842 136.947 95.9199 137.011C95.7504 136.9 95.5748 136.799 95.3941 136.707ZM97.3674 131.268H97.1143L96.5365 131.29C96.0172 131.313 95.4038 131.339 94.719 131.358C93.6252 131.394 92.3465 131.42 90.9768 131.439H89.935H88.8672H86.6894H84.5084C83.7911 131.439 83.0836 131.439 82.3987 131.417C81.0291 131.417 79.7503 131.371 78.6566 131.336C77.5628 131.3 76.6476 131.258 76.0082 131.235C75.3688 131.213 75.0053 131.184 75.0053 131.184C75.0053 131.184 75.3688 131.158 76.0082 131.132C76.6476 131.106 77.5596 131.06 78.6566 131.028C79.6303 130.999 80.711 130.973 81.9022 130.954H82.4117C83.0965 130.954 83.8041 130.931 84.5214 130.931H86.7024H88.8802H89.948H90.9898L91.9992 130.947L93.8784 130.989L94.732 131.015C95.5564 131.038 96.2736 131.07 96.8514 131.093H97.1272H97.3804C98.0295 131.119 98.3833 131.145 98.3833 131.145C98.3833 131.145 97.9971 131.239 97.3674 131.268ZM100.314 129.998C99.1784 130.069 98.0425 130.124 96.9065 130.17L95.2058 130.231L93.5019 130.283C92.366 130.309 91.23 130.341 90.094 130.351C88.9581 130.361 87.8221 130.387 86.6894 130.387C85.5567 130.387 84.4175 130.403 83.2815 130.387C82.1456 130.37 81.0096 130.387 79.8737 130.361C78.7377 130.335 77.6018 130.335 76.4691 130.302C75.3363 130.27 74.1971 130.244 73.0612 130.205L72.6133 130.189L72.8924 129.865C73.3728 129.288 73.8661 128.721 74.3529 128.151C74.8398 127.581 75.3266 127.021 75.8394 126.464C75.4142 127.082 74.9826 127.695 74.5412 128.307C74.1907 128.793 73.8401 129.279 73.4864 129.768C74.4795 129.735 75.4694 129.703 76.4626 129.684C77.5985 129.651 78.7345 129.642 79.8672 129.625C80.9999 129.609 82.1391 129.609 83.2751 129.599C84.411 129.59 85.547 129.599 86.6829 129.599C87.8189 129.599 88.9548 129.619 90.0876 129.635C91.2203 129.651 92.3595 129.68 93.4954 129.706L95.1994 129.755L96.9 129.816C98.0327 129.868 99.1687 129.923 100.305 129.998H100.314ZM102.826 118.18C102.21 118.527 101.59 118.89 100.993 119.278C100.544 119.565 100.111 119.874 99.6945 120.205C99.5582 120.315 99.4251 120.428 99.2953 120.545C98.7837 120.991 98.3253 121.494 97.9289 122.045C97.5625 122.565 97.2555 123.125 97.0136 123.713C96.9552 123.856 96.9 123.995 96.8514 124.134C96.7507 124.413 96.6664 124.688 96.595 124.957C96.556 125.09 96.5235 125.223 96.4911 125.352C96.3772 125.828 96.2884 126.309 96.225 126.794C96.1958 127.011 96.173 127.215 96.1536 127.403C96.1341 127.591 96.1179 127.766 96.1081 127.925C96.0757 128.249 96.0659 128.485 96.0562 128.653L96.04 128.913V128.848C96.04 128.802 96.04 128.738 96.04 128.653C96.04 128.485 96.0237 128.236 96.04 127.921C96.0562 127.607 96.0562 127.218 96.0854 126.778C96.0854 126.558 96.1211 126.324 96.1503 126.078C96.1503 125.955 96.1795 125.829 96.1958 125.699C96.212 125.569 96.2347 125.437 96.2607 125.301C96.3645 124.719 96.5165 124.147 96.715 123.59C96.8236 123.285 96.9504 122.986 97.0948 122.696C97.1694 122.547 97.2506 122.398 97.3349 122.252C97.4193 122.106 97.5102 121.957 97.6043 121.812C97.6985 121.666 97.8023 121.523 97.9062 121.384C98.01 121.245 98.1269 121.105 98.2307 120.969C98.4658 120.696 98.7173 120.438 98.9837 120.195C99.5227 119.701 100.101 119.251 100.714 118.851C101.324 118.449 101.947 118.073 102.567 117.72C103.187 117.367 103.803 117.03 104.397 116.706C104.991 116.382 105.595 116.087 106.166 115.841C106.737 115.595 107.279 115.365 107.789 115.154L108.153 114.996C108.386 114.895 108.61 114.795 108.821 114.694C108.925 114.643 109.026 114.594 109.12 114.542C109.314 114.442 109.493 114.348 109.658 114.254C109.824 114.16 109.967 114.066 110.093 113.975C110.207 113.901 110.316 113.819 110.418 113.729C110.502 113.667 110.582 113.6 110.658 113.528L110.84 113.366L110.746 113.483L110.678 113.57C110.614 113.654 110.544 113.733 110.47 113.807C110.372 113.911 110.27 114.009 110.162 114.102C109.957 114.288 109.74 114.46 109.512 114.617L109.243 114.798C108.824 115.066 108.391 115.31 107.945 115.53C107.705 115.653 107.448 115.78 107.185 115.906L106.358 116.298L105.511 116.719C105.225 116.868 104.933 117.02 104.641 117.186C104.195 117.434 103.741 117.684 103.278 117.937L102.826 118.18Z" fill="#6A5938"/>
<path d="M82.7394 105.109C82.7394 104.646 82.2331 104.267 81.6165 104.267C80.9998 104.267 80.4902 104.636 80.4902 105.109C80.4902 105.582 80.9933 105.954 81.6132 105.954C82.2331 105.954 82.7394 105.575 82.7394 105.109ZM81.2822 104.685C81.2023 104.693 81.1218 104.693 81.042 104.685C81.1748 104.564 81.3495 104.5 81.5288 104.506C81.6374 104.504 81.7452 104.524 81.8454 104.566C81.9455 104.608 82.0356 104.67 82.1098 104.749C82.1817 104.833 82.2239 104.937 82.2299 105.047C82.1063 104.902 81.9477 104.79 81.769 104.723C81.6673 104.677 81.5562 104.655 81.4444 104.659L81.2822 104.685Z" fill="#6A5938"/>
<path d="M78.1762 107.752C77.9254 107.735 77.6751 107.793 77.4569 107.917C77.2386 108.042 77.062 108.228 76.9494 108.452C76.9175 108.535 76.9 108.622 76.8975 108.711C76.9111 108.89 76.9754 109.061 77.0829 109.204C77.1904 109.348 77.3366 109.457 77.5044 109.521C77.7153 109.617 77.9444 109.667 78.1762 109.667C78.4167 109.663 78.6532 109.604 78.8675 109.495C79.0276 109.428 79.1659 109.319 79.2669 109.178C79.3678 109.037 79.4273 108.871 79.4388 108.698C79.4379 108.609 79.4203 108.521 79.3868 108.439C79.2741 108.219 79.0994 108.037 78.8843 107.915C78.6692 107.793 78.4231 107.736 78.1762 107.752ZM78.7734 109.323C78.8286 109.025 78.9649 108.721 78.741 108.452L78.7247 108.429C78.4813 108.164 78.1632 108.267 77.9036 108.105H77.8517C78.0444 108.042 78.2517 108.04 78.446 108.098C78.6403 108.156 78.8123 108.271 78.9389 108.429C79.0004 108.493 79.0458 108.571 79.0713 108.656C79.0967 108.741 79.1016 108.831 79.0854 108.919C79.0693 109.006 79.0326 109.088 78.9783 109.159C78.9241 109.229 78.8538 109.285 78.7734 109.323Z" fill="#6A5938"/>
<path d="M96.3517 105.864C96.1616 105.895 95.9846 105.981 95.8418 106.11C95.699 106.239 95.5964 106.406 95.5461 106.592C95.4958 106.778 95.5 106.974 95.5582 107.157C95.6164 107.341 95.7261 107.504 95.8743 107.626C96.0225 107.749 96.203 107.827 96.3942 107.851C96.5855 107.874 96.7795 107.843 96.9532 107.759C97.1269 107.676 97.2729 107.545 97.374 107.381C97.4751 107.217 97.5269 107.028 97.5233 106.835C97.4929 106.553 97.3536 106.294 97.1349 106.112C96.9161 105.931 96.6352 105.842 96.3517 105.864ZM97.1176 107.137C97.0592 107.222 96.9843 107.294 96.8973 107.35C96.8104 107.406 96.7131 107.443 96.6113 107.461C96.7075 107.405 96.7879 107.326 96.8448 107.231C96.9016 107.136 96.933 107.027 96.9359 106.916C96.9382 106.769 96.8822 106.627 96.7801 106.521C96.7233 106.466 96.6562 106.423 96.5827 106.394C96.5092 106.365 96.4307 106.351 96.3517 106.353H96.2705L95.9914 106.385C96.0961 106.31 96.2227 106.271 96.3517 106.275C96.489 106.275 96.6244 106.307 96.7473 106.368C96.8701 106.429 96.9769 106.518 97.0592 106.628C97.1183 106.698 97.1554 106.783 97.1658 106.874C97.1762 106.964 97.1595 107.056 97.1176 107.137Z" fill="#6A5938"/>
<path d="M95.6732 103.923C95.7132 103.693 95.6814 103.457 95.5821 103.246C95.4829 103.035 95.321 102.859 95.1185 102.743C94.9159 102.627 94.6825 102.576 94.4498 102.596C94.2171 102.617 93.9964 102.709 93.8176 102.859C93.6388 103.009 93.5105 103.21 93.4502 103.435C93.3899 103.661 93.4005 103.899 93.4805 104.118C93.5604 104.337 93.706 104.526 93.8973 104.66C94.0887 104.794 94.3166 104.866 94.5503 104.866C94.824 104.888 95.0952 104.801 95.3054 104.624C95.5155 104.448 95.6476 104.196 95.6732 103.923ZM95.3 104.066C95.1671 103.882 94.9703 103.755 94.7482 103.709C94.6657 103.687 94.5806 103.676 94.4951 103.677C94.386 103.681 94.2774 103.694 94.1705 103.716C94.0762 103.734 93.9808 103.746 93.8849 103.752C93.9336 103.428 94.349 103.385 94.599 103.385C94.6497 103.382 94.7007 103.382 94.7515 103.385C95.1896 103.421 95.3227 103.57 95.326 104.033L95.3 104.066Z" fill="#6A5938"/>
<path d="M83.9308 105.643C83.787 105.644 83.6452 105.676 83.5153 105.737L83.4439 105.776L83.3952 105.757L83.4277 105.783L83.3887 105.812L83.3433 105.844C83.3141 105.864 83.2869 105.887 83.2622 105.912C83.2473 105.924 83.2332 105.937 83.22 105.951L83.1518 106.035C83.1411 106.047 83.1313 106.06 83.1226 106.074C83.0928 106.117 83.0668 106.163 83.0447 106.21C83.0014 106.307 82.979 106.412 82.979 106.518C82.979 106.624 83.0014 106.729 83.0447 106.826C83.1118 106.96 83.216 107.071 83.3449 107.148C83.4738 107.224 83.6219 107.262 83.7717 107.257C83.8821 107.258 83.9918 107.24 84.0963 107.205L84.1969 107.163C84.4057 107.067 84.5728 106.899 84.6675 106.69C84.7116 106.593 84.7345 106.488 84.7345 106.382C84.7345 106.276 84.7116 106.171 84.6675 106.074C84.6001 105.939 84.4944 105.826 84.3636 105.749C84.2327 105.672 84.0823 105.636 83.9308 105.643ZM84.0249 106.939L83.723 107.072L83.9762 106.861C84.0321 106.826 84.0792 106.779 84.114 106.722C84.1489 106.666 84.1706 106.603 84.1774 106.537C84.1774 106.353 83.9665 106.194 83.762 106.039L83.6224 105.928L83.5056 105.834L83.5543 105.805L83.9145 105.951C84.1872 105.915 84.3754 106.019 84.4208 106.226C84.4416 106.374 84.4143 106.524 84.343 106.655C84.2717 106.785 84.1602 106.89 84.0249 106.952V106.939Z" fill="#6A5938"/>
<path d="M92.0802 105.932C92.0802 105.462 91.5446 105.08 90.8858 105.08C90.2269 105.08 89.6914 105.462 89.6914 105.932C89.6914 106.401 90.2269 106.787 90.8858 106.787C91.5446 106.787 92.0802 106.398 92.0802 105.932ZM91.6777 106.149C91.6645 106.177 91.6493 106.204 91.6323 106.23C91.6422 106.178 91.6422 106.125 91.6323 106.074C91.6037 105.905 91.522 105.749 91.3989 105.629C91.2758 105.509 91.1177 105.431 90.9474 105.407C91.0792 105.405 91.2096 105.434 91.3288 105.49C91.448 105.546 91.5529 105.628 91.6355 105.731C91.6757 105.791 91.7006 105.859 91.708 105.931C91.7153 106.003 91.7049 106.075 91.6777 106.142V106.149Z" fill="#6A5938"/>
<path d="M99.8697 111.64C100.143 111.661 100.415 111.575 100.625 111.398C100.835 111.222 100.967 110.97 100.993 110.697C100.99 110.5 100.919 110.31 100.791 110.159C100.676 110.029 100.534 109.926 100.375 109.856C100.216 109.786 100.044 109.751 99.8697 109.754C99.6901 109.751 99.5121 109.788 99.349 109.863C99.1859 109.938 99.0422 110.05 98.9285 110.188C98.8139 110.333 98.7511 110.512 98.75 110.697C98.7756 110.969 98.9073 111.221 99.1167 111.397C99.3261 111.573 99.5965 111.661 99.8697 111.64ZM100.087 110.062H100.236C100.363 110.065 100.488 110.098 100.6 110.156C100.753 110.25 100.811 110.418 100.811 110.723C100.677 110.541 100.48 110.416 100.259 110.37C100.176 110.347 100.089 110.335 100.003 110.334C99.8937 110.338 99.7851 110.351 99.6782 110.373C99.5842 110.393 99.4887 110.405 99.3926 110.409C99.4007 110.357 99.4204 110.308 99.4502 110.265C99.48 110.221 99.5191 110.185 99.5646 110.159C99.7284 110.085 99.9077 110.052 100.087 110.062Z" fill="#6A5938"/>
<path d="M100.824 107.189L100.766 107.211L100.704 107.244L100.655 107.273L100.597 107.315L100.558 107.347L100.506 107.399L100.477 107.432C100.46 107.451 100.445 107.471 100.431 107.493L100.409 107.529C100.396 107.549 100.385 107.571 100.376 107.594V107.629C100.367 107.655 100.36 107.681 100.353 107.707V107.739C100.35 107.777 100.35 107.815 100.353 107.853C100.357 107.976 100.393 108.096 100.457 108.201C100.521 108.306 100.612 108.393 100.72 108.452C100.874 108.546 101.05 108.596 101.23 108.596C101.41 108.596 101.586 108.546 101.739 108.452C101.867 108.386 101.971 108.281 102.035 108.152C102.099 108.024 102.121 107.878 102.096 107.736V107.701C102.09 107.675 102.081 107.65 102.07 107.626C102.066 107.612 102.06 107.598 102.054 107.584C102.044 107.562 102.032 107.54 102.018 107.519L101.996 107.48C101.979 107.457 101.961 107.436 101.941 107.415C101.935 107.405 101.927 107.397 101.918 107.39C101.89 107.36 101.859 107.333 101.827 107.309L101.798 107.286L101.72 107.237L101.681 107.218C101.668 107.209 101.654 107.203 101.639 107.198H101.597L101.528 107.176L101.434 107.153H101.327H101.262C101.232 107.151 101.202 107.151 101.171 107.153H101.139H101.064H101.025H101.009H100.964H100.925H100.883L100.824 107.189ZM100.902 107.513L100.931 107.49C100.941 107.482 100.952 107.475 100.964 107.471H100.983H101.012H101.032H101.055L101.113 107.454C101.19 107.44 101.268 107.432 101.347 107.432H101.46C101.785 107.458 101.889 107.561 101.895 107.911C101.787 107.783 101.64 107.695 101.476 107.658C101.411 107.64 101.343 107.631 101.275 107.633C101.187 107.634 101.099 107.643 101.012 107.662C100.944 107.674 100.874 107.683 100.805 107.688C100.81 107.666 100.818 107.646 100.827 107.626C100.828 107.618 100.828 107.611 100.827 107.603L100.85 107.574C100.859 107.545 100.877 107.519 100.902 107.5V107.513Z" fill="#6A5938"/>
<path d="M100.266 105.394C100.301 105.397 100.335 105.397 100.37 105.394H100.396H100.428H100.464H100.496C100.52 105.386 100.543 105.376 100.565 105.365H100.587L100.665 105.313C100.665 105.313 100.665 105.313 100.681 105.297L100.73 105.245L100.75 105.219L100.782 105.17V105.141C100.791 105.122 100.799 105.103 100.805 105.083C100.806 105.074 100.806 105.065 100.805 105.057C100.808 105.027 100.808 104.996 100.805 104.966C100.808 104.94 100.808 104.914 100.805 104.888C100.807 104.88 100.807 104.871 100.805 104.863C100.803 104.853 100.803 104.843 100.805 104.833V104.814V104.791L100.785 104.752L100.763 104.723C100.755 104.711 100.746 104.699 100.737 104.688L100.707 104.658L100.678 104.629L100.642 104.607L100.607 104.581L100.571 104.561L100.529 104.542L100.487 104.526H100.454V104.506L100.435 104.49H100.419H100.396H100.376H100.354H100.328H100.289H100.263H99.8246L99.8992 104.714L99.8538 104.752L99.8246 104.785L99.7921 104.833L99.7694 104.869C99.7604 104.888 99.7528 104.907 99.7467 104.927C99.7472 104.938 99.7472 104.949 99.7467 104.96C99.7433 104.993 99.7433 105.027 99.7467 105.06C99.7885 105.162 99.8608 105.249 99.9537 105.309C100.047 105.368 100.156 105.398 100.266 105.394ZM100.341 104.574L100.409 104.61H100.435L100.47 104.626V104.581L100.558 104.597C100.604 104.625 100.644 104.662 100.675 104.706C100.706 104.75 100.728 104.8 100.74 104.853L100.694 104.931C100.631 104.853 100.543 104.799 100.444 104.778C100.276 104.73 100.146 104.801 99.9933 104.798C100.003 104.636 100.185 104.581 100.341 104.574Z" fill="#6A5938"/>
<path d="M82.2753 109.592C82.0529 109.582 81.8324 109.638 81.6421 109.753C81.4518 109.869 81.3005 110.038 81.2075 110.24C81.1727 110.33 81.154 110.426 81.1523 110.522C81.1976 110.787 81.3351 111.027 81.5406 111.2C81.7462 111.373 82.0064 111.468 82.2753 111.468C82.5443 111.468 82.8045 111.373 83.01 111.2C83.2155 111.027 83.3531 110.787 83.3983 110.522C83.3966 110.428 83.3779 110.335 83.3432 110.247C83.2519 110.043 83.1011 109.872 82.9106 109.755C82.7201 109.638 82.4986 109.581 82.2753 109.592ZM82.9959 110.457L82.9569 110.522C82.931 110.415 82.8076 110.325 82.6778 110.256C82.5965 110.217 82.5118 110.184 82.4246 110.159C82.0838 110.065 81.8177 110.208 81.5094 110.201C81.5094 109.771 82.0936 109.725 82.4246 109.751C82.8368 109.787 82.9894 109.929 83.0283 110.26C83.0317 110.301 83.0317 110.342 83.0283 110.383L82.9959 110.457Z" fill="#6A5938"/>
<path d="M84.8622 103.969C84.9997 103.976 85.1364 103.943 85.2545 103.872C85.3727 103.802 85.4669 103.697 85.525 103.573C85.5831 103.448 85.6024 103.309 85.5804 103.173C85.5584 103.038 85.4962 102.912 85.4017 102.812C85.3072 102.712 85.1848 102.642 85.0504 102.613C84.9159 102.583 84.7757 102.594 84.6476 102.645C84.5196 102.695 84.4098 102.783 84.3323 102.897C84.2548 103.01 84.2133 103.144 84.2131 103.282C84.2087 103.459 84.2745 103.63 84.396 103.759C84.5176 103.887 84.6852 103.963 84.8622 103.969ZM84.6253 102.883C85.1608 102.786 85.4627 103.305 85.0083 103.648C85.0589 103.58 85.089 103.499 85.0952 103.414C85.1013 103.33 85.0833 103.245 85.0432 103.17C85.003 103.096 84.9424 103.034 84.8684 102.992C84.7944 102.951 84.7101 102.931 84.6253 102.935V102.883Z" fill="#6A5938"/>
<path d="M81.1719 108.403C81.1897 108.421 81.2093 108.438 81.2303 108.452H81.2595L81.2985 108.475H81.3374H81.3569L81.318 108.523L81.3764 108.481H81.4121C81.438 108.484 81.4641 108.484 81.49 108.481C81.5837 108.481 81.6749 108.45 81.7496 108.394C81.8098 108.349 81.8585 108.291 81.8918 108.224C81.9251 108.157 81.942 108.083 81.9411 108.008C81.9464 107.946 81.9387 107.883 81.9183 107.823C81.898 107.764 81.8655 107.709 81.8229 107.663C81.7804 107.617 81.7287 107.58 81.6711 107.555C81.6135 107.529 81.5513 107.516 81.4884 107.516C81.4254 107.516 81.3632 107.529 81.3056 107.555C81.248 107.58 81.1963 107.617 81.1538 107.663C81.1112 107.709 81.0787 107.764 81.0584 107.823C81.038 107.883 81.0303 107.946 81.0356 108.008C81.0324 108.037 81.0324 108.067 81.0356 108.096C81.0341 108.104 81.0341 108.113 81.0356 108.122C81.0395 108.141 81.0449 108.161 81.0518 108.18V108.206C81.058 108.223 81.0656 108.239 81.0745 108.254C81.0792 108.263 81.0846 108.272 81.0908 108.28C81.1019 108.296 81.1138 108.311 81.1265 108.326L81.1719 108.403ZM81.3309 107.801C81.688 107.736 81.8924 108.083 81.5873 108.309C81.6205 108.264 81.6401 108.21 81.6438 108.154C81.6475 108.098 81.6353 108.042 81.6085 107.992C81.5817 107.943 81.5414 107.902 81.4923 107.874C81.4431 107.847 81.3872 107.834 81.3309 107.836V107.801Z" fill="#6A5938"/>
<path d="M78.2672 106.904H78.3158L78.2996 106.929L78.3256 106.904H78.358H78.384L78.4781 106.881C78.62 106.84 78.7436 106.752 78.8286 106.631C78.8676 106.578 78.8938 106.516 78.905 106.451C78.9163 106.386 78.9124 106.319 78.8936 106.256C78.8562 106.159 78.7887 106.077 78.7011 106.021C78.6134 105.966 78.5102 105.94 78.4067 105.948C78.3351 105.947 78.2639 105.958 78.1958 105.98C78.0586 106.01 77.9384 106.092 77.8608 106.209C77.7832 106.325 77.7543 106.468 77.7803 106.605C77.8188 106.701 77.8869 106.781 77.9746 106.835C78.0622 106.888 78.1647 106.912 78.2672 106.904ZM78.5333 106.615C78.6696 106.375 78.384 106.145 78.0692 106.262V106.23C78.4879 106.013 78.8481 106.256 78.543 106.602L78.5333 106.615Z" fill="#6A5938"/>
<path d="M86.1311 108.452C85.9987 108.333 85.8259 108.268 85.6475 108.271C85.555 108.272 85.4632 108.286 85.3748 108.313C85.2769 108.344 85.1848 108.391 85.1022 108.452C85.032 108.505 84.9707 108.568 84.9204 108.64C84.8705 108.708 84.8369 108.787 84.8223 108.87C84.8077 108.953 84.8124 109.038 84.8361 109.119C84.8675 109.208 84.9203 109.287 84.99 109.351C85.0596 109.414 85.1439 109.459 85.2353 109.482C85.3098 109.506 85.3875 109.518 85.4657 109.518C85.5458 109.515 85.6253 109.503 85.7026 109.482H85.7383C85.9151 109.445 86.0701 109.34 86.1702 109.189C86.2703 109.039 86.3075 108.856 86.2739 108.679C86.2461 108.592 86.197 108.514 86.1311 108.452ZM85.8065 109.148C85.985 108.825 85.6085 108.533 85.1963 108.685V108.64C85.7513 108.374 86.2252 108.705 85.813 109.148H85.8065Z" fill="#6A5938"/>
<path d="M92.7457 108.663C92.0966 108.663 91.5708 109.025 91.4864 109.492C91.4778 109.535 91.4724 109.578 91.4702 109.622C91.475 109.744 91.5066 109.863 91.5626 109.972C91.6187 110.08 91.6979 110.175 91.7948 110.25C92.0659 110.467 92.4049 110.581 92.7522 110.574C93.1075 110.583 93.4538 110.462 93.7259 110.234C93.822 110.161 93.9009 110.067 93.9569 109.96C94.013 109.853 94.0449 109.736 94.0505 109.615C94.0482 109.576 94.0428 109.537 94.0342 109.498C93.9304 109.032 93.3981 108.663 92.7457 108.663ZM92.71 109.016C92.8794 109.017 93.0454 109.063 93.1917 109.148C93.338 109.233 93.4595 109.355 93.5442 109.502C93.5598 109.531 93.5729 109.561 93.5831 109.592C93.6122 109.687 93.6117 109.788 93.5815 109.883C93.5514 109.977 93.493 110.06 93.4143 110.12V110.078C93.4802 109.893 93.4881 109.692 93.4371 109.502C93.4098 109.431 93.369 109.366 93.317 109.311C93.1819 109.177 93.0034 109.097 92.8139 109.084C92.732 109.073 92.6515 109.053 92.5737 109.025C92.6188 109.018 92.6644 109.015 92.71 109.016Z" fill="#6A5938"/>
<path d="M98.3506 112.689L87.8154 110.438V110.684L98.3506 112.689Z" fill="#6A5938"/>
</g>
<defs>
<clipPath id="clip0_327_21">
<rect width="172" height="148" fill="white"/>
</clipPath>
</defs>
</svg>
