<svg width="27" height="27" viewBox="0 0 27 27" fill="none" xmlns="http://www.w3.org/2000/svg">
<circle cx="13.5" cy="13.5" r="12.5" fill="#C9DFF2" stroke="white" stroke-opacity="0.25"/>
<path d="M19.8904 7.08616L6.69555 12.4234C5.79505 12.8028 5.80026 13.3297 6.53033 13.5647L9.91798 14.6732L17.756 9.48585C18.1266 9.24932 18.4653 9.37656 18.1869 9.63573L11.8366 15.6474H11.8351L11.8366 15.6482L11.6029 19.311C11.9452 19.311 12.0963 19.1463 12.2883 18.9519L13.9338 17.2735L17.3564 19.9253C17.9875 20.2899 18.4407 20.1026 18.5977 19.3125L20.8445 8.2056C21.0745 7.23839 20.4925 6.80045 19.8904 7.08616Z" fill="#2E3559"/>
<path d="M10.1939 15.0902L15.1923 11.7822L11.4928 15.2843L11.7376 15.543L11.7136 15.6404L11.3376 15.6164L11.1039 19.2792L11.07 19.811H11.6029C11.8651 19.811 12.0809 19.7448 12.2673 19.6281C12.4178 19.5339 12.5393 19.4099 12.6216 19.3261C12.6294 19.3181 12.6369 19.3105 12.644 19.3033L12.6453 19.3019L13.9793 17.9413L17.0501 20.3206L17.0769 20.3414L17.1063 20.3583C17.4792 20.5737 17.9376 20.7074 18.3683 20.504C18.7936 20.3032 18.9977 19.8643 19.0879 19.411C19.088 19.4107 19.0881 19.4104 19.0881 19.41L21.333 8.31259C21.4676 7.73761 21.3915 7.18589 21.0355 6.82493C20.6666 6.45096 20.137 6.42186 19.6908 6.62758L6.50806 11.9599L6.50804 11.9598L6.50142 11.9626C6.24235 12.0718 6.01799 12.2037 5.84714 12.3622C5.67834 12.5187 5.52941 12.733 5.50376 13.0005C5.47657 13.2839 5.59719 13.5247 5.76939 13.6956C5.93286 13.8577 6.14907 13.9671 6.37591 14.0403C6.37632 14.0404 6.37673 14.0405 6.37714 14.0406L9.76249 15.1484L9.99229 15.2236L10.1939 15.0902Z" stroke="white" stroke-opacity="0.25"/>
</svg>
