<svg width="27" height="27" viewBox="0 0 27 27" fill="none" xmlns="http://www.w3.org/2000/svg">
<circle cx="13.5" cy="13.5" r="12.5" fill="#DEC9F2" stroke="white" stroke-opacity="0.25"/>
<path d="M19.1245 17.561C18.4567 18.1561 17.4888 18.5829 16.2209 18.8415C14.9529 19.1 13.6463 19.1756 12.3009 19.0683L9.74572 21V18.5854C8.90366 18.322 8.24549 17.9805 7.77123 17.561C7.20986 17.0634 6.77431 16.3488 6.46458 15.4171C6.15486 14.4854 6 13.5341 6 12.5634C6 11.5927 6.15486 10.6415 6.46458 9.70976C6.77431 8.77805 7.21228 8.06098 7.77849 7.55854C8.3447 7.0561 9.15531 6.67073 10.2103 6.40244C11.2653 6.13415 12.3445 6 13.4479 6C14.5513 6 15.6305 6.13415 16.6855 6.40244C17.7404 6.67073 18.5511 7.0561 19.1173 7.55854C19.6835 8.06098 20.1214 8.77805 20.4312 9.70976C20.7409 10.6415 20.8958 11.5927 20.8958 12.5634C20.8958 13.5341 20.7409 14.4854 20.4312 15.4171C20.1214 16.3488 19.6859 17.0634 19.1245 17.561ZM15.2772 13.9756L16.2209 14.1366C16.1434 12.9659 15.6958 11.9659 14.8779 11.1366C14.0601 10.3073 13.0704 9.85366 11.9089 9.77561L12.0686 10.7268C12.901 10.8341 13.6173 11.1902 14.2173 11.7951C14.8174 12.4 15.1707 13.1268 15.2772 13.9756ZM12.2283 11.7073L12.4026 12.761C12.7897 12.9561 13.0752 13.2439 13.2591 13.6244L14.3045 13.8C14.1883 13.2829 13.9415 12.8366 13.564 12.461C13.1865 12.0854 12.7413 11.8341 12.2283 11.7073ZM10.6749 12.5707V11.6341C10.6749 11.4683 10.6144 11.3024 10.4934 11.1366C10.3724 10.9707 10.2442 10.8512 10.1087 10.778C9.97317 10.7049 9.87154 10.6976 9.80379 10.7561L9.13595 11.4439C8.75847 11.8244 8.70282 12.4171 8.96899 13.222C9.23516 14.0268 9.7433 14.8073 10.4934 15.5634C11.2435 16.3195 12.0178 16.8317 12.8163 17.1C13.6148 17.3683 14.198 17.3122 14.5658 16.9317L15.2481 16.2439C15.3159 16.1854 15.3135 16.0854 15.2409 15.9439C15.1683 15.8024 15.0497 15.6732 14.8852 15.5561C14.7206 15.439 14.5561 15.3805 14.3916 15.3805H13.4624L12.9252 15.8488C12.4993 15.7317 11.9694 15.3537 11.3355 14.7146C10.7015 14.0756 10.3264 13.5366 10.2103 13.0976L10.6749 12.5707ZM11.6041 7.8878L11.7492 8.83902C12.7171 8.85854 13.6124 9.11463 14.4351 9.60732C15.2578 10.1 15.9111 10.7585 16.3951 11.5829C16.879 12.4073 17.1355 13.3073 17.1646 14.2829L18.1082 14.4439C18.1082 13.5561 17.9364 12.7073 17.5928 11.8976C17.2492 11.0878 16.7871 10.3902 16.2063 9.80488C15.6256 9.21951 14.9336 8.75366 14.1302 8.40732C13.3269 8.06098 12.4848 7.8878 11.6041 7.8878Z" fill="#2E3559"/>
<path d="M9.24572 21V22.0048L10.0472 21.3989L12.4522 19.5808C13.7753 19.67 15.0653 19.5874 16.3208 19.3314C17.6386 19.0627 18.6999 18.6089 19.4567 17.9347C20.1009 17.3635 20.5766 16.5646 20.9056 15.5748C21.2321 14.5928 21.3958 13.5884 21.3958 12.5634C21.3958 11.5385 21.2321 10.534 20.9056 9.55203C20.5762 8.56113 20.0978 7.76015 19.4491 7.18455C18.8028 6.61104 17.9094 6.1978 16.8087 5.91786C15.7129 5.63919 14.5923 5.5 13.4479 5.5C12.3035 5.5 11.1829 5.63919 10.0871 5.91786C8.9863 6.1978 8.09293 6.61104 7.44662 7.18455C6.79797 7.76015 6.31952 8.56113 5.99011 9.55203C5.66368 10.534 5.5 11.5385 5.5 12.5634C5.5 13.5884 5.66368 14.5928 5.99011 15.5748C6.31924 16.5649 6.79509 17.3639 7.43958 17.9352L7.43996 17.9355C7.90983 18.3511 8.51796 18.6837 9.24572 18.945V21ZM9.4909 11.796L9.49092 11.7961L9.49467 11.7922L9.97513 11.2974C10.0095 11.3306 10.0479 11.3742 10.0895 11.4313C10.1631 11.5322 10.1749 11.5972 10.1749 11.6341V12.3818L9.83529 12.7669L9.65861 12.9672L9.72693 13.2254C9.87843 13.7981 10.3345 14.4156 10.9805 15.0668C11.6244 15.7158 12.2325 16.1769 12.7927 16.3309L13.0515 16.402L13.2538 16.2257L13.6497 15.8805H14.3916C14.4306 15.8805 14.4959 15.8928 14.5953 15.9635C14.6475 16.0006 14.6877 16.0356 14.7186 16.0677L14.2108 16.5796L14.2108 16.5795L14.2063 16.5842C14.0419 16.7543 13.71 16.8728 12.9756 16.626C12.2678 16.3882 11.5577 15.9263 10.8484 15.2113C10.1391 14.4964 9.68017 13.78 9.4437 13.065C9.19923 12.3257 9.313 11.9754 9.4909 11.796ZM9.85253 11.2089C9.85168 11.2086 9.85125 11.2085 9.85125 11.2085L9.85253 11.2089ZM14.8056 16.1932C14.8056 16.1932 14.8053 16.1925 14.8048 16.1911C14.8054 16.1925 14.8056 16.1932 14.8056 16.1932Z" stroke="white" stroke-opacity="0.25"/>
</svg>
