<svg width="27" height="27" viewBox="0 0 27 27" fill="none" xmlns="http://www.w3.org/2000/svg">
<circle cx="13.5" cy="13.5" r="12.5" fill="#CAF2C9" stroke="white" stroke-opacity="0.25"/>
<path d="M19.7819 9.4591C17.5536 5.99989 13.0043 4.97147 9.47625 7.12179C6.04105 9.27212 4.92693 13.9467 7.15517 17.406L7.34086 17.6864L6.59811 20.4912L9.38341 19.7433L9.66194 19.9302C10.8689 20.5847 12.1687 20.9587 13.4685 20.9587C14.8612 20.9587 16.2538 20.5847 17.4608 19.8368C20.896 17.5929 21.9173 13.0118 19.7819 9.4591ZM17.8322 16.658C17.4608 17.219 16.9966 17.5929 16.3467 17.6864C15.9753 17.6864 15.5111 17.8734 13.6542 17.1255C12.0759 16.3775 10.7761 15.1621 9.84763 13.7598C9.29057 13.1053 9.01204 12.2639 8.91919 11.4224C8.91919 10.6745 9.19772 10.0201 9.66194 9.5526C9.84763 9.36561 10.0333 9.27212 10.219 9.27212H10.6832C10.8689 9.27212 11.0546 9.27212 11.1474 9.64609C11.3331 10.1136 11.7973 11.2355 11.7973 11.329C11.8902 11.4224 11.8902 11.6094 11.7973 11.7029C11.8902 11.8899 11.7973 12.0769 11.7045 12.1704C11.6117 12.2639 11.5188 12.4509 11.426 12.5444C11.2403 12.6378 11.1474 12.8248 11.2403 13.0118C11.6117 13.5728 12.0759 14.1337 12.5401 14.6012C13.0971 15.0686 13.6542 15.4426 14.3041 15.7231C14.4898 15.8166 14.6755 15.8166 14.7683 15.6296C14.8612 15.4426 15.3254 14.9752 15.5111 14.7882C15.6968 14.6012 15.7896 14.6012 15.9753 14.6947L17.4608 15.4426C17.6465 15.5361 17.8322 15.6296 17.925 15.7231C18.0178 16.0036 18.0178 16.3775 17.8322 16.658Z" fill="#2E3559"/>
<path d="M20.2104 9.20152L20.2064 9.19487L20.2022 9.18834C17.8257 5.49888 12.9735 4.40468 9.21603 6.69485L9.21601 6.69482L9.21096 6.69798C5.54447 8.99308 4.35255 13.9784 6.73483 17.6767L6.73479 17.6767L6.73826 17.682L6.80008 17.7753L6.11477 20.3632L5.89368 21.1981L6.72778 20.9741L9.2935 20.2851L9.38325 20.3454L9.40285 20.3585L9.42361 20.3698C10.6914 21.0572 12.0725 21.4587 13.4685 21.4587C14.9497 21.4587 16.4343 21.061 17.7242 20.2618L17.7242 20.2619L17.7342 20.2554C21.3989 17.8617 22.4816 12.9802 20.2104 9.20152ZM10.2645 13.4837L10.2479 13.4586L10.2284 13.4357C9.76051 12.886 9.50784 12.1606 9.41934 11.3956C9.42587 10.7866 9.65413 10.27 10.0167 9.90492C10.1483 9.7724 10.214 9.77212 10.219 9.77212H10.6635L10.6703 9.79931L10.6828 9.83067C10.7251 9.93724 10.7815 10.0769 10.8428 10.2286C10.8497 10.2457 10.8567 10.263 10.8637 10.2804C10.9334 10.4528 11.0083 10.6386 11.0773 10.8123C11.1467 10.9868 11.2087 11.1459 11.2529 11.2656C11.2726 11.3189 11.2874 11.3607 11.2973 11.3907V11.4968L11.1903 11.6046L11.3147 11.8553C11.2806 11.8935 11.2519 11.9314 11.2295 11.9624C11.2003 12.0029 11.1723 12.0452 11.1505 12.078L11.1483 12.0814C11.1267 12.114 11.1105 12.1384 11.0958 12.1592C10.9589 12.2507 10.8396 12.3804 10.7686 12.5472C10.6758 12.7654 10.6819 13.0116 10.7924 13.2342L10.8062 13.262L10.8234 13.2878C11.2142 13.8782 11.6997 14.4645 12.1853 14.9535L12.2013 14.9696L12.2187 14.9842C12.7987 15.471 13.3933 15.8729 14.0939 16.1769C14.2348 16.2456 14.4287 16.3072 14.6422 16.2764C14.8961 16.2399 15.1012 16.0835 15.2162 15.852C15.2151 15.854 15.2155 15.8534 15.2178 15.8501C15.2239 15.8412 15.2432 15.8128 15.2851 15.7613C15.3355 15.6994 15.4004 15.6259 15.4725 15.5478C15.5977 15.412 15.7325 15.275 15.8269 15.1798L17.2359 15.8892C17.3318 15.9375 17.4115 15.9778 17.4783 16.0162C17.4792 16.0167 17.4801 16.0172 17.4809 16.0177C17.4978 16.1572 17.4734 16.2942 17.4152 16.382C17.1043 16.8517 16.76 17.1123 16.3067 17.1867C16.2178 17.188 16.1504 17.1934 16.087 17.1985C15.9606 17.2087 15.85 17.2176 15.6163 17.1899C15.2824 17.1503 14.7508 17.0272 13.855 16.6673C12.3752 15.9627 11.1467 14.8162 10.2645 13.4837Z" stroke="white" stroke-opacity="0.25"/>
</svg>
